<?xml version="1.0" encoding="utf-8"?>
<!-- Generator: Adobe Illustrator 24.0.1, SVG Export Plug-In . SVG Version: 6.00 Build 0)  -->
<svg version="1.1" id="圖層_1" xmlns="http://www.w3.org/2000/svg" xmlns:xlink="http://www.w3.org/1999/xlink" x="0px" y="0px"
	 viewBox="0 0 36 36" style="enable-background:new 0 0 36 36;" xml:space="preserve">
<style type="text/css">
	.st0{display:none;}
	.st1{display:inline;}
	.st2{fill:none;}
	.st3{fill:none;stroke:#231815;stroke-width:0.75;stroke-linejoin:round;stroke-miterlimit:10;}
	.st4{fill:none;stroke:#231815;stroke-width:0.75;stroke-miterlimit:10;}
	.st5{fill:none;stroke:#231815;stroke-width:0.75;stroke-linecap:round;stroke-linejoin:round;stroke-miterlimit:10;}
	.st6{fill:none;stroke:#FFFFFF;stroke-width:0.75;stroke-linecap:round;stroke-linejoin:round;stroke-miterlimit:10;}
	.st7{fill:none;stroke:#6900D1;stroke-miterlimit:10;}
	.st8{fill:none;stroke:#FFFFFF;stroke-width:0.75;stroke-linejoin:round;stroke-miterlimit:10;}
</style>
<g id="圖層_1_1_" class="st0">
	<g class="st1">
		<path class="st2" d="M17.4-8.4l25,25l-25,25l-25-25L17.4-8.4z M29.8,27.7L29.8,27.7v0.1l0,0l0,0h-0.1l0,0l0,0l0.4,0.5l0,0l0,0h0.2
			l0,0l0,0v-0.2l0,0l0,0L29.8,27.7L29.8,27.7 M29.9,27.3L29.9,27.3l-0.1,0.3l0,0l0,0l0.5,0.4l0,0l0,0l0.3-0.1l0,0l0,0L29.9,27.3
			L29.9,27.3 M29.2,28C29.2,28,29.2,28.1,29.2,28L29.2,28l0.6,0.7l0,0l0,0l0.1-0.3l0,0l0,0L29.5,28l0,0l0,0H29.2z"/>
		<path d="M9.8,8.7c0.4-1,1.4-1.7,2.5-1.8h0.3h9.8c1.1,0,2.1,0.6,2.6,1.6l0,0.2l3.7,8.6c0.4,1,0.3,2.1-0.4,3l-4.6,5.9
			c-0.1,0.2-0.2,0.3-0.4,0.5L23,27.2l-0.2,0.3l-0.6,0.9L21.8,29l-0.6,1l-0.8,1.2l-1.2,2l-0.5,0.9c-0.4,0.7-1.3,1-2,0.6
			c-0.2-0.1-0.3-0.2-0.5-0.4L16.1,34l-0.9-1.5l-0.8-1.4L13.7,30l-0.6-1l-0.4-0.6l-0.6-0.9l-0.4-0.6l-0.4-0.5l-4.8-6.2
			c-0.6-0.8-0.8-1.8-0.5-2.7l0.1-0.2L9.8,8.7z M12.5,9.8l-3.7,8.6l4.3,5.5l0.4,0.5c0.7,0.9,1.3,1.8,1.9,2.7l0.6,1v-6.8
			c-1.4-0.8-1.9-2.6-1.1-4c0.8-1.4,2.6-1.9,4-1.1s1.9,2.6,1.1,4c-0.3,0.4-0.6,0.8-1.1,1.1v6.8l0.3-0.5l0.6-1
			c0.4-0.6,0.8-1.2,1.3-1.8l4.9-6.3l-3.7-8.6L12.5,9.8z M11.5,3.9c0-0.7,0.6-1.4,1.3-1.5H13h8.8c0.8,0,1.5,0.7,1.5,1.5
			c0,0.7-0.6,1.4-1.3,1.5h-0.2H13C12.2,5.4,11.5,4.8,11.5,3.9"/>
	</g>
</g>
<g id="圖層_1_2_" class="st0">
	<g class="st1">
		<path class="st2" d="M-21.8-8.4l25,25l-25,25l-25-25L-21.8-8.4z M-9.4,27.7L-9.4,27.7v0.1l0,0l0,0h-0.1l0,0l0,0l0.4,0.5l0,0l0,0
			h0.2l0,0l0,0v-0.2l0,0l0,0L-9.4,27.7L-9.4,27.7 M-9.3,27.3L-9.3,27.3l-0.1,0.3l0,0l0,0l0.5,0.4l0,0l0,0l0.3-0.1l0,0l0,0L-9.3,27.3
			L-9.3,27.3 M-10,28C-10,28-10,28.1-10,28L-10,28l0.6,0.7l0,0l0,0l0.1-0.3l0,0l0,0L-9.7,28l0,0l0,0H-10z"/>
	</g>
</g>
<g id="圖層_1_4_" class="st0">
	<g class="st1">
		<path class="st2" d="M-22.3-8.4l25,25l-25,25l-25-25L-22.3-8.4z M-9.9,27.7L-9.9,27.7v0.1l0,0l0,0H-10l0,0l0,0l0.4,0.5l0,0l0,0
			h0.2l0,0l0,0v-0.2l0,0l0,0L-9.9,27.7L-9.9,27.7 M-9.8,27.3L-9.8,27.3l-0.1,0.3l0,0l0,0l0.5,0.4l0,0l0,0l0.3-0.1l0,0l0,0L-9.8,27.3
			L-9.8,27.3 M-10.5,28C-10.5,28-10.5,28.1-10.5,28L-10.5,28l0.6,0.7l0,0l0,0l0.1-0.3l0,0l0,0l-0.4-0.4l0,0l0,0H-10.5z"/>
	</g>
</g>
<path class="st6" d="M29.4,14.3v-3.6V4.5c0-1.1-0.9-2-2-2h-6.2H8.6c-1.1,0-2,0.9-2,2v27c0,1.1,0.9,2,2,2h3.7"/>
<g>
	<path class="st8" d="M31.2,21.5c1.2-1.2,1.2-3.1,0-4.2c-1.2-1.2-3.1-1.2-4.2,0l0,0l-12,12l0,4.2l4.2,0L31.2,21.5L31.2,21.5z"/>
	<line class="st8" x1="27" y1="17.2" x2="31.2" y2="21.5"/>
</g>
<line class="st6" x1="11.4" y1="7.3" x2="25.4" y2="7.3"/>
<line class="st6" x1="11.4" y1="12.7" x2="25.4" y2="12.7"/>
<line class="st6" x1="11.4" y1="18" x2="18.4" y2="18"/>
</svg>
