<?xml version="1.0" encoding="utf-8"?>
<!-- Generator: Adobe Illustrator 24.0.1, SVG Export Plug-In . SVG Version: 6.00 Build 0)  -->
<svg version="1.1" id="圖層_1" xmlns="http://www.w3.org/2000/svg" xmlns:xlink="http://www.w3.org/1999/xlink" x="0px" y="0px"
	 viewBox="0 0 600 198.2" style="enable-background:new 0 0 600 198.2;" xml:space="preserve">
<style type="text/css">
	.st0{fill:#F5B25E;}
	.st1{fill:#FFFFFF;}
</style>
<g>
	<rect x="420.3" y="143.4" class="st0" width="40.7" height="54.8"/>
	<g>
		<polygon class="st0" points="180.5,55.6 220.2,1 177.5,1 137.9,55.6 		"/>
		<g>
			<polygon class="st1" points="285.4,94.5 225.2,94.4 264.9,39.8 250.2,0.8 182.7,94 196.8,131.5 257.2,131.5 268.3,161.2 
				133.8,161.2 106.9,198.2 324.2,198.2 324.2,198.2 324.2,198.2 			"/>
			<polygon class="st1" points="447.1,67.6 341.6,67.6 329.5,35.2 426.4,35.2 427.3,34.8 416.6,49.9 459.2,49.9 494,0.8 451.4,0.8 
				279.9,0.8 353.8,198.4 401.2,131.5 371.5,131.5 365.5,131.5 358.3,112.2 353.6,99.7 423.9,99.7 			"/>
			<polygon class="st1" points="552.3,131.7 552.4,131.7 565.4,113.8 558,94.1 523.1,1 495.4,39.2 488.4,49.9 499.4,49.9 516,94.1 
				455.6,94.1 428.1,131.7 504.2,131.7 549,198.2 597.1,198.2 			"/>
			<polygon class="st1" points="171.9,67.5 129.2,67.5 90.4,120.9 45.4,0.8 2.9,0.8 76.8,198 76.8,198.4 			"/>
		</g>
	</g>
</g>
</svg>
