<?xml version="1.0" encoding="utf-8"?>
<!-- Generator: Adobe Illustrator 24.0.1, SVG Export Plug-In . SVG Version: 6.00 Build 0)  -->
<svg version="1.1" id="圖層_1" xmlns="http://www.w3.org/2000/svg" xmlns:xlink="http://www.w3.org/1999/xlink" x="0px" y="0px"
	 viewBox="0 0 40 40" style="enable-background:new 0 0 40 40;" xml:space="preserve">
<style type="text/css">
	.st0{fill:#FFFFFF;}
	.st1{fill:#F5B25E;}
</style>
<path class="st0" d="M-75.45,30.8c-0.46-0.01-0.82-0.39-0.8-0.84c0.02-0.45,0.41-0.79,0.86-0.77c0.44,0.02,0.76,0.37,0.76,0.82
	C-74.62,30.48-74.97,30.81-75.45,30.8z"/>
<g>
	<path class="st1" d="M32.94,0H6.76c-3.8,0-6.91,3.11-6.91,6.91v26.17c0,3.8,3.11,6.91,6.91,6.91h26.17c3.8,0,6.91-3.11,6.91-6.91
		V6.91C39.85,3.11,36.74,0,32.94,0z M32.72,14.33c-0.8,3.32-1.61,6.64-2.41,9.97c-0.24,1-0.44,1.15-1.49,1.15H14.19
		c-0.04,0.15-0.07,0.31-0.07,0.47c0,0.94,0.76,1.7,1.7,1.7h13.4c0.5,0,0.91,0.41,0.91,0.91c0,0.5-0.41,0.91-0.91,0.91h-2.33
		c0.33,0.29,0.54,0.71,0.54,1.19c0,0.88-0.71,1.59-1.59,1.59s-1.59-0.71-1.59-1.59c0-0.47,0.21-0.9,0.54-1.19h-6.32
		c0.33,0.29,0.54,0.71,0.54,1.19c0,0.88-0.71,1.59-1.59,1.59c-0.88,0-1.59-0.71-1.59-1.59c0-0.47,0.21-0.9,0.54-1.19h-0.54
		c-1.95,0-3.53-1.58-3.53-3.53c0-0.16-0.03-0.75,0-0.91c0,0-0.03-0.34-0.13-0.72c-1.2-4.31-2.38-8.63-3.55-12.95
		c-0.1-0.38-0.26-0.51-0.66-0.49c-0.57,0.04-1.14,0.02-1.7,0.01c-0.62-0.01-1.04-0.39-1.07-0.94C5.16,9.36,5.53,8.91,6.15,8.88
		c1.02-0.04,2.05-0.03,3.07,0c0.53,0.01,0.86,0.32,1,0.84c0.26,0.97,0.54,1.93,0.82,2.96c0.21,0,0.43,0,0.65,0
		c6.57,0,13.15,0,19.72,0C32.69,12.69,33.01,13.1,32.72,14.33z"/>
</g>
</svg>
