<svg width="601" height="547" viewBox="0 0 601 547" fill="none" xmlns="http://www.w3.org/2000/svg">
<g clip-path="url(#clip0_1281_34)">
<path d="M233.105 24.7801L301.605 29.2991L367.725 23.8281L352.265 51.4191L318.735 77.5821L300.175 84.4801L265.695 66.4031L243.335 43.8081L233.105 24.7801Z" fill="#B3B3B3"/>
<path d="M393.405 12.52L369.625 55.808L403.875 90.534L438.595 141.91L458.105 189.955L476.655 204.226L554.665 117.173L510.905 74.836L472.845 43.44L433.365 24.888L393.405 12.52Z" fill="#CCCCCC"/>
<path d="M589.105 154.93L599.195 169.73L573.125 206.562L538.145 240.872L524.355 248.609L511.235 240.368L589.105 154.93Z" fill="#808080"/>
<path d="M548.105 111.9L590.035 156.899C590.035 156.899 572.695 179.9 553.755 201.435C535.665 222.002 516.045 241.172 511.785 240.147C503.345 238.117 471.655 201.127 471.655 201.127C471.655 201.127 552.625 122.128 548.105 111.9Z" fill="#1A1A1A"/>
<path d="M207.605 13.1802L231.395 56.4692L197.145 91.1952L162.415 142.571L142.915 190.616L124.365 204.887L46.3447 117.834L90.1147 75.4972L128.165 44.1012L167.655 25.5492L207.605 13.1802Z" fill="#CCCCCC"/>
<path d="M11.9049 155.59L1.81494 170.391L27.8849 207.223L62.865 241.533L76.6549 249.269L89.7749 241.028L11.9049 155.59Z" fill="#808080"/>
<path d="M52.8052 112.56L10.8652 157.559C10.8652 157.559 28.2152 180.56 47.1552 202.095C65.2452 222.662 84.8551 241.832 89.1251 240.806C97.5651 238.776 129.245 201.787 129.245 201.787C129.245 201.787 48.2852 122.787 52.8052 112.56Z" fill="#1A1A1A"/>
<path d="M231.705 57.3802L186.965 103.799L164.765 139.455L143.235 189.91L142.905 231.284H458.085L457.075 182.51L419.065 108.845L370.285 55.6992L340.015 83.9542L301.335 101.781L259.955 82.9452L231.705 57.3802Z" fill="#CCCCCC"/>
<path d="M135.505 385.09H465.215L469.495 509.15L466.645 527.703L392.435 538.644L284.925 543.876L183.605 536.741L136.505 528.178L132.225 490.122L135.505 385.09Z" fill="#1A1A1A"/>
<path d="M142.805 229.92H459.495L465.475 389.38H135.825L142.805 229.92Z" fill="#808080"/>
<path d="M189.965 129.26L199.693 155.24V155.279L212.211 138.047H206.594L201.504 145.098L195.584 129.26H189.965ZM222.543 129.26L213.644 141.516L215.492 146.492H223.449L224.922 150.377H207.197L203.691 155.242H232.273V155.24L230.465 150.377L227.187 141.59H219.269L224.472 134.389L222.543 129.26ZM226.465 129.26L236.193 155.279L242.453 146.492H237.74L236.797 143.928L236.174 142.27H245.43L248.484 138.047H234.588L232.988 133.785H245.771L245.851 133.744L244.449 135.709H250.068L254.668 129.26H226.465ZM212.967 129.299L207.763 136.463H213.383L218.586 129.299H212.967ZM258.478 129.299L254.857 134.314L253.914 135.709H255.381L257.574 141.553H249.619L245.961 146.492H255.99L261.91 155.24H268.244L262.324 146.492H262.365L264.06 144.154L263.08 141.553L258.478 129.299ZM244.715 148.039V155.24H250.068V148.039H244.715Z" fill="#1A1A1A"/>
<path d="M234.705 23.5998C234.705 23.5998 276.91 27.2698 300.432 27.3268C300.492 27.3268 300.542 27.3228 300.602 27.3228C300.662 27.3228 300.712 27.3268 300.772 27.3268C324.262 27.2698 368.142 22.9598 368.252 22.9498C347.112 68.2368 304.752 81.6678 300.532 82.8988C295.742 81.5038 241.971 64.4588 225.606 3.0728L207.169 10.2368C207.169 10.2368 228.172 82.1818 300.112 101.337H300.942C372.892 82.1818 393.892 10.2368 393.892 10.2368L375.452 3.0728C373.922 8.8268 371.162 17.2538 368.602 22.1328C371.292 16.1398 374.522 4.3048 372.972 2.4668C372.972 2.4668 325.712 9.85179 300.772 9.80479C300.712 9.80479 300.662 9.80879 300.602 9.80879C300.542 9.80879 300.492 9.80479 300.432 9.80479C275.493 9.85179 228.192 2.52379 228.192 2.52379C228.192 2.52379 226.271 5.9248 229.296 13.9148C230.91 18.1788 234.705 23.5998 234.705 23.5998Z" fill="#4D4D4D" stroke="#1A1A1A" stroke-width="4.592"/>
<path d="M209.255 9.96977L204.843 11.2628C204.843 11.2628 205.058 11.8988 205.097 12.0268C186.066 16.5428 150.371 26.3098 125.587 42.1868C108.104 53.3968 84.514 75.5228 63.742 96.4098C42.969 117.296 25.111 136.923 19.716 142.806C14.343 148.666 8.73499 154.39 4.93299 159.798C3.03199 162.502 1.551 165.132 0.877996 167.878C0.205996 170.623 0.516964 173.674 2.28296 176.093V176.099C5.06696 179.928 27.061 209.751 48.771 231.156V231.158C55.571 237.844 61.799 243.488 67.636 247.34C72.987 250.864 77.817 250.155 81.087 249.871C82.227 249.772 82.65 249.431 83.21 249.105C83.77 248.779 84.336 248.385 84.966 247.914C86.226 246.971 87.726 245.716 89.433 244.211C92.847 241.2 97.064 237.208 101.339 233.039C109.89 224.701 118.568 215.771 121.41 212.59V212.588C126.965 206.378 131.971 201.227 135.9 197.871C137.864 196.192 139.572 194.966 140.808 194.302C141.233 194.074 141.071 194.164 141.341 194.08C141.45 194.734 141.622 195.124 141.622 197.996C141.622 201.82 140.824 222.138 139.943 244.131C139.061 266.123 138.101 290.025 137.779 301.953C137.467 313.507 133.936 368.922 131.851 421.813C130.808 448.26 130.124 474.126 130.386 493.78C130.517 503.607 130.88 511.868 131.574 517.967C131.92 521.017 132.34 523.517 132.917 525.514C133.494 527.51 133.887 529.32 136.193 530.407V530.409C138.111 531.314 140.792 531.973 144.619 532.764C148.447 533.556 153.301 534.386 158.968 535.235C170.303 536.933 184.884 538.702 200.769 540.311C232.539 543.529 269.487 546.102 295.987 546.102H305.187C331.697 546.102 368.647 543.519 400.427 540.297C416.317 538.687 430.897 536.916 442.227 535.219C447.897 534.371 452.747 533.544 456.567 532.755C460.397 531.966 463.067 531.309 464.987 530.409C467.297 529.326 467.697 527.514 468.277 525.516C468.857 523.518 469.277 521.019 469.627 517.969C470.317 511.869 470.687 503.607 470.817 493.78C471.077 474.126 470.397 448.258 469.347 421.811C467.257 368.917 463.717 313.501 463.407 301.951C463.087 290.023 462.117 266.112 461.237 244.115C460.357 222.118 459.557 201.798 459.557 197.994C459.557 195.128 459.737 194.73 459.847 194.076C460.117 194.16 459.957 194.071 460.397 194.302C461.627 194.965 463.337 196.189 465.297 197.867C469.227 201.223 474.217 206.374 479.777 212.586V212.594C482.617 215.756 491.307 224.697 499.857 233.035C504.127 237.204 508.337 241.196 511.747 244.207C513.457 245.712 514.957 246.969 516.217 247.912C516.847 248.383 517.407 248.777 517.967 249.103C518.527 249.43 518.957 249.77 520.097 249.869H520.107L520.127 249.871C523.367 250.118 528.177 250.829 533.527 247.348L533.537 247.342L533.547 247.338C539.387 243.486 545.617 237.842 552.417 231.156V231.154C574.127 209.745 596.147 179.84 598.897 176.105V176.097C600.667 173.677 600.977 170.625 600.307 167.878C599.637 165.131 598.157 162.5 596.257 159.796C592.447 154.388 586.847 148.664 581.467 142.804V142.8C576.057 136.923 558.187 117.293 537.417 96.4078C516.647 75.5218 493.067 53.3968 475.607 42.1868C450.727 26.2158 414.687 16.4288 395.737 11.9368C395.767 11.8358 395.957 11.2608 395.957 11.2608L391.557 9.96777C391.557 9.96777 370.917 80.5248 300.407 99.4228H300.377C229.878 80.5248 209.241 9.96777 209.241 9.96777L209.255 9.96977ZM393.845 17.2938C412.405 21.6838 448.695 31.6298 472.555 46.9488C489.105 57.5708 512.755 79.6178 533.415 100.398C554.085 121.178 571.865 140.707 577.315 146.632C582.765 152.573 588.285 158.271 591.645 163.052C593.325 165.443 594.435 167.601 594.825 169.224C595.225 170.847 595.085 171.748 594.345 172.759C591.595 176.5 569.655 206.23 548.465 227.125C541.765 233.705 535.705 239.143 530.465 242.607C526.555 245.145 524.275 244.516 520.615 244.234C521.145 244.291 521.075 244.355 520.835 244.216C520.575 244.066 520.145 243.777 519.625 243.386C518.575 242.604 517.155 241.417 515.505 239.968C512.225 237.072 508.055 233.121 503.815 228.99C495.355 220.73 486.555 211.654 483.995 208.818L483.985 208.812C478.355 202.508 473.265 197.235 468.975 193.57C466.835 191.736 464.905 190.301 463.075 189.318C462.155 188.827 461.205 188.532 460.235 188.359C457.525 178.89 435.505 107.448 372.725 54.9788C384.295 39.6738 390.815 25.1408 393.845 17.2948V17.2938ZM207.005 17.3798C210.061 25.2848 216.631 39.8698 228.253 55.1888C165.659 107.65 143.687 178.929 140.991 188.359C140.012 188.529 139.056 188.82 138.136 189.314C136.304 190.297 134.373 191.733 132.228 193.566C127.937 197.232 122.837 202.506 117.195 208.814V208.816C114.68 211.631 105.867 220.722 97.394 228.984C93.157 233.115 88.98 237.068 85.695 239.964C84.052 241.413 82.625 242.6 81.579 243.382C81.056 243.773 80.624 244.062 80.366 244.212C80.108 244.363 79.893 244.293 80.599 244.232C76.931 244.551 74.674 245.197 70.751 242.615V242.613C65.503 239.149 59.438 233.706 52.739 227.12C31.543 206.221 9.50297 176.407 6.85297 172.763V172.757C6.11397 171.746 5.97501 170.844 6.37201 169.22C6.77001 167.596 7.879 165.439 9.56 163.048C12.922 158.266 18.437 152.567 23.886 146.624C29.313 140.706 47.086 121.173 67.753 100.394C88.42 79.6138 112.076 57.5668 128.642 46.9448C152.427 31.7068 188.381 21.7888 207.013 17.3758L207.005 17.3798ZM369.225 59.4248C431.105 111.22 452.585 182.095 454.855 190.115C454.845 190.14 454.805 190.169 454.795 190.193C454.065 191.839 453.915 193.682 453.915 197.994C453.915 202.523 454.715 222.342 455.595 244.339C456.475 266.337 457.445 290.275 457.765 302.103C458.095 314.304 461.615 369.239 463.705 422.033C464.745 448.431 465.425 474.244 465.165 493.701C465.035 503.429 464.665 511.581 464.015 517.325C463.685 520.198 463.275 522.477 462.845 523.939C462.425 525.4 461.645 525.726 462.595 525.284V525.286C461.785 525.668 459.105 526.456 455.445 527.212C451.775 527.968 447.005 528.784 441.405 529.622C430.205 531.299 415.685 533.063 399.865 534.667C368.225 537.875 331.335 540.443 305.205 540.443H296.005C269.865 540.443 232.983 537.884 201.35 534.681C185.534 533.079 171.019 531.316 159.817 529.638C154.216 528.799 149.443 527.98 145.776 527.222C142.109 526.464 139.431 525.674 138.616 525.288V525.286C139.564 525.732 138.787 525.403 138.364 523.941C137.942 522.479 137.533 520.198 137.206 517.326C136.552 511.581 136.183 503.431 136.054 493.702C135.794 474.246 136.474 448.431 137.515 422.033C139.596 369.235 143.115 314.303 143.444 302.103C143.763 290.275 144.727 266.347 145.608 244.355C146.49 222.362 147.292 202.54 147.292 197.994C147.292 193.664 147.145 191.829 146.405 190.175C146.395 190.163 146.381 190.15 146.376 190.138C148.616 182.237 170.025 111.451 231.773 59.6278C246.497 77.6018 268.241 95.6358 299.415 103.937C299.415 103.937 299.605 104.004 299.705 104.017C300.175 104.082 301.135 104.017 301.135 104.017L301.425 103.937C332.725 95.6048 354.515 77.4658 369.235 59.4248H369.225Z" fill="#1A1A1A"/>
</g>
<defs>
<clipPath id="clip0_1281_34">
<rect width="600.08" height="546.11" fill="white" transform="translate(0.504883)"/>
</clipPath>
</defs>
</svg>
