<svg width="601" height="547" viewBox="0 0 601 547" fill="none" xmlns="http://www.w3.org/2000/svg">
<g clip-path="url(#clip0_1281_2)">
<path d="M232.75 23.1897L301.251 27.7088L367.373 22.2383L351.913 49.8293L318.376 75.9923L299.824 82.8899L265.336 64.8129L242.978 42.2169L232.75 23.1897Z" fill="#B3B3B3"/>
<path d="M230.63 55.48L244.421 70.617L301.604 184.647L135.434 526.397L132.609 449.417L144.501 201.107L143.55 189.215L164.481 136.888L199.683 86.94L230.63 55.48Z" fill="#CCCCCC"/>
<path d="M243.08 71.2899L462.31 527.76L467.1 488.384L465.082 414.719L460.373 327.936L455.664 194.396L454.655 182.287L439.182 146.968L407.227 96.1759L380.654 66.5749L368.208 56.1479L361.48 63.2117L342.643 81.3757L309.679 98.1937L300.261 101.221L278.397 93.8209L250.478 75.6569L243.08 71.2899Z" fill="#808080"/>
<path d="M297.88 181.92L135.9 523.95L141.133 529.42L256.533 542.211L344.326 541.875L423.709 534.475L463.14 528.404L297.88 181.92Z" fill="#1A1A1A"/>
<path d="M206.35 14.1499L218.718 35.5559L231.086 55.2979L208.015 78.3689L169.246 129.031L142.369 190.634L123.817 205.381L81.4798 247.243L70.7768 247.005L44.6128 224.647L1.7998 170.893L10.8381 154.957L106.216 58.39L149.98 30.799L206.35 14.1499Z" fill="#CCCCCC"/>
<path d="M392.82 14.6299L423.74 22.7168L468.931 41.2688L518.879 81.2278L595.942 164.951L598.112 172.454L534.219 245.463L520.067 248.436L455.253 186.952L433.49 134.03L388.299 71.476L369.033 56.016L392.82 14.6299Z" fill="#808080"/>
<path d="M189.41 129.26L199.138 155.24V155.279L211.656 138.047H206.039L200.949 145.098L195.029 129.26L189.41 129.26ZM221.988 129.26L213.089 141.516L214.937 146.493H222.894L224.367 150.377H206.642L203.136 155.243H231.718L231.716 155.241L229.907 150.377H229.903L226.626 141.59H218.708L223.911 134.389L221.988 129.26ZM225.91 129.26L235.638 155.28L241.898 146.493H237.185L236.242 143.928L235.619 142.27H244.874L247.929 138.047H234.033L232.434 133.786H245.217L245.297 133.745L243.894 135.71H249.513L254.113 129.26L225.91 129.26ZM212.412 129.299L207.208 136.463H212.828L218.031 129.299H212.412ZM257.924 129.299L254.302 134.315L253.359 135.709H254.826L257.019 141.553L258.867 146.492H258.865L257.017 141.553H249.062L245.404 146.492H255.433L261.353 155.24H267.687L261.767 146.492H261.808L263.503 144.154L262.523 141.553L257.924 129.299ZM244.16 148.039V155.24H249.513V148.039H244.16Z" fill="#1A1A1A"/>
<path d="M234.16 23.6C234.16 23.6 276.366 27.2695 299.888 27.3268C299.946 27.3269 300 27.3228 300.058 27.3228C300.115 27.3228 300.167 27.3268 300.226 27.3268C323.719 27.2696 367.597 22.9603 367.704 22.9498C346.569 68.2368 304.211 81.6688 299.986 82.8988C295.197 81.5037 241.427 64.4588 225.062 3.0728L206.624 10.2369C206.624 10.2369 227.627 82.1819 299.571 101.337H300.399C372.343 82.1819 393.346 10.2369 393.346 10.2369L374.907 3.0728C373.376 8.8272 370.617 17.2538 368.053 22.1328C370.745 16.1394 373.979 4.3048 372.425 2.4668C372.425 2.4668 325.165 9.85129 300.225 9.80499C300.166 9.80488 300.114 9.80899 300.057 9.80899C299.999 9.80891 299.945 9.80499 299.887 9.80499C274.948 9.85139 227.647 2.5233 227.647 2.5233C227.647 2.5233 225.726 5.92439 228.75 13.9143C230.364 18.1781 234.16 23.6 234.16 23.6Z" fill="#4D4D4D" stroke="#1A1A1A" stroke-width="4.592"/>
<path d="M208.71 9.96999L204.298 11.263C204.298 11.263 204.513 11.8984 204.552 12.0267C185.521 16.5429 149.826 26.3097 125.042 42.1867C107.559 53.3967 83.9688 75.5227 63.1958 96.4097C42.4228 117.296 24.5658 136.923 19.1708 142.806H19.1688C13.796 148.665 8.18777 154.39 4.38577 159.798C2.48467 162.502 1.00346 165.131 0.331062 167.878C-0.340798 170.622 -0.0298809 173.673 1.73536 176.093L1.73736 176.097L1.73936 176.099C4.52336 179.927 26.5184 209.751 48.2274 231.156V231.158C55.0278 237.844 61.2554 243.488 67.0924 247.34C72.4438 250.864 77.2734 250.155 80.5434 249.871C81.683 249.772 82.1066 249.431 82.6664 249.105C83.2263 248.779 83.7923 248.385 84.4223 247.914C85.6823 246.971 87.1819 245.716 88.8891 244.211C92.3036 241.2 96.5197 237.208 100.795 233.039C109.346 224.701 118.024 215.771 120.865 212.59V212.588C126.42 206.378 131.426 201.228 135.355 197.871C137.32 196.192 139.027 194.966 140.263 194.302C140.688 194.074 140.526 194.164 140.796 194.08C140.905 194.734 141.078 195.123 141.078 197.996C141.078 201.82 140.279 222.139 139.398 244.131C138.517 266.123 137.556 290.025 137.234 301.953C136.922 313.507 133.391 368.922 131.306 421.813C130.264 448.26 129.58 474.126 129.841 493.78C129.972 503.607 130.335 511.868 131.029 517.968C131.376 521.017 131.795 523.517 132.373 525.514C132.949 527.511 133.342 529.321 135.648 530.407V530.409C137.566 531.315 140.248 531.973 144.074 532.765C147.902 533.556 152.756 534.386 158.424 535.235C169.759 536.933 184.34 538.703 200.225 540.311C231.995 543.529 268.943 546.102 295.446 546.102H304.647C331.15 546.102 368.106 543.52 399.881 540.298C415.769 538.687 430.351 536.916 441.684 535.22C447.35 534.371 452.202 533.544 456.028 532.755C459.85 531.967 462.526 531.309 464.44 530.409C466.75 529.327 467.15 527.515 467.729 525.517C468.309 523.519 468.731 521.02 469.079 517.97C469.775 511.87 470.138 503.608 470.27 493.781C470.534 474.127 469.85 448.259 468.805 421.812C466.716 368.918 463.175 313.502 462.862 301.952C462.539 290.024 461.578 266.113 460.696 244.116C459.814 222.119 459.016 201.799 459.016 197.995C459.016 195.129 459.19 194.73 459.299 194.077C459.572 194.161 459.418 194.072 459.85 194.303C461.087 194.966 462.793 196.19 464.755 197.868C468.679 201.224 473.674 206.375 479.23 212.587V212.595C482.075 215.757 490.764 224.698 499.31 233.036C503.583 237.205 507.796 241.197 511.208 244.208C512.913 245.713 514.413 246.97 515.672 247.913C516.302 248.384 516.866 248.778 517.426 249.104C517.986 249.43 518.41 249.771 519.549 249.87H519.565L519.581 249.872C522.828 250.119 527.635 250.83 532.987 247.348L532.997 247.342L533.007 247.338C538.844 243.487 545.073 237.843 551.874 231.156V231.154C573.586 209.745 595.6 179.84 598.352 176.105V176.097C600.122 173.677 600.434 170.626 599.762 167.879C599.091 165.131 597.609 162.501 595.708 159.797C591.906 154.388 586.298 148.664 580.925 142.805V142.801C575.517 136.924 557.645 117.294 536.872 96.4075C516.1 75.5215 492.519 53.3966 475.058 42.1866C450.181 26.2156 414.146 16.4296 395.193 11.9366C395.224 11.8358 395.417 11.2608 395.417 11.2608L391.015 9.96777C391.015 9.96777 370.369 80.5248 299.865 99.4228H299.838C229.334 80.5248 208.697 9.96777 208.697 9.96777L208.71 9.96999ZM393.3 17.2942C411.858 21.6842 448.156 31.6302 472.017 46.9482C488.563 57.5702 512.209 79.6182 532.876 100.397C553.543 121.177 571.324 140.706 576.776 146.631C582.224 152.572 587.738 158.27 591.098 163.051C592.779 165.442 593.889 167.6 594.286 169.223C594.683 170.846 594.543 171.747 593.803 172.758C591.047 176.498 569.107 206.229 547.916 227.123C541.223 233.704 535.162 239.141 529.916 242.605C526.014 245.143 523.727 244.515 520.072 244.232C520.601 244.289 520.528 244.354 520.289 244.215C520.032 244.065 519.599 243.776 519.076 243.385C518.032 242.603 516.606 241.415 514.965 239.967C511.682 237.07 507.51 233.119 503.275 228.988C494.809 220.728 486.007 211.652 483.455 208.816L483.445 208.81C477.807 202.506 472.72 197.233 468.435 193.568C466.292 191.734 464.362 190.299 462.527 189.316C461.611 188.825 460.662 188.53 459.689 188.357C456.984 178.888 434.957 107.446 372.181 54.9766C383.748 39.6716 390.271 25.1386 393.296 17.2926L393.3 17.2942ZM206.46 17.3801C209.516 25.2844 216.086 39.8691 227.708 55.1891C165.114 107.65 143.142 178.929 140.446 188.359C139.467 188.53 138.511 188.82 137.591 189.314C135.758 190.297 133.828 191.733 131.682 193.566C127.392 197.232 122.292 202.507 116.649 208.814V208.816C114.135 211.631 105.321 220.722 96.8484 228.984C92.6119 233.115 88.4346 237.068 85.1494 239.964C83.5067 241.412 82.0797 242.6 81.034 243.382C80.5112 243.773 80.0793 244.062 79.8213 244.212C79.5632 244.363 79.3476 244.293 80.0537 244.232C76.3861 244.551 74.1289 245.197 70.206 242.615V242.613C64.9576 239.149 58.892 233.706 52.194 227.121C30.998 206.221 8.95797 176.408 6.30697 172.764L6.30495 172.76L6.30296 172.758C5.56424 171.747 5.42505 170.844 5.82249 169.22C6.21993 167.597 7.32899 165.44 9.00999 163.049C12.372 158.267 17.8875 152.568 23.336 146.625C28.7631 140.706 46.537 121.174 67.203 100.395C87.869 79.6155 111.526 57.5675 128.092 46.9455C151.877 31.7075 187.831 21.7905 206.463 17.3775L206.46 17.3801ZM368.68 59.4251C430.558 111.219 452.034 182.095 454.309 190.115C454.297 190.14 454.261 190.169 454.25 190.193C453.516 191.839 453.363 193.682 453.363 197.994C453.363 202.523 454.167 222.342 455.049 244.34C455.931 266.337 456.893 290.276 457.213 302.104C457.543 314.305 461.071 369.24 463.156 422.034C464.199 448.433 464.88 474.246 464.619 493.702C464.489 503.43 464.119 511.583 463.463 517.327C463.135 520.199 462.725 522.479 462.301 523.94C461.877 525.402 461.1 525.728 462.043 525.286V525.288C461.233 525.669 458.557 526.458 454.893 527.214C451.228 527.97 446.454 528.786 440.854 529.624C429.654 531.301 415.138 533.065 399.319 534.669C367.681 537.877 330.79 540.444 304.655 540.444H295.454C269.318 540.444 232.436 537.886 200.804 534.683C184.988 533.081 170.472 531.318 159.271 529.64C153.67 528.8 148.897 527.982 145.23 527.224C141.563 526.465 138.885 525.675 138.069 525.29V525.288C139.017 525.734 138.24 525.405 137.818 523.942C137.395 522.48 136.986 520.199 136.659 517.327C136.006 511.582 135.637 503.432 135.507 493.704C135.248 474.248 135.927 448.433 136.968 422.034C139.049 369.236 142.569 314.304 142.898 302.104C143.217 290.276 144.18 266.349 145.062 244.356C145.943 222.363 146.745 202.541 146.745 197.995C146.745 193.665 146.598 191.83 145.859 190.177C145.849 190.165 145.835 190.152 145.83 190.14C148.07 182.238 169.479 111.453 231.226 59.6296C245.95 77.6036 267.694 95.6376 298.87 103.939C298.87 103.939 299.058 104.005 299.157 104.019C299.628 104.083 300.582 104.019 300.582 104.019L300.879 103.939C332.173 95.6065 353.965 77.4676 368.689 59.4266L368.68 59.4251Z" fill="#1A1A1A"/>
</g>
<defs>
<clipPath id="clip0_1281_2">
<rect width="600.09" height="546.11" fill="white"/>
</clipPath>
</defs>
</svg>
