<svg width="600.09" height="546.11" version="1.1" viewBox="0 0 600.09 546.11" xml:space="preserve" xmlns="http://www.w3.org/2000/svg"><g id="design-1-cut" transform="translate(-188.96 -229.88)"><g><g stroke-width="0"><path id="D1-fixedColor" d="m421.71 253.07 68.501 4.5191 66.122-5.4705-15.46 27.591-33.537 26.163-18.552 6.8976-34.488-18.077-22.358-22.596z" fill="#b3b3b3"/><path d="m419.59 285.36 13.791 15.137 57.183 114.03-166.17 341.75-2.8246-76.98 11.892-248.31-0.95139-11.892 20.931-52.327 35.202-49.948z" fill="#ccc"/><path d="m432.04 301.17 219.23 456.47 4.7908-39.376-2.0182-73.665-4.7092-86.783-4.7092-133.54-1.0091-12.109-15.473-35.319-31.955-50.792-26.573-29.601-12.446-10.427-6.7274 7.0638-18.837 18.164-32.964 16.818-9.4183 3.0273-21.864-7.4001-27.919-18.164z" fill="#808080"/><path d="m486.84 411.8-161.98 342.03 5.2327 5.4705 115.4 12.791 87.793-0.33614 79.383-7.4001 39.431-6.0707z" fill="#1a1a1a"/><path id="D1-Fsleeve-R" d="m395.31 244.03 12.368 21.406 12.368 19.742-23.071 23.071-38.769 50.662-26.877 61.603-18.552 14.747-42.337 41.862-10.703-0.23787-26.164-22.358-42.813-53.754 9.0383-15.936 95.378-96.567 43.764-27.591z" fill="#ccc"/><path id="D1-Fsleeve-L" d="m581.78 244.51 30.92 8.0869 45.191 18.552 49.948 39.959 77.063 83.723 2.1706 7.5031-63.893 73.009-14.152 2.9731-64.814-61.484-21.763-52.922-45.191-62.554-19.266-15.46z" fill="#808080"/></g><path id="D1-VSER" d="m378.37 359.14 9.7285 25.98v0.039l12.518-17.232h-5.6172l-5.0898 7.0508-5.9199-15.838zm32.578 0-8.8984 12.256 1.8477 4.9766h7.957l1.4727 3.8848h-17.725l-3.5059 4.8652h28.582l-2e-3 -2e-3 -1.8086-4.8633h-4e-3l-3.2773-8.7871h-7.918l5.2031-7.2012zm3.9219 0 9.7285 26.02 6.2598-8.7871h-4.7129l-0.94336-2.5645-0.62305-1.6582h9.2559l3.0547-4.2227h-13.896l-1.5996-4.2617h12.783l0.0801-0.0409-1.4024 1.9648h5.6192l4.5996-6.4492zm-13.498 0.039-5.2031 7.1641h5.6192l5.2031-7.1641zm45.512 0-3.6211 5.0156-0.94336 1.3945h1.4668l2.1934 5.8438 1.8476 4.9395h-2e-3l-1.8476-4.9395h-7.9551l-3.6582 4.9395h10.029l5.9199 8.748h6.334l-5.9199-8.748h0.0409l1.6953-2.3379-0.98047-2.6016zm-13.764 18.74v7.2012h5.3535v-7.2012z" fill="#1a1a1a" stroke-width="4.592"/><path id="D1-collar" d="m423.12 253.48s42.206 3.6695 65.728 3.7268c0.0581 1.4e-4 0.11204-4e-3 0.1699-4e-3 0.0579 5e-5 0.10989 4e-3 0.16798 4e-3 23.493-0.0572 67.372-4.3665 67.479-4.377-21.135 45.287-63.494 58.719-67.719 59.949-4.7886-1.3951-58.559-18.44-74.924-79.826l-18.438 7.1641s21.003 71.945 92.947 91.1h0.82812c71.944-19.155 92.947-91.1 92.947-91.1l-18.439-7.1641c-1.5305 5.7544-4.2894 14.181-6.8533 19.06 2.6917-5.9934 5.9258-17.828 4.3712-19.666 0 0-47.26 7.3845-72.2 7.3382-0.0582-1.1e-4 -0.11007 4e-3 -0.16797 4e-3 -0.0579-8e-5 -0.11177-4e-3 -0.16991-4e-3 -24.939 0.0464-72.24-7.2817-72.24-7.2817s-1.921 3.4011 1.1033 11.391c1.6138 4.2638 5.409 9.6851 5.409 9.6851z" fill="#4d4d4d" stroke="#1a1a1a" stroke-width="4.592"/></g><path id="D1-frame" d="m397.67 239.85-4.4122 1.293s0.2147 0.63542 0.2539 0.76368c-19.031 4.5162-54.726 14.283-79.51 30.16-17.483 11.21-41.073 33.336-61.846 54.223-20.773 20.886-38.63 40.513-44.025 46.396h-2e-3c-5.3728 5.8595-10.981 11.584-14.783 16.992-1.9011 2.7041-3.3823 5.3333-4.0547 8.0801-0.67186 2.7446-0.36094 5.7954 1.4043 8.2148 2.3e-4 3.1e-4 2e-3 4e-3 2e-3 4e-3l2e-3 2e-3c2.784 3.8284 24.779 33.652 46.488 55.057v2e-3c6.8004 6.6862 13.028 12.33 18.865 16.182 5.3514 3.5244 10.181 2.8156 13.451 2.5312 1.1396-0.0991 1.5632-0.43961 2.123-0.76563 0.5599-0.32602 1.1259-0.72015 1.7559-1.1914 1.26-0.94247 2.7596-2.1979 4.4668-3.7031 3.4145-3.0104 7.6306-7.0027 11.906-11.172 8.5505-8.3376 17.229-17.268 20.07-20.449v-2e-3c5.5553-6.2096 10.561-11.36 14.49-14.717 1.9646-1.6785 3.6719-2.9051 4.9081-3.5684 0.425-0.228 0.2631-0.13831 0.5332-0.22266 0.1087 0.65475 0.2813 1.0439 0.2813 3.916 0 3.8244-0.7983 24.143-1.6797 46.135s-1.8422 45.894-2.1641 57.822c-0.3116 11.554-3.8425 66.969-5.9277 119.86-1.0426 26.447-1.7266 52.313-1.4648 71.967 0.1308 9.827 0.4937 18.088 1.1875 24.188 0.3468 3.0497 0.7666 5.5496 1.3437 7.5469 0.5768 1.9961 0.9694 3.8061 3.2754 4.8926v2e-3c1.9184 0.90559 4.5997 1.5643 8.4258 2.3555 3.8283 0.79162 8.682 1.6216 14.35 2.4707 11.335 1.6982 25.916 3.4675 41.801 5.0762 31.77 3.2173 68.718 5.791 95.221 5.791h9.2012c26.503 0 63.459-2.5828 95.234-5.8047 15.888-1.6109 30.47-3.3817 41.803-5.0781 5.6665-0.84819 10.518-1.6758 14.344-2.4648 3.822-0.78831 6.4985-1.446 8.4121-2.3457 2.3097-1.0825 2.7097-2.8946 3.2891-4.8926s1.0014-4.497 1.3496-7.5469c0.6964-6.0999 1.0596-14.362 1.1914-24.189 0.2636-19.654-0.4201-45.522-1.4648-71.969-2.0896-52.894-5.6307-108.31-5.9434-119.86-0.3228-11.928-1.2844-35.839-2.166-57.836-0.8817-21.997-1.6797-42.317-1.6797-46.121 0-2.8655 0.1734-3.2642 0.2832-3.918 0.2729 0.0846 0.1182-5e-3 0.5508 0.22656 1.2366 0.66274 2.9423 1.8863 4.9043 3.5644 3.924 3.3564 8.9195 8.5072 14.475 14.719v8e-3c2.8459 3.1623 11.534 12.103 20.08 20.441 4.273 4.169 8.4868 8.1614 11.898 11.172 1.7058 1.5052 3.2055 2.7624 4.4648 3.7051 0.6297 0.47133 1.1941 0.86524 1.7539 1.1914 0.5599 0.32618 0.9839 0.66662 2.1231 0.76563h0.016l0.016 2e-3c3.2464 0.24681 8.0537 0.95786 13.406-2.5234l0.01-6e-3 0.01-4e-3c5.8362-3.8514 12.066-9.4953 18.867-16.182v-2e-3c21.712-21.409 43.726-51.314 46.478-55.049v-8e-3c1.77-2.4201 2.082-5.4717 1.4101-8.2188-0.6718-2.7471-2.1537-5.3778-4.0546-8.082-3.802-5.4084-9.4095-11.133-14.783-16.992v-4e-3c-5.4078-5.8767-23.28-25.507-44.053-46.393-20.772-20.886-44.353-43.011-61.814-54.221-24.877-15.971-60.912-25.757-79.865-30.25 0.031-0.10078 0.2246-0.67579 0.2246-0.67579l-4.4023-1.293s-20.646 70.557-91.15 89.455h-0.027c-70.504-18.898-91.141-89.455-91.141-89.455zm184.59 7.3242c18.558 4.39 54.856 14.336 78.717 29.654 16.546 10.622 40.192 32.67 60.859 53.449 20.667 20.78 38.448 40.309 43.9 46.234 5.4483 5.9408 10.962 11.639 14.322 16.42 1.6808 2.3909 2.7906 4.5486 3.1875 6.1719 0.397 1.6233 0.2571 2.5241-0.4824 3.5352-2.7557 3.7402-24.696 33.471-45.887 54.365-6.6933 6.5803-12.754 12.018-18 15.482-3.9025 2.5376-6.1892 1.9094-9.8438 1.627 0.5291 0.0568 0.4552 0.12127 0.2168-0.0176-0.2576-0.15012-0.6905-0.43908-1.2128-0.83008-1.0448-0.78201-2.4701-1.9697-4.1114-3.418-3.2825-2.8966-7.4552-6.8473-11.69-10.979-8.466-8.26-17.268-17.336-19.82-20.172l-0.01-6e-3c-5.6378-6.3037-10.725-11.577-15.01-15.242-2.1432-1.8332-4.0733-3.2685-5.9082-4.252-0.9155-0.49068-1.8646-0.78557-2.8378-0.95898-2.7048-9.469-24.732-80.911-87.508-133.38 11.567-15.305 18.09-29.838 21.115-37.684zm-186.84 0.0859c3.0563 7.9043 9.6264 22.489 21.248 37.809-62.594 52.461-84.566 123.74-87.262 133.17-0.9795 0.17046-1.9351 0.4613-2.8555 0.95507-1.8321 0.9829-3.7629 2.4191-5.9082 4.252-4.2907 3.6657-9.3903 8.9404-15.033 15.248v2e-3c-2.5142 2.8151-11.328 11.906-19.801 20.168-4.2365 4.131-8.4138 8.0838-11.699 10.98-1.6427 1.4483-3.0696 2.6358-4.1153 3.418-0.5228 0.39108-0.9548 0.67981-1.2128 0.83008-0.2581 0.15027-0.4737 0.0809 0.2324 0.0195-3.6676 0.31893-5.9248 0.96559-9.8477-1.6172v-2e-3c-5.2484-3.4635-11.314-8.9065-18.012-15.492-21.196-20.9-43.236-50.713-45.887-54.357l-2e-3 -4e-3 -2e-3 -2e-3c-0.73872-1.0107-0.87791-1.9135-0.48047-3.5371 0.39744-1.6236 1.5065-3.7809 3.1875-6.1719 3.362-4.782 8.8775-10.481 14.326-16.424 5.4271-5.9185 23.201-25.451 43.867-46.23s44.323-42.827 60.889-53.449c23.785-15.238 59.739-25.155 78.371-29.568zm162.22 42.045c61.878 51.794 83.354 122.67 85.629 130.69-0.012 0.0249-0.048 0.0539-0.059 0.0781-0.7337 1.6461-0.8867 3.4888-0.8867 7.8008 0 4.5291 0.8039 24.348 1.6856 46.346 0.8816 21.997 1.8439 45.936 2.164 57.764 0.3302 12.201 3.8577 67.136 5.9434 119.93 1.0429 26.399 1.7238 52.212 1.4629 71.668-0.1305 9.728-0.5005 17.881-1.1563 23.625-0.3279 2.8721-0.7383 5.1517-1.1621 6.6133-0.4238 1.4615-1.2007 1.7877-0.2578 1.3457v2e-3c-0.8103 0.38141-3.4857 1.17-7.1504 1.9258-3.6647 0.75584-8.4389 1.5718-14.039 2.4102-11.2 1.6765-25.716 3.4409-41.535 5.0449-31.638 3.208-68.529 5.7754-94.664 5.7754h-9.2011c-26.136 0-63.018-2.5583-94.65-5.7617-15.816-1.6017-30.332-3.3648-41.533-5.043-5.6008-0.8391-10.374-1.6578-14.041-2.416-3.6667-0.75818-6.345-1.5485-7.1601-1.9336v-2e-3c0.9477 0.4457 0.1706 0.1165-0.2519-1.3457-0.4226-1.4622-0.8315-3.7429-1.1583-6.6152-0.6534-5.7447-1.0227-13.895-1.1523-23.623-0.2591-19.456 0.4203-45.271 1.461-71.67 2.0813-52.798 5.6007-107.73 5.9296-119.93 0.3192-11.828 1.2827-35.755 2.1641-57.748 0.8814-21.993 1.6836-41.815 1.6836-46.361 0-4.3298-0.147-6.165-0.8867-7.8184-0.01-0.012-0.024-0.025-0.029-0.0371 2.24-7.9015 23.649-78.687 85.396-130.51 14.724 17.974 36.468 36.008 67.644 44.309 0 0 0.1887 0.0666 0.2871 0.0801 0.4709 0.0645 1.4258 0 1.4258 0l0.2969-0.0801c31.294-8.3321 53.086-26.471 67.81-44.512z" color="#000000" fill="#1a1a1a" stroke-width="4.592" style="-inkscape-stroke:none"/></g></svg>
