<svg width="601" height="547" viewBox="0 0 601 547" fill="none" xmlns="http://www.w3.org/2000/svg">
<g clip-path="url(#clip0_1281_15)">
<path d="M392.8 14.1401L451.136 32.1721L496.745 60.1021L593.265 160.162L599.629 170.769L571.345 207.185L538.818 240.419L522.201 247.136L500.28 231.226L456.793 188.093L426.034 120.564L380.426 63.9951L368.758 55.5101L386.083 27.5791L392.8 14.1401Z" fill="#CCCCCC"/>
<path d="M459.522 190.096L477.521 205.185C477.521 205.185 508.763 173.822 523.099 157.062C534.201 144.081 554.241 116.446 554.241 116.446L537.801 101.773C537.801 101.773 512.445 134.135 499.254 149.896C487.257 164.233 459.522 190.096 459.522 190.096Z" fill="#808080"/>
<path d="M483.33 214.65L501.331 229.738C501.331 229.738 532.573 198.376 546.909 181.614C558.011 168.633 578.052 140.997 578.052 140.997L561.612 126.324C561.612 126.324 536.256 158.685 523.066 174.447C511.067 188.784 483.33 214.65 483.33 214.65Z" fill="#1A1A1A"/>
<path d="M207.33 14L148.994 32.032L103.385 59.962L6.86499 160.022L0.500977 170.628L28.786 207.044L61.312 240.278L77.929 246.996L99.85 231.086L143.337 187.953L174.096 120.424L219.704 63.855L231.372 55.37L214.048 27.439L207.33 14Z" fill="#CCCCCC"/>
<path d="M137.66 192.96L119.659 208.048C119.659 208.048 88.417 176.686 74.081 159.924C62.979 146.943 42.938 119.307 42.938 119.307L59.378 104.634C59.378 104.634 84.734 136.995 97.924 152.757C109.923 167.094 137.66 192.96 137.66 192.96Z" fill="#808080"/>
<path d="M113.87 217.5L95.869 232.589C95.869 232.589 64.627 201.226 50.291 184.465C39.189 171.484 19.1479 143.847 19.1479 143.847L35.588 129.175C35.588 129.175 60.9439 161.536 74.1349 177.297C86.1339 191.635 113.87 217.5 113.87 217.5Z" fill="#1A1A1A"/>
<path d="M231 56.2498L181.02 108.188L149.5 171.75L143.75 189.5L141.422 284.964L131.876 435.574L133.997 519.366L137.533 529.266L245.723 541.994L308.302 544.469L413.302 537.397L464.567 527.852L469.164 491.789L464.921 381.129L456.789 190.209L447.95 163.339L416.484 103.942L382.189 66.1118L368.754 54.7979L352.314 73.3598L317.666 95.6338L299.104 101.997L263.572 86.2638L239.354 64.5208L231 56.2498Z" fill="#CCCCCC"/>
<path d="M224.17 536.89V292.71H284.354V541.21L250.237 542.293L224.17 536.89Z" fill="#1A1A1A"/>
<path d="M375.53 536.89V292.71H315.346V541.21L349.463 542.293L375.53 536.89Z" fill="#808080"/>
<path d="M368.82 56.1299L375.48 63.7419V177.312H315.163V98.6279L353.598 72.3009L368.82 56.1299Z" fill="#1A1A1A"/>
<path d="M230.699 56.1343L224.041 63.7454V177.317H284.357V98.6321L245.923 72.3052L230.699 56.1343Z" fill="#808080"/>
<path d="M232.52 24.7899L301.02 29.3089L367.14 23.8379L351.68 51.4289L318.15 77.5919L299.59 84.4899L265.11 66.4129L242.75 43.8179L232.52 24.7899Z" fill="#B3B3B3"/>
<path d="M189.42 129.26L199.148 155.24V155.279L211.666 138.047H206.049L200.959 145.098L195.039 129.26H189.42ZM221.998 129.26L213.099 141.516L214.947 146.492H222.904L224.377 150.377H206.652L203.146 155.242H231.728V155.24L229.92 150.377L226.642 141.59H218.724L223.927 134.389L221.998 129.26ZM225.92 129.26L235.648 155.279L241.908 146.492H237.986H237.195L236.252 143.928L235.629 142.27H244.885L247.939 138.047H234.043L232.443 133.785H245.226L245.306 133.744L243.904 135.709H249.523L254.123 129.26H225.92ZM212.422 129.299L207.218 136.463H212.838L218.041 129.299H212.422ZM257.933 129.299L254.312 134.314L253.369 135.709H254.836L257.029 141.553H249.074L245.416 146.492H255.445L261.365 155.24H267.699L261.779 146.492H261.82L263.515 144.154L262.535 141.553L257.933 129.299ZM244.17 148.039V155.24H249.523V148.039H244.17Z" fill="#1A1A1A"/>
<path d="M234.16 23.5998C234.16 23.5998 276.365 27.2698 299.887 27.3268C299.947 27.3268 299.997 27.3228 300.057 27.3228C300.117 27.3228 300.167 27.3268 300.227 27.3268C323.717 27.2698 367.597 22.9598 367.707 22.9498C346.567 68.2368 304.207 81.6678 299.987 82.8988C295.197 81.5038 241.426 64.4588 225.061 3.0728L206.624 10.2368C206.624 10.2368 227.627 82.1818 299.567 101.337H300.397C372.347 82.1818 393.347 10.2368 393.347 10.2368L374.907 3.0728C373.377 8.8268 370.617 17.2538 368.057 22.1328C370.747 16.1398 373.977 4.3048 372.427 2.4668C372.427 2.4668 325.167 9.85179 300.227 9.80479C300.167 9.80479 300.117 9.80881 300.057 9.80881C299.997 9.80881 299.947 9.80479 299.887 9.80479C274.948 9.85179 227.647 2.5238 227.647 2.5238C227.647 2.5238 225.726 5.9248 228.751 13.9148C230.365 18.1788 234.16 23.5998 234.16 23.5998Z" fill="#4D4D4D" stroke="#1A1A1A" stroke-width="4.592"/>
<path d="M208.71 9.96977L204.298 11.2628C204.298 11.2628 204.513 11.8988 204.552 12.0268C185.521 16.5428 149.826 26.3098 125.042 42.1868C107.559 53.3968 83.9691 75.5228 63.1971 96.4098C42.4241 117.296 24.5661 136.923 19.1711 142.806C13.7981 148.666 8.19007 154.39 4.38807 159.798C2.48707 162.502 1.00606 165.132 0.333063 167.878C-0.338937 170.623 -0.0279226 173.674 1.73808 176.093V176.097V176.099C4.52208 179.928 26.5161 209.751 48.2261 231.156V231.158C55.0261 237.844 61.2541 243.488 67.0911 247.34C72.4421 250.864 77.2721 250.155 80.5421 249.871C81.6821 249.772 82.1051 249.431 82.6651 249.105C83.2251 248.779 83.7911 248.385 84.4211 247.914C85.6811 246.971 87.1811 245.716 88.8881 244.211C92.3021 241.2 96.5191 237.208 100.794 233.039C109.345 224.701 118.023 215.771 120.865 212.59V212.588C126.42 206.378 131.426 201.227 135.355 197.871C137.319 196.192 139.027 194.966 140.263 194.302C140.688 194.074 140.526 194.164 140.796 194.08C140.905 194.734 141.077 195.124 141.077 197.996C141.077 201.82 140.279 222.138 139.398 244.131C138.516 266.123 137.556 290.025 137.234 301.953C136.922 313.507 133.391 368.922 131.306 421.813C130.263 448.26 129.579 474.126 129.841 493.78C129.972 503.607 130.335 511.868 131.029 517.967C131.375 521.017 131.795 523.517 132.372 525.514C132.949 527.51 133.342 529.32 135.648 530.407V530.409C137.566 531.314 140.247 531.973 144.074 532.764C147.902 533.556 152.756 534.386 158.423 535.235C169.758 536.933 184.339 538.702 200.224 540.311C231.994 543.529 268.942 546.102 295.442 546.102H304.642C331.152 546.102 368.102 543.519 399.882 540.297C415.772 538.687 430.352 536.916 441.682 535.219C447.352 534.371 452.202 533.544 456.022 532.755C459.852 531.966 462.522 531.309 464.442 530.409C466.752 529.326 467.152 527.514 467.732 525.516C468.312 523.518 468.732 521.019 469.082 517.969C469.772 511.869 470.142 503.607 470.272 493.78C470.532 474.126 469.852 448.258 468.802 421.811C466.712 368.917 463.172 313.501 462.862 301.951C462.542 290.023 461.572 266.112 460.692 244.115C459.812 222.118 459.012 201.798 459.012 197.994C459.012 195.128 459.192 194.73 459.302 194.076C459.572 194.16 459.412 194.071 459.852 194.302C461.082 194.965 462.792 196.189 464.752 197.867C468.682 201.223 473.672 206.374 479.232 212.586V212.59V212.594C482.072 215.756 490.762 224.697 499.312 233.035C503.582 237.204 507.792 241.196 511.202 244.207C512.912 245.712 514.412 246.969 515.672 247.912C516.302 248.383 516.862 248.777 517.422 249.103C517.982 249.43 518.412 249.77 519.552 249.869H519.562L519.582 249.871C522.822 250.118 527.632 250.829 532.982 247.348L532.992 247.342L533.002 247.338C538.842 243.486 545.072 237.842 551.872 231.156V231.154C573.582 209.745 595.602 179.84 598.352 176.105V176.101V176.097C600.122 173.677 600.432 170.625 599.762 167.878C599.092 165.131 597.612 162.5 595.712 159.796C591.902 154.388 586.302 148.664 580.922 142.804V142.802V142.8C575.512 136.923 557.642 117.293 536.872 96.4078C516.102 75.5218 492.522 53.3968 475.062 42.1868C450.182 26.2158 414.142 16.4288 395.192 11.9368C395.222 11.8358 395.412 11.2608 395.412 11.2608L391.012 9.96777C391.012 9.96777 370.372 80.5248 299.862 99.4228H299.832C229.333 80.5248 208.696 9.96777 208.696 9.96777L208.71 9.96977ZM393.3 17.2938C411.86 21.6838 448.15 31.6298 472.01 46.9488C488.56 57.5708 512.21 79.6178 532.87 100.398C553.54 121.178 571.32 140.707 576.77 146.632C582.22 152.573 587.74 158.271 591.1 163.052C592.78 165.443 593.89 167.601 594.28 169.224C594.68 170.847 594.54 171.748 593.8 172.759C591.05 176.5 569.11 206.23 547.92 227.125C541.22 233.705 535.16 239.143 529.92 242.607C526.01 245.145 523.73 244.516 520.07 244.234C520.6 244.291 520.53 244.355 520.29 244.216C520.03 244.066 519.6 243.777 519.08 243.386C518.03 242.604 516.61 241.417 514.96 239.968C511.68 237.072 507.51 233.121 503.27 228.99C494.81 220.73 486.01 211.654 483.45 208.818L483.44 208.812C477.81 202.508 472.72 197.235 468.43 193.57C466.29 191.736 464.36 190.301 462.53 189.318C461.61 188.827 460.66 188.532 459.69 188.359C456.98 178.89 434.96 107.448 372.18 54.9788C383.75 39.6738 390.27 25.1408 393.3 17.2948V17.2938ZM206.46 17.3798C209.516 25.2848 216.086 39.8698 227.708 55.1888C165.114 107.65 143.142 178.929 140.446 188.359C139.467 188.529 138.511 188.82 137.591 189.314C135.759 190.297 133.828 191.733 131.683 193.566C127.392 197.232 122.292 202.506 116.65 208.814V208.816C114.135 211.631 105.322 220.722 96.8491 228.984C92.6121 233.115 88.4351 237.068 85.1501 239.964C83.5071 241.413 82.0801 242.6 81.0341 243.382C80.5111 243.773 80.0791 244.062 79.8211 244.212C79.5631 244.363 79.3481 244.293 80.0541 244.232C76.3861 244.551 74.1291 245.197 70.2061 242.615V242.613C64.9581 239.149 58.8931 233.706 52.1941 227.12C30.9981 206.221 8.95807 176.407 6.30807 172.763V172.759V172.757C5.56907 171.746 5.43007 170.844 5.82707 169.22C6.22507 167.596 7.33407 165.439 9.01507 163.048C12.3771 158.266 17.8921 152.567 23.3411 146.624C28.7681 140.706 46.5411 121.173 67.2081 100.394C87.8751 79.6138 111.531 57.5668 128.097 46.9448C151.882 31.7068 187.836 21.7888 206.468 17.3758L206.46 17.3798ZM368.68 59.4248C430.56 111.22 452.04 182.095 454.31 190.115C454.3 190.14 454.26 190.169 454.25 190.193C453.52 191.839 453.37 193.682 453.37 197.994C453.37 202.523 454.17 222.342 455.05 244.339C455.93 266.337 456.9 290.275 457.22 302.103C457.55 314.304 461.07 369.239 463.16 422.033C464.2 448.431 464.88 474.244 464.62 493.701C464.49 503.429 464.12 511.581 463.47 517.325C463.14 520.198 462.73 522.477 462.3 523.939C461.88 525.4 461.1 525.726 462.05 525.284V525.286C461.24 525.668 458.56 526.456 454.9 527.212C451.23 527.968 446.46 528.784 440.86 529.622C429.66 531.299 415.14 533.063 399.32 534.667C367.68 537.875 330.79 540.443 304.66 540.443H295.46C269.32 540.443 232.438 537.884 200.805 534.681C184.989 533.079 170.474 531.316 159.272 529.638C153.671 528.799 148.898 527.98 145.231 527.222C141.564 526.464 138.886 525.674 138.071 525.288V525.286C139.019 525.732 138.242 525.403 137.819 523.941C137.397 522.479 136.988 520.198 136.661 517.326C136.007 511.581 135.638 503.431 135.509 493.702C135.249 474.246 135.929 448.431 136.97 422.033C139.051 369.235 142.57 314.303 142.899 302.103C143.218 290.275 144.182 266.347 145.063 244.355C145.945 222.362 146.747 202.54 146.747 197.994C146.747 193.664 146.6 191.829 145.86 190.175C145.85 190.163 145.836 190.15 145.831 190.138C148.071 182.237 169.48 111.451 231.228 59.6278C245.952 77.6018 267.696 95.6358 298.87 103.937C298.87 103.937 299.06 104.004 299.16 104.017C299.63 104.082 300.59 104.017 300.59 104.017L300.88 103.937C332.18 95.6048 353.97 77.4658 368.69 59.4248H368.68Z" fill="#1A1A1A"/>
</g>
<defs>
<clipPath id="clip0_1281_15">
<rect width="600.08" height="546.11" fill="white"/>
</clipPath>
</defs>
</svg>
