<svg width="600.08" height="544.98" version="1.1" viewBox="0 0 600.08 544.98" xml:space="preserve" xmlns="http://www.w3.org/2000/svg"><g transform="translate(-234.62 -177.45)"><path d="m441.94 190.33-58.336 18.033-45.609 27.93-96.52 100.06-6.3633 10.605 28.285 36.416 32.525 33.234 16.617 6.7168 21.92-15.908 43.488-43.135 3.1621-6.9414-2.75 8.4883-2.3281 95.465-9.5449 150.61 2.1211 83.793 3.5352 9.9004 108.19 12.727 62.58 2.4766 105-7.0723 51.266-9.5449 4.5957-36.064-4.2422-110.66-8.1328-190.92-2.5156-7.6504 2.5195 5.5332 43.488 43.133 21.92 15.91 16.617-6.7168 32.527-33.234 28.283-36.416-6.3633-10.607-96.52-100.06-45.609-27.93-58.336-18.033-6.7168 13.439-17.037 27.465-0.29297-0.24609-16.439 18.562-34.648 22.273-18.561 6.3633-35.533-15.732-24.217-21.744-8.3555-8.2715-31.846 33.096 20.551-25.49 11.668-8.4844-17.324-27.932zm167.6 46 5.4961 3.9961 1.5879 1.9688zm-198.61 57.662-11.885 23.965 9.6562-21.201zm247.54 0.20703 2.1738 2.6953 4.5684 10.031z" fill="#ccc"/><path d="m465.31 232.46-6.6582 7.6113v113.57h60.316v-78.686l-38.434-26.326zm307.1 45.641s-25.354 32.36-38.545 48.121c-11.996 14.336-39.724 40.195-39.73 40.201l17.996 15.088s31.242-31.362 45.578-48.121c11.102-12.981 31.143-40.617 31.143-40.617zm-478.42 2.8594-16.439 14.674s20.041 27.636 31.143 40.617c14.336 16.762 45.578 48.123 45.578 48.123l18-15.088s-27.737-25.866-39.736-40.203c-13.19-15.762-38.545-48.123-38.545-48.123zm255.97 188.08v248.5l34.117 1.084 26.068-5.4043v-244.18z" fill="#808080" stroke-width="3.7304"/><path d="m603.43 232.46-15.223 16.172-38.434 26.326v78.684h60.316v-113.57zm192.79 70.193s-25.357 32.361-38.547 48.123c-11.999 14.337-39.736 40.203-39.736 40.203l18.002 15.088s31.242-31.361 45.578-48.123c11.102-12.981 31.143-40.617 31.143-40.617zm-526.03 2.8516-16.439 14.672s20.041 27.638 31.143 40.619c14.336 16.761 45.578 48.123 45.578 48.123l18.002-15.09s-27.737-25.863-39.736-40.201c-13.191-15.761-38.547-48.123-38.547-48.123zm188.58 163.54v244.18l26.068 5.4043 34.117-1.084v-248.5z" fill="#1a1a1a"/><path id="D2-clip" d="m442.56 190.64-62.534 19.482-53.394 37.28-89.231 93.56v8.899l53.875 63.736 20.684 11.304 20.925-14.671 37.761-40.647 8.418-2.6457-2.1646 55.559-7.5923 165.97-3.0612 97.28 5.1021 18.708 85.715 12.585 109.87 3.0613 120.41-12.585 14.286-6.4626 0.34014-65.987-10.544-270.07 13.946 9.5239 48.64 49.66 9.864-1.3606 42.858-39.456 26.191-36.395-8.8436-16.327-81.633-82.994-38.776-29.932-62.926-24.15-13.606-3.7415-15.306 31.633-32.653 37.755-46.259 21.089-58.504-34.354-28.912-43.878z" fill-opacity="0"/><path id="D2-fixedColor" d="m467.13 201.12 68.5 4.519 66.12-5.471-15.46 27.591-33.53 26.163-18.56 6.898-34.48-18.077-22.36-22.595z" fill="#b3b3b3"/><path id="D2-VSER" d="m424.03 305.59 9.728 25.98v0.039l12.518-17.232h-5.617l-5.09 7.051-5.92-15.838zm32.578 0-8.899 12.256 1.848 4.976h7.957l1.473 3.885h-17.725l-3.506 4.865h28.582v-2e-3l-1.808-4.863-3.278-8.787h-7.918l5.203-7.201zm3.922 0 9.728 26.019 6.26-8.787h-4.713l-0.943-2.564-0.623-1.658h9.256l3.054-4.223h-13.896l-1.6-4.262h12.783l0.08-0.041-1.402 1.965h5.619l4.6-6.449zm-13.498 0.039-5.204 7.164h5.62l5.203-7.164zm45.511 0-3.621 5.015-0.943 1.395h1.467l2.193 5.844 1.848 4.939-1.848-4.939h-7.955l-3.658 4.939h10.029l5.92 8.748h6.334l-5.92-8.748h0.041l1.695-2.338-0.98-2.601zm-13.763 18.74v7.201h5.353v-7.201z" fill="#1a1a1a"/><path id="D2-frame" d="m443.32 186.3-2.4718 1.6735s-1.7252 0.25548-1.6862 0.38348c-19.031 4.516-54.726 14.283-79.51 30.16-17.483 11.21-41.073 33.336-61.845 54.223-20.773 20.886-38.631 40.513-44.026 46.396-5.373 5.86-10.981 11.584-14.783 16.992-1.901 2.704-3.382 5.334-4.055 8.08-0.672 2.745-0.361 5.796 1.405 8.215v6e-3c2.784 3.829 24.778 33.652 46.488 55.057v2e-3c6.8 6.686 13.028 12.33 18.865 16.182 5.351 3.524 10.181 2.815 13.451 2.531 1.14-0.099 1.563-0.44 2.123-0.766s1.126-0.72 1.756-1.191c1.26-0.943 2.76-2.198 4.467-3.703 3.414-3.011 7.631-7.003 11.906-11.172 8.551-8.338 17.229-17.268 20.071-20.449v-2e-3c5.555-6.21 10.561-11.361 14.49-14.717 1.964-1.679 3.672-2.905 4.908-3.569 0.425-0.228 0.263-0.138 0.533-0.222 0.109 0.654 0.281 1.044 0.281 3.916 0 3.824-0.798 24.142-1.679 46.135-0.882 21.992-1.842 45.894-2.164 57.822-0.312 11.554-3.843 66.969-5.928 119.86-1.043 26.447-1.727 52.313-1.465 71.967 0.131 9.827 0.494 18.088 1.188 24.187 0.346 3.05 0.766 5.55 1.343 7.547 0.577 1.996 0.97 3.806 3.276 4.893v2e-3c1.918 0.905 4.599 1.564 8.426 2.355 3.828 0.792 8.682 1.622 14.349 2.471 11.335 1.698 25.916 3.467 41.801 5.076 31.77 3.218 68.718 5.791 95.218 5.791h9.2c26.51 0 63.46-2.583 95.24-5.805 15.89-1.61 30.47-3.381 41.8-5.078 5.67-0.848 10.52-1.675 14.34-2.464 3.83-0.789 6.5-1.446 8.42-2.346 2.31-1.083 2.71-2.895 3.29-4.893s1-4.497 1.35-7.547c0.69-6.1 1.06-14.362 1.19-24.189 0.26-19.654-0.42-45.522-1.47-71.969-2.09-52.894-5.63-108.31-5.94-119.86-0.32-11.928-1.29-35.839-2.17-57.836s-1.68-42.317-1.68-46.121c0-2.866 0.18-3.264 0.29-3.918 0.27 0.084 0.11-5e-3 0.55 0.226 1.23 0.663 2.94 1.887 4.9 3.565 3.93 3.356 8.92 8.507 14.48 14.719v8e-3c2.84 3.162 11.53 12.103 20.08 20.441 4.27 4.169 8.48 8.161 11.89 11.172 1.71 1.505 3.21 2.762 4.47 3.705 0.63 0.471 1.19 0.865 1.75 1.191 0.56 0.327 0.99 0.667 2.13 0.766h0.01l0.02 2e-3c3.24 0.247 8.05 0.958 13.4-2.523l0.01-6e-3 0.01-4e-3c5.84-3.852 12.07-9.496 18.87-16.182v-2e-3c21.71-21.409 43.73-51.314 46.48-55.049v-8e-3c1.77-2.42 2.08-5.472 1.41-8.219s-2.15-5.378-4.05-8.082c-3.81-5.408-9.41-11.132-14.79-16.992v-4e-3c-5.41-5.877-23.28-25.507-44.05-46.392-20.77-20.886-44.35-43.011-61.81-54.221-24.88-15.971-60.92-25.758-79.87-30.25 0.03-0.101 0.22-0.676 0.22-0.676l-4.4-1.293s-20.64 70.557-91.15 89.455h-0.03c-70.499-18.898-91.136-89.455-91.136-89.455zm184.59 7.324c18.56 4.39 54.85 14.336 78.71 29.655 16.55 10.622 40.2 32.669 60.86 53.449 20.67 20.78 38.45 40.309 43.9 46.234 5.45 5.941 10.97 11.639 14.33 16.42 1.68 2.391 2.79 4.549 3.18 6.172 0.4 1.623 0.26 2.524-0.48 3.535-2.75 3.741-24.69 33.471-45.88 54.366-6.7 6.58-12.76 12.018-18 15.482-3.91 2.538-6.19 1.909-9.85 1.627 0.53 0.057 0.46 0.121 0.22-0.018-0.26-0.15-0.69-0.439-1.21-0.83-1.05-0.782-2.47-1.969-4.12-3.418-3.28-2.896-7.45-6.847-11.69-10.978-8.46-8.26-17.26-17.336-19.82-20.172l-0.01-6e-3c-5.63-6.304-10.72-11.577-15.01-15.242-2.14-1.834-4.07-3.269-5.9-4.252-0.92-0.491-1.87-0.786-2.84-0.959-2.71-9.469-24.73-80.911-87.51-133.38 11.57-15.305 18.09-29.838 21.12-37.684zm-186.84 0.086c3.056 7.905 9.626 22.49 21.248 37.809-62.594 52.461-84.566 123.74-87.262 133.17-0.979 0.17-1.935 0.461-2.855 0.955-1.832 0.983-3.763 2.419-5.908 4.252-4.291 3.666-9.391 8.94-15.033 15.248v2e-3c-2.515 2.815-11.328 11.906-19.801 20.168-4.237 4.131-8.414 8.084-11.699 10.98-1.643 1.449-3.07 2.636-4.116 3.418-0.523 0.391-0.955 0.68-1.213 0.83-0.258 0.151-0.473 0.081 0.233 0.02-3.668 0.319-5.925 0.965-9.848-1.617v-2e-3c-5.248-3.464-11.313-8.907-18.012-15.493-21.196-20.899-43.236-50.713-45.886-54.357v-6e-3c-0.739-1.011-0.878-1.913-0.481-3.537 0.398-1.624 1.507-3.781 3.188-6.172 3.362-4.782 8.877-10.481 14.326-16.424 5.427-5.918 23.2-25.451 43.867-46.23 20.667-20.78 44.323-42.827 60.889-53.449 23.785-15.238 59.739-25.156 78.371-29.569zm162.22 42.045c61.88 51.795 83.36 122.67 85.63 130.69-0.01 0.025-0.05 0.054-0.06 0.078-0.73 1.646-0.88 3.489-0.88 7.801 0 4.529 0.8 24.348 1.68 46.345 0.88 21.998 1.85 45.936 2.17 57.764 0.33 12.201 3.85 67.136 5.94 119.93 1.04 26.398 1.72 52.211 1.46 71.668-0.13 9.728-0.5 17.88-1.15 23.624-0.33 2.873-0.74 5.152-1.17 6.614-0.42 1.461-1.2 1.787-0.25 1.345v2e-3c-0.81 0.382-3.49 1.17-7.15 1.926-3.67 0.756-8.44 1.572-14.04 2.41-11.2 1.677-25.72 3.441-41.54 5.045-31.64 3.208-68.53 5.776-94.66 5.776h-9.2c-26.14 0-63.022-2.559-94.655-5.762-15.816-1.602-30.331-3.365-41.533-5.043-5.601-0.839-10.374-1.658-14.041-2.416s-6.345-1.548-7.16-1.934v-2e-3c0.948 0.446 0.171 0.117-0.252-1.345-0.422-1.462-0.831-3.743-1.158-6.615-0.654-5.745-1.023-13.895-1.152-23.624-0.26-19.456 0.42-45.271 1.461-71.669 2.081-52.798 5.6-107.73 5.929-119.93 0.319-11.828 1.283-35.756 2.164-57.748 0.882-21.993 1.684-41.815 1.684-46.361 0-4.33-0.147-6.165-0.887-7.819-0.01-0.012-0.024-0.025-0.029-0.037 2.24-7.901 23.649-78.687 85.397-130.51 14.724 17.974 36.468 36.008 67.642 44.309 0 0 0.19 0.067 0.29 0.08 0.47 0.065 1.43 0 1.43 0l0.29-0.08c31.3-8.332 53.09-26.471 67.81-44.512z" color="#000000" fill="#1a1a1a"/><path id="D2-collar" d="m469.62 200.86s42.205 3.67 65.727 3.727c0.06 0 0.11-4e-3 0.17-4e-3s0.11 4e-3 0.17 4e-3c23.49-0.057 67.37-4.367 67.48-4.377-21.14 45.287-63.5 58.718-67.72 59.949-4.79-1.395-58.561-18.44-74.926-79.826l-18.437 7.164s21.003 71.945 92.943 91.1h0.83c71.95-19.155 92.95-91.1 92.95-91.1l-18.44-7.164c-1.53 5.754-4.29 14.181-6.85 19.06 2.69-5.993 5.92-17.828 4.37-19.666 0 0-47.26 7.385-72.2 7.338-0.06 0-0.11 4e-3 -0.17 4e-3s-0.11-4e-3 -0.17-4e-3c-24.939 0.047-72.24-7.281-72.24-7.281s-1.921 3.401 1.104 11.391c1.614 4.264 5.409 9.685 5.409 9.685z" fill="#4d4d4d" stroke="#1a1a1a" stroke-width="4.2499"/></g></svg>
