<?xml version="1.0" encoding="utf-8"?>
<!-- Generator: Adobe Illustrator 24.0.1, SVG Export Plug-In . SVG Version: 6.00 Build 0)  -->
<svg version="1.1" xmlns="http://www.w3.org/2000/svg" xmlns:xlink="http://www.w3.org/1999/xlink" x="0px" y="0px"
	 viewBox="0 0 466.5 259.7" style="enable-background:new 0 0 466.5 259.7;" xml:space="preserve">
<style type="text/css">
	.st0{fill:none;stroke:#FFFFFF;stroke-miterlimit:10;}
	.st1{fill:none;stroke:#F5B25E;stroke-miterlimit:10;}
	.st2{fill:none;stroke:#F5B25E;stroke-miterlimit:10;stroke-dasharray:5.0151,2.5076;}
	.st3{fill:#F5B25E;}
	.st4{fill:none;stroke:#F5B25E;stroke-miterlimit:10;stroke-dasharray:4.9036,2.4518;}
	.st5{fill:none;stroke:#F5B25E;stroke-miterlimit:10;stroke-dasharray:4.9835,2.4918;}
	.st6{fill:none;stroke:#F5B25E;stroke-miterlimit:10;stroke-dasharray:4.9877,2.4938;}
	.st7{fill:#FFFFFF;}
</style>
<g id="圖層_2">
</g>
<g id="圖層_1">
	
		<text transform="matrix(1 0 0 1 825.2444 -413.6118)" style="fill:#727171; font-family:'NotoSansCJKtc-Medium-B5pc-H'; font-size:16px;glyph-orientation-vertical:0;writing-mode:tb;">大人尺寸</text>
	<g>
		<rect x="-72.8" y="-355.7" class="st0" width="615.8" height="145"/>
		<line class="st0" x1="-72.8" y1="-259.1" x2="543" y2="-259.1"/>
		<line class="st0" x1="-72.8" y1="-307.4" x2="543" y2="-307.4"/>
		<line class="st0" x1="491.7" y1="-355.7" x2="491.7" y2="-210.7"/>
		<line class="st0" x1="440.4" y1="-355.7" x2="440.4" y2="-210.7"/>
		<line class="st0" x1="389.1" y1="-355.7" x2="389.1" y2="-210.7"/>
		<line class="st0" x1="337.7" y1="-355.7" x2="337.7" y2="-210.7"/>
		<line class="st0" x1="286.4" y1="-355.7" x2="286.4" y2="-210.7"/>
		<line class="st0" x1="235.1" y1="-355.7" x2="235.1" y2="-210.7"/>
		<line class="st0" x1="183.8" y1="-355.7" x2="183.8" y2="-210.7"/>
		<line class="st0" x1="132.5" y1="-355.7" x2="132.5" y2="-210.7"/>
		<line class="st0" x1="81.2" y1="-355.7" x2="81.2" y2="-210.7"/>
		<line class="st0" x1="29.9" y1="-355.7" x2="29.9" y2="-210.7"/>
		<line class="st0" x1="-21.5" y1="-355.7" x2="-21.5" y2="-210.7"/>
	</g>
	<g>
		<g>
			
				<text transform="matrix(1 0 0 1 -10.833 -324.3927)" class="st7" style="font-family:'NotoSansCJKtc-Regular-B5pc-H'; font-size:18px;">120</text>
			
				<text transform="matrix(1 0 0 1 40.542 -324.3927)" class="st7" style="font-family:'NotoSansCJKtc-Regular-B5pc-H'; font-size:18px;">130</text>
			
				<text transform="matrix(1 0 0 1 91.9165 -324.3927)" class="st7" style="font-family:'NotoSansCJKtc-Regular-B5pc-H'; font-size:18px;">140</text>
			
				<text transform="matrix(1 0 0 1 147.7457 -324.3927)" class="st7" style="font-family:'NotoSansCJKtc-Regular-B5pc-H'; font-size:18px;">XS</text>
			
				<text transform="matrix(1 0 0 1 204.2774 -324.3927)" class="st7" style="font-family:'NotoSansCJKtc-Regular-B5pc-H'; font-size:18px;">S</text>
			
				<text transform="matrix(1 0 0 1 253.718 -324.3927)" class="st7" style="font-family:'NotoSansCJKtc-Regular-B5pc-H'; font-size:18px;">M</text>
			
				<text transform="matrix(1 0 0 1 307.5222 -324.3927)" class="st7" style="font-family:'NotoSansCJKtc-Regular-B5pc-H'; font-size:18px;">L</text>
			
				<text transform="matrix(1 0 0 1 353.7396 -324.3927)" class="st7" style="font-family:'NotoSansCJKtc-Regular-B5pc-H'; font-size:18px;">XL</text>
			
				<text transform="matrix(1 0 0 1 405.277 -324.3927)" class="st7" style="font-family:'NotoSansCJKtc-Regular-B5pc-H'; font-size:18px;">2L</text>
			
				<text transform="matrix(1 0 0 1 456.6515 -324.3927)" class="st7" style="font-family:'NotoSansCJKtc-Regular-B5pc-H'; font-size:18px;">3L</text>
			
				<text transform="matrix(1 0 0 1 508.0261 -324.3927)" class="st7" style="font-family:'NotoSansCJKtc-Regular-B5pc-H'; font-size:18px;">5L</text>
		</g>
		<g>
			
				<text transform="matrix(1 0 0 1 -5.8388 -276.7262)" class="st7" style="font-family:'NotoSansCJKtc-Regular-B5pc-H'; font-size:18px;">25</text>
			
				<text transform="matrix(1 0 0 1 -65.4336 -276.7262)" class="st7" style="font-family:'NotoSansCJKtc-Regular-B5pc-H'; font-size:18px;">腰圍</text>
			
				<text transform="matrix(1 0 0 1 -65.4336 -228.7262)" class="st7" style="font-family:'NotoSansCJKtc-Regular-B5pc-H'; font-size:18px;">褲長</text>
			
				<text transform="matrix(1 0 0 1 45.5362 -276.7262)" class="st7" style="font-family:'NotoSansCJKtc-Regular-B5pc-H'; font-size:18px;">27</text>
			
				<text transform="matrix(1 0 0 1 96.9106 -276.7262)" class="st7" style="font-family:'NotoSansCJKtc-Regular-B5pc-H'; font-size:18px;">28</text>
			
				<text transform="matrix(1 0 0 1 148.2858 -276.7262)" class="st7" style="font-family:'NotoSansCJKtc-Regular-B5pc-H'; font-size:18px;">30</text>
			
				<text transform="matrix(1 0 0 1 199.6602 -276.7262)" class="st7" style="font-family:'NotoSansCJKtc-Regular-B5pc-H'; font-size:18px;">32</text>
			
				<text transform="matrix(1 0 0 1 251.0354 -276.7262)" class="st7" style="font-family:'NotoSansCJKtc-Regular-B5pc-H'; font-size:18px;">33</text>
			
				<text transform="matrix(1 0 0 1 302.4099 -276.7262)" class="st7" style="font-family:'NotoSansCJKtc-Regular-B5pc-H'; font-size:18px;">35</text>
			
				<text transform="matrix(1 0 0 1 353.7845 -276.7262)" class="st7" style="font-family:'NotoSansCJKtc-Regular-B5pc-H'; font-size:18px;">36</text>
			
				<text transform="matrix(1 0 0 1 405.1598 -276.7262)" class="st7" style="font-family:'NotoSansCJKtc-Regular-B5pc-H'; font-size:18px;">38</text>
			
				<text transform="matrix(1 0 0 1 456.5343 -276.7262)" class="st7" style="font-family:'NotoSansCJKtc-Regular-B5pc-H'; font-size:18px;">40</text>
			
				<text transform="matrix(1 0 0 1 507.9089 -276.7262)" class="st7" style="font-family:'NotoSansCJKtc-Regular-B5pc-H'; font-size:18px;">44</text>
		</g>
		<g>
			
				<text transform="matrix(1 0 0 1 -5.8388 -228.7262)" class="st7" style="font-family:'NotoSansCJKtc-Regular-B5pc-H'; font-size:18px;">31</text>
			
				<text transform="matrix(1 0 0 1 45.5362 -228.7262)" class="st7" style="font-family:'NotoSansCJKtc-Regular-B5pc-H'; font-size:18px;">33</text>
			
				<text transform="matrix(1 0 0 1 96.9106 -228.7262)" class="st7" style="font-family:'NotoSansCJKtc-Regular-B5pc-H'; font-size:18px;">34</text>
			
				<text transform="matrix(1 0 0 1 148.2858 -228.7262)" class="st7" style="font-family:'NotoSansCJKtc-Regular-B5pc-H'; font-size:18px;">36</text>
			
				<text transform="matrix(1 0 0 1 199.6602 -228.7262)" class="st7" style="font-family:'NotoSansCJKtc-Regular-B5pc-H'; font-size:18px;">39</text>
			
				<text transform="matrix(1 0 0 1 251.0354 -228.7262)" class="st7" style="font-family:'NotoSansCJKtc-Regular-B5pc-H'; font-size:18px;">40</text>
			
				<text transform="matrix(1 0 0 1 302.4099 -228.7262)" class="st7" style="font-family:'NotoSansCJKtc-Regular-B5pc-H'; font-size:18px;">41</text>
			
				<text transform="matrix(1 0 0 1 353.7845 -228.7262)" class="st7" style="font-family:'NotoSansCJKtc-Regular-B5pc-H'; font-size:18px;">42</text>
			
				<text transform="matrix(1 0 0 1 405.1598 -228.7262)" class="st7" style="font-family:'NotoSansCJKtc-Regular-B5pc-H'; font-size:18px;">43</text>
			
				<text transform="matrix(1 0 0 1 456.5343 -228.7262)" class="st7" style="font-family:'NotoSansCJKtc-Regular-B5pc-H'; font-size:18px;">44</text>
			
				<text transform="matrix(1 0 0 1 507.9089 -228.7262)" class="st7" style="font-family:'NotoSansCJKtc-Regular-B5pc-H'; font-size:18px;">47</text>
		</g>
		<g>
			
				<text transform="matrix(1 0 0 1 -10.833 -497.726)" class="st7" style="font-family:'NotoSansCJKtc-Regular-B5pc-H'; font-size:18px;">120</text>
			
				<text transform="matrix(1 0 0 1 40.542 -497.726)" class="st7" style="font-family:'NotoSansCJKtc-Regular-B5pc-H'; font-size:18px;">130</text>
			
				<text transform="matrix(1 0 0 1 91.9165 -497.726)" class="st7" style="font-family:'NotoSansCJKtc-Regular-B5pc-H'; font-size:18px;">140</text>
			
				<text transform="matrix(1 0 0 1 147.7457 -497.726)" class="st7" style="font-family:'NotoSansCJKtc-Regular-B5pc-H'; font-size:18px;">XS</text>
			
				<text transform="matrix(1 0 0 1 204.2774 -497.726)" class="st7" style="font-family:'NotoSansCJKtc-Regular-B5pc-H'; font-size:18px;">S</text>
			
				<text transform="matrix(1 0 0 1 253.718 -497.726)" class="st7" style="font-family:'NotoSansCJKtc-Regular-B5pc-H'; font-size:18px;">M</text>
			
				<text transform="matrix(1 0 0 1 307.5222 -497.726)" class="st7" style="font-family:'NotoSansCJKtc-Regular-B5pc-H'; font-size:18px;">L</text>
			
				<text transform="matrix(1 0 0 1 353.7396 -497.726)" class="st7" style="font-family:'NotoSansCJKtc-Regular-B5pc-H'; font-size:18px;">XL</text>
			
				<text transform="matrix(1 0 0 1 405.277 -497.726)" class="st7" style="font-family:'NotoSansCJKtc-Regular-B5pc-H'; font-size:18px;">2L</text>
			
				<text transform="matrix(1 0 0 1 456.6515 -497.726)" class="st7" style="font-family:'NotoSansCJKtc-Regular-B5pc-H'; font-size:18px;">3L</text>
			
				<text transform="matrix(1 0 0 1 508.0261 -497.726)" class="st7" style="font-family:'NotoSansCJKtc-Regular-B5pc-H'; font-size:18px;">5L</text>
		</g>
		<g>
			
				<text transform="matrix(1 0 0 1 -5.8388 -450.0595)" class="st7" style="font-family:'NotoSansCJKtc-Regular-B5pc-H'; font-size:18px;">45</text>
			
				<text transform="matrix(1 0 0 1 -65.4336 -450.0595)" class="st7" style="font-family:'NotoSansCJKtc-Regular-B5pc-H'; font-size:18px;">衣長</text>
			
				<text transform="matrix(1 0 0 1 -65.4336 -402.0595)" class="st7" style="font-family:'NotoSansCJKtc-Regular-B5pc-H'; font-size:18px;">衣寬</text>
			
				<text transform="matrix(1 0 0 1 45.5362 -450.0595)" class="st7" style="font-family:'NotoSansCJKtc-Regular-B5pc-H'; font-size:18px;">50</text>
			
				<text transform="matrix(1 0 0 1 96.9106 -450.0595)" class="st7" style="font-family:'NotoSansCJKtc-Regular-B5pc-H'; font-size:18px;">56</text>
			
				<text transform="matrix(1 0 0 1 148.2858 -450.0595)" class="st7" style="font-family:'NotoSansCJKtc-Regular-B5pc-H'; font-size:18px;">61</text>
			
				<text transform="matrix(1 0 0 1 199.6602 -450.0595)" class="st7" style="font-family:'NotoSansCJKtc-Regular-B5pc-H'; font-size:18px;">65</text>
			
				<text transform="matrix(1 0 0 1 251.0354 -450.0595)" class="st7" style="font-family:'NotoSansCJKtc-Regular-B5pc-H'; font-size:18px;">68</text>
			
				<text transform="matrix(1 0 0 1 302.4099 -450.0595)" class="st7" style="font-family:'NotoSansCJKtc-Regular-B5pc-H'; font-size:18px;">71</text>
			
				<text transform="matrix(1 0 0 1 353.7845 -450.0595)" class="st7" style="font-family:'NotoSansCJKtc-Regular-B5pc-H'; font-size:18px;">73</text>
			
				<text transform="matrix(1 0 0 1 405.1598 -450.0595)" class="st7" style="font-family:'NotoSansCJKtc-Regular-B5pc-H'; font-size:18px;">76</text>
			
				<text transform="matrix(1 0 0 1 456.5343 -450.0595)" class="st7" style="font-family:'NotoSansCJKtc-Regular-B5pc-H'; font-size:18px;">78</text>
			
				<text transform="matrix(1 0 0 1 507.9089 -450.0595)" class="st7" style="font-family:'NotoSansCJKtc-Regular-B5pc-H'; font-size:18px;">82</text>
		</g>
		<g>
			
				<text transform="matrix(1 0 0 1 -5.8388 -402.0595)" class="st7" style="font-family:'NotoSansCJKtc-Regular-B5pc-H'; font-size:18px;">37</text>
			
				<text transform="matrix(1 0 0 1 45.5362 -402.0595)" class="st7" style="font-family:'NotoSansCJKtc-Regular-B5pc-H'; font-size:18px;">40</text>
			
				<text transform="matrix(1 0 0 1 96.9106 -402.0595)" class="st7" style="font-family:'NotoSansCJKtc-Regular-B5pc-H'; font-size:18px;">43</text>
			
				<text transform="matrix(1 0 0 1 148.2858 -402.0595)" class="st7" style="font-family:'NotoSansCJKtc-Regular-B5pc-H'; font-size:18px;">47</text>
			
				<text transform="matrix(1 0 0 1 199.6602 -402.0595)" class="st7" style="font-family:'NotoSansCJKtc-Regular-B5pc-H'; font-size:18px;">51</text>
			
				<text transform="matrix(1 0 0 1 251.0354 -402.0595)" class="st7" style="font-family:'NotoSansCJKtc-Regular-B5pc-H'; font-size:18px;">54</text>
			
				<text transform="matrix(1 0 0 1 302.4099 -402.0595)" class="st7" style="font-family:'NotoSansCJKtc-Regular-B5pc-H'; font-size:18px;">57</text>
			
				<text transform="matrix(1 0 0 1 353.7845 -402.0595)" class="st7" style="font-family:'NotoSansCJKtc-Regular-B5pc-H'; font-size:18px;">61</text>
			
				<text transform="matrix(1 0 0 1 405.1598 -402.0595)" class="st7" style="font-family:'NotoSansCJKtc-Regular-B5pc-H'; font-size:18px;">65</text>
			
				<text transform="matrix(1 0 0 1 456.5343 -402.0595)" class="st7" style="font-family:'NotoSansCJKtc-Regular-B5pc-H'; font-size:18px;">72</text>
			
				<text transform="matrix(1 0 0 1 507.9089 -402.0595)" class="st7" style="font-family:'NotoSansCJKtc-Regular-B5pc-H'; font-size:18px;">76</text>
		</g>
	</g>
	<g>
		<rect x="-72.8" y="-529.1" class="st0" width="615.8" height="145"/>
		<line class="st0" x1="-72.8" y1="-432.4" x2="543" y2="-432.4"/>
		<line class="st0" x1="-72.8" y1="-480.7" x2="543" y2="-480.7"/>
		<line class="st0" x1="491.7" y1="-529.1" x2="491.7" y2="-384.1"/>
		<line class="st0" x1="440.4" y1="-529.1" x2="440.4" y2="-384.1"/>
		<line class="st0" x1="389.1" y1="-529.1" x2="389.1" y2="-384.1"/>
		<line class="st0" x1="337.7" y1="-529.1" x2="337.7" y2="-384.1"/>
		<line class="st0" x1="286.4" y1="-529.1" x2="286.4" y2="-384.1"/>
		<line class="st0" x1="235.1" y1="-529.1" x2="235.1" y2="-384.1"/>
		<line class="st0" x1="183.8" y1="-529.1" x2="183.8" y2="-384.1"/>
		<line class="st0" x1="132.5" y1="-529.1" x2="132.5" y2="-384.1"/>
		<line class="st0" x1="81.2" y1="-529.1" x2="81.2" y2="-384.1"/>
		<line class="st0" x1="29.9" y1="-529.1" x2="29.9" y2="-384.1"/>
		<line class="st0" x1="-21.5" y1="-529.1" x2="-21.5" y2="-384.1"/>
	</g>
	<g>
		<g>
			<line class="st1" x1="382.4" y1="69" x2="382.4" y2="71.5"/>
			<polyline class="st2" points="382.4,74 382.4,113.5 382.4,142.5 382.4,245.7 			"/>
			<line class="st1" x1="382.4" y1="247" x2="382.4" y2="249.5"/>
		</g>
	</g>
	<g>
		<path class="st0" d="M217.6,109.6"/>
		<path class="st0" d="M143.3,5.4"/>
		<path class="st0" d="M143.3,40"/>
		<path class="st0" d="M111.6,11.8c6.6,1.1,20.8,3.3,31.3,3.3c11,0,25.9-2.4,32.1-3.5"/>
		<line class="st0" x1="143.3" y1="38.7" x2="143.3" y2="49.3"/>
		<g>
			<path class="st0" d="M69.7,90.4c0,0,9.7-37,41.3-63"/>
			<path class="st0" d="M216.9,90.4c0,0-9.7-36.9-41.2-62.9"/>
		</g>
		<path class="st0" d="M163.5,254.5c-6.5,0.4-12.7,0.6-18,0.6h-4.3c-24.6,0-69-4.8-74.1-7.2s1.2-94.4,1.5-105.5
			c0.3-11.1,1.8-44.7,1.8-48.6s-0.6-3.3-0.6-3.3c-1.7-0.5-5.9,3.4-11.1,9.2c-2.5,2.8-16.4,16.9-18,17c-1.6,0.1-3.3,0.5-5.4-1
			c-2.6-1.7-5.5-4.3-8.6-7.4C16.5,98.4,6.3,84.5,5,82.7c-2.3-3.2,3-8.4,8-13.9S46.3,32.2,62.2,22c12-7.7,28.3-12.5,36.6-14.4"/>
		<path class="st0" d="M122.9,254.5c6.5,0.4,12.7,0.6,18,0.6h4.3c24.6,0,69-4.8,74.1-7.2s-1.2-94.4-1.5-105.5
			c-0.3-11.1-1.8-44.7-1.8-48.6s0.6-3.3,0.6-3.3c1.7-0.5,5.9,3.4,11.1,9.2c2.5,2.8,16.4,16.9,18,17c1.6,0.1,3.3,0.5,5.4-1
			c2.6-1.7,5.5-4.3,8.6-7.4c10-9.9,20.3-23.8,21.6-25.6c2.3-3.2-3-8.4-8-13.9S240.1,32.2,224.1,22c-12-7.7-28.3-12.5-36.6-14.4"/>
		<path class="st0" d="M143.5,49.3c33.6-9,45.4-44.5,45.4-44.5l-10.5-3.4c-7.6,28.7-32.8,36.6-35,37.3h0c-2.2-0.7-27.4-8.6-35-37.3
			L97.7,4.8c0,0,11.8,35.6,45.4,44.5H143.5z"/>
		<path class="st0" d="M108.3,1.4c0,0,20.7,4,35,4c14.5,0,14.8-0.1,35-4"/>
	</g>
	<circle class="st3" cx="69.3" cy="90.4" r="3.6"/>
	<circle class="st3" cx="216.4" cy="90.4" r="3.6"/>
	<g>
		<g>
			<line class="st1" x1="73.3" y1="90.4" x2="75.8" y2="90.4"/>
			<line class="st4" x1="78.2" y1="90.4" x2="209.4" y2="90.4"/>
			<line class="st1" x1="210.6" y1="90.4" x2="213.1" y2="90.4"/>
		</g>
	</g>
	<circle class="st3" cx="311.4" cy="38.7" r="3.6"/>
	<circle class="st3" cx="453.2" cy="38.7" r="3.6"/>
	<g>
		<g>
			<line class="st1" x1="315" y1="38.7" x2="317.5" y2="38.7"/>
			<line class="st5" x1="320" y1="38.7" x2="445.8" y2="38.7"/>
			<line class="st1" x1="447.1" y1="38.7" x2="449.6" y2="38.7"/>
		</g>
	</g>
	<circle class="st3" cx="143.3" cy="5.4" r="3.6"/>
	<circle class="st3" cx="143.3" cy="254.7" r="3.6"/>
	<g>
		<g>
			<line class="st1" x1="143.3" y1="5.4" x2="143.3" y2="7.9"/>
			<polyline class="st6" points="143.3,10.3 143.3,62.8 143.3,91.8 143.3,248.5 			"/>
			<line class="st1" x1="143.3" y1="249.8" x2="143.3" y2="252.3"/>
		</g>
	</g>
	<g>
		<polyline class="st0" points="430.3,95.6 453.2,95.6 453.2,65.1 415.1,65.1 346.5,65.1 308.3,65.1 308.3,95.6 434.7,95.6 		"/>
		<path class="st0" d="M465.6,149"/>
		<path class="st0" d="M308.3,95.6c-10.5,15.9-8.3,28.9-8.3,53.4s8.4,89.9,8.4,89.9s0,11.4,28.6,11.4h88c28.6,0,28.6-11.4,28.6-11.4
			s8.4-65.4,8.4-89.9s2.2-37.5-8.3-53.4"/>
	</g>
	<polygon class="st7" points="289.1,116.9 283.9,113.9 283.9,119.9 	"/>
	<circle class="st3" cx="382.3" cy="65.3" r="3.6"/>
	<circle class="st3" cx="382.3" cy="250.1" r="3.6"/>
</g>
</svg>
