<svg width="49" height="64" viewBox="0 0 49 64" fill="none" xmlns="http://www.w3.org/2000/svg">
<path d="M11.0598 49.482V46.782H7.9638V49.482H11.0598ZM12.1218 45.792V50.508H6.9378V45.792H12.1218ZM8.4318 54.918H11.8338C11.8338 54.918 11.8158 55.278 11.7978 55.458C11.5458 58.914 11.2938 60.282 10.8258 60.768C10.5558 61.092 10.2498 61.2 9.7818 61.236C9.4218 61.272 8.7198 61.272 8.0178 61.218C7.9998 60.876 7.8738 60.408 7.6938 60.102C8.3778 60.156 9.0438 60.174 9.2958 60.174C9.5658 60.174 9.7278 60.138 9.8718 59.994C10.1598 59.706 10.3758 58.626 10.5918 55.998H8.1618V56.016H6.9558C7.2078 55.224 7.4418 54.108 7.6398 53.1H6.0918V51.912H12.5538V53.1H8.7918C8.6838 53.694 8.5398 54.342 8.4318 54.918ZM14.5158 49.662V53.118C14.5158 55.584 14.2638 59.094 12.6978 61.47C12.4818 61.254 11.9958 60.876 11.6898 60.732C13.1658 58.518 13.3278 55.422 13.3278 53.1V48.546H16.8558V45H18.1158V46.26H21.7338V47.358H18.1158V48.546H21.6078L21.8058 48.492L22.6158 48.708C22.3998 49.77 22.0938 51.012 21.8598 51.822L20.8698 51.57C21.0138 51.066 21.1578 50.364 21.2478 49.662H14.5158ZM15.9378 55.368H17.0898C16.9458 58.23 16.5138 60.246 14.5698 61.434C14.4078 61.146 14.0658 60.75 13.7958 60.552C15.4878 59.562 15.8298 57.834 15.9378 55.368ZM18.3678 53.424H20.2758C20.5998 53.424 21.1398 53.388 21.3738 53.334C21.4098 53.658 21.4458 54.018 21.4818 54.324C21.2298 54.414 20.7798 54.414 20.3298 54.414H18.1698C17.0178 54.414 16.7658 53.928 16.7658 52.776V52.218L15.0018 52.398L14.8758 51.444L16.7658 51.246V49.752H17.9178V51.12L20.2398 50.886L20.3658 51.84L17.9178 52.092V52.776C17.9178 53.262 17.9898 53.424 18.3678 53.424ZM20.2578 59.85H20.8698C21.0678 59.85 21.2478 59.832 21.3378 59.778C21.4458 59.706 21.5538 59.58 21.5898 59.4C21.6258 59.112 21.6618 58.428 21.6438 57.6C21.8778 57.816 22.2918 58.05 22.6338 58.14C22.6158 58.986 22.5438 59.886 22.4538 60.192C22.3458 60.516 22.1658 60.732 21.9138 60.876C21.6798 60.984 21.2838 61.056 20.9778 61.056H20.0058C19.6098 61.056 19.1958 60.984 18.9438 60.768C18.6558 60.534 18.6018 60.282 18.6018 59.454V55.368H19.7358V59.49C19.7358 59.598 19.7718 59.724 19.8798 59.778C19.9698 59.832 20.0958 59.85 20.2578 59.85ZM29.8518 57.978V52.596H27.5478V57.978H29.8518ZM31.0218 59.148H27.5478V60.624H26.3958V54.684C26.1258 55.242 25.8198 55.764 25.4958 56.232C25.3698 55.962 24.9558 55.332 24.7038 55.062C26.0178 53.136 26.7738 50.202 27.2238 47.088H25.1358V45.864H31.7058V47.088H28.5018C28.2678 48.6 27.9798 50.076 27.6018 51.444H31.0218V59.148ZM31.8498 60.624L30.9138 60.084C31.6878 59.202 32.0478 57.654 32.2098 56.178L33.2178 56.43C33.0378 57.978 32.7138 59.652 31.8498 60.624ZM33.9378 56.736L34.8558 56.592C35.0718 57.654 35.2158 59.004 35.1978 59.886L34.2078 60.048C34.2438 59.148 34.1358 57.78 33.9378 56.736ZM35.8458 56.592L36.7098 56.358C37.0878 57.204 37.4298 58.356 37.5558 59.094L36.6378 59.364C36.5298 58.608 36.2058 57.474 35.8458 56.592ZM33.6858 52.416V54.126H36.1698V52.416H33.6858ZM36.1698 46.944H33.6858V48.582H36.1698V46.944ZM36.1698 51.336V49.662H33.6858V51.336H36.1698ZM37.3578 54.126H41.1378C41.1378 54.126 41.1378 54.504 41.1198 54.684C40.9218 58.86 40.7058 60.408 40.2558 60.93C39.9678 61.272 39.6798 61.398 39.1938 61.434C38.7798 61.47 38.0238 61.47 37.2138 61.416C37.1958 61.074 37.0698 60.57 36.8898 60.264C37.6458 60.336 38.3658 60.354 38.6358 60.354C38.9238 60.354 39.0498 60.318 39.2118 60.156C39.4998 59.814 39.7158 58.554 39.8778 55.296H32.4618V45.774H40.7778V46.944H37.3578V48.582H40.3638V49.662H37.3578V51.336H40.3638V52.416H37.3578V54.126ZM39.6078 57.978L38.8338 58.356C38.6178 57.762 38.0958 56.862 37.6278 56.196L38.3658 55.89C38.8698 56.538 39.3738 57.42 39.6078 57.978Z" fill="white"/>
<path d="M9 7H15V38.2" stroke="white" stroke-width="4.5" stroke-miterlimit="10"/>
<path d="M36.2001 7H23.1001V36.8H36.2001V7Z" stroke="white" stroke-width="4.5" stroke-miterlimit="10"/>
</svg>
