<svg width="75" height="72" viewBox="0 0 75 72" fill="none" xmlns="http://www.w3.org/2000/svg">
<path d="M9.846 67.57V69.46H12.528V67.57H9.846ZM12.528 63.574V61.756H9.846V63.574H12.528ZM12.528 66.526V64.618H9.846V66.526H12.528ZM5.418 67.858V62.602H3.42V67.858H5.418ZM17.118 69.46V70.612H9.846V71.386H8.586V62.8C8.208 63.16 7.776 63.502 7.362 63.826C7.218 63.556 6.858 63.052 6.588 62.782V69.046H3.42V70.504H2.268V64.618C1.98 65.158 1.674 65.698 1.332 66.148C1.188 65.878 0.81 65.266 0.558 64.996C1.854 63.16 2.646 60.406 3.114 57.436H0.99V56.212H6.894V57.436H4.41C4.176 58.822 3.888 60.19 3.51 61.432H6.588V62.692C8.244 61.54 9.576 59.884 10.548 57.922H8.442V59.848H7.272V56.77H11.088C11.322 56.176 11.538 55.546 11.718 54.916L12.978 55.168C12.816 55.708 12.636 56.266 12.42 56.77H16.722V59.812H15.516V57.922H11.952C11.502 58.894 10.998 59.794 10.422 60.622H12.762C12.528 60.082 12.24 59.47 11.988 58.966L13.104 58.516C13.464 59.182 13.896 60.01 14.112 60.622H16.578V61.756H13.77V63.574H16.344V64.618H13.77V66.526H16.344V67.57H13.77V69.46H17.118ZM21.744 58.246V60.874H20.43V56.968H27.414C27.198 56.41 26.874 55.726 26.586 55.204L27.882 54.826C28.278 55.492 28.728 56.374 28.944 56.968H35.352V60.874H34.002V58.246H21.744ZM28.566 65.932V69.532C29.466 69.712 30.456 69.766 31.518 69.766C32.166 69.766 35.244 69.766 36.108 69.73C35.892 70.072 35.676 70.684 35.604 71.08H31.446C27.702 71.08 25.02 70.432 23.382 67.372C22.77 69.046 21.888 70.414 20.7 71.44C20.484 71.188 19.944 70.72 19.62 70.522C21.618 68.992 22.59 66.436 22.986 63.196L24.318 63.34C24.21 64.168 24.066 64.942 23.904 65.662C24.588 67.57 25.74 68.614 27.198 69.172V61.738H22.734V60.46H33.156V61.738H28.566V64.672H33.894V65.932H28.566ZM54.756 57.598H47.16V60.802L47.394 60.532C49.536 61.558 52.362 63.178 53.784 64.258L52.848 65.464C51.624 64.456 49.212 62.98 47.16 61.882V71.35H45.738V57.598H38.862V56.266H54.756V57.598ZM71.154 58.228V56.536H67.68V58.228H71.154ZM72.396 55.636V59.128H66.456V55.636H72.396ZM63.756 58.228V56.536H60.318V58.228H63.756ZM65.016 55.636V59.128H59.112V55.636H65.016ZM60.894 65.212H64.962V63.664H60.894V65.212ZM60.894 61.108V62.638H64.962V61.108H60.894ZM70.614 62.638V61.108H66.33V62.638H70.614ZM70.614 65.212V63.664H66.33V65.212H70.614ZM73.638 67.66V68.83H66.33V71.368H64.962V68.83H57.798V67.66H64.962V66.292H59.598V60.028H71.982V66.292H66.33V67.66H73.638Z" fill="white"/>
<path fill-rule="evenodd" clip-rule="evenodd" d="M25 38C25.7956 38 26.5587 38.3161 27.1213 38.8787C27.6839 39.4413 28 40.2043 28 41C28 41.7957 27.6839 42.5587 27.1213 43.1213C26.5587 43.6839 25.7956 44 25 44C24.2044 44 23.4413 43.6839 22.8787 43.1213C22.3161 42.5587 22 41.7957 22 41C22 40.2043 22.3161 39.4413 22.8787 38.8787C23.4413 38.3161 24.2044 38 25 38ZM45 38C45.7956 38 46.5587 38.3161 47.1213 38.8787C47.6839 39.4413 48 40.2043 48 41C48 41.7957 47.6839 42.5587 47.1213 43.1213C46.5587 43.6839 45.7956 44 45 44C44.2044 44 43.4413 43.6839 42.8787 43.1213C42.3161 42.5587 42 41.7957 42 41C42 40.2043 42.3161 39.4413 42.8787 38.8787C43.4413 38.3161 44.2044 38 45 38ZM16.276 4C17.7931 4.00018 19.2538 4.57505 20.3641 5.60889C21.4743 6.64273 22.1518 8.05878 22.26 9.572L22.29 10H49.604C50.19 9.99991 50.7688 10.1286 51.2996 10.3769C51.8304 10.6252 52.3001 10.9871 52.6756 11.437C53.051 11.8868 53.3231 12.4137 53.4725 12.9803C53.6218 13.547 53.6449 14.1395 53.54 14.716L50.266 32.716C50.0983 33.6376 49.6125 34.4712 48.8932 35.0714C48.1739 35.6715 47.2668 36.0001 46.33 36H23.862C22.8503 36 21.8761 35.6167 21.1358 34.9271C20.3954 34.2376 19.9438 33.2932 19.872 32.284L18.272 9.858C18.236 9.3529 18.0098 8.88024 17.639 8.5354C17.2682 8.19057 16.7804 7.99923 16.274 8H16C15.4696 8 14.9609 7.78929 14.5858 7.41421C14.2107 7.03914 14 6.53043 14 6C14 5.46957 14.2107 4.96086 14.5858 4.58579C14.9609 4.21071 15.4696 4 16 4H16.276ZM49.604 14H22.576L23.862 32H46.33L49.604 14Z" fill="white"/>
</svg>
