<svg width="49" height="64" viewBox="0 0 49 64" fill="none" xmlns="http://www.w3.org/2000/svg">
<path d="M15.336 55.206V56.25H17.46V55.206H15.336ZM14.508 56.952V54.504H18.324V56.952H14.508ZM13.356 53.73V57.726H19.476V53.73H13.356ZM12.312 58.572V52.902H20.574V58.572H12.312ZM14.004 48.474V49.662H18.846V48.474H14.004ZM16.956 51.282H21.87V52.128H11.088V51.282H15.822V50.472H12.888V47.682H19.998V50.472H16.956V51.282ZM10.242 59.526H22.662V46.836H10.242V59.526ZM9 45.702H23.94V61.38H22.662V60.678H10.242V61.38H9V45.702ZM31.338 53.64H40.158V61.416H38.79V54.972H31.23C30.96 57.312 30.258 59.58 28.566 61.47C28.35 61.164 27.864 60.696 27.558 60.48C29.826 57.87 30.078 54.486 30.078 51.228V45.18H31.41V49.428H38.178V45H39.528V50.742H31.41V51.228C31.41 52.038 31.392 52.848 31.338 53.64Z" fill="white"/>
<path d="M39.9 10H9V37.5H39.9V10Z" stroke="white" stroke-width="3.5" stroke-miterlimit="10"/>
<path d="M12.2002 37.4L30.1002 20L39.6002 29.4" stroke="white" stroke-width="3.5" stroke-miterlimit="10"/>
<path d="M16.4998 19.9C17.991 19.9 19.1998 18.6912 19.1998 17.2C19.1998 15.7088 17.991 14.5 16.4998 14.5C15.0086 14.5 13.7998 15.7088 13.7998 17.2C13.7998 18.6912 15.0086 19.9 16.4998 19.9Z" fill="white"/>
</svg>
