<svg width="30" height="30" viewBox="0 0 30 30" fill="none" xmlns="http://www.w3.org/2000/svg">
<path d="M18.75 5C19.413 5 20.0489 5.26339 20.5178 5.73223C20.9866 6.20107 21.25 6.83696 21.25 7.5V8.75H23.15C23.5247 8.75005 23.8946 8.83432 24.2324 8.9966C24.5701 9.15887 24.8671 9.39499 25.1012 9.6875L26.9513 12.0012C27.3064 12.4446 27.4999 12.9957 27.5 13.5637V18.75C27.5 19.413 27.2366 20.0489 26.7678 20.5178C26.2989 20.9866 25.663 21.25 25 21.25C25 22.2446 24.6049 23.1984 23.9017 23.9017C23.1984 24.6049 22.2446 25 21.25 25C20.2554 25 19.3016 24.6049 18.5983 23.9017C17.8951 23.1984 17.5 22.2446 17.5 21.25H12.5C12.5 21.7425 12.403 22.2301 12.2145 22.6851C12.0261 23.14 11.7499 23.5534 11.4017 23.9017C11.0534 24.2499 10.64 24.5261 10.1851 24.7145C9.73009 24.903 9.24246 25 8.75 25C8.25754 25 7.76991 24.903 7.31494 24.7145C6.85997 24.5261 6.44657 24.2499 6.09835 23.9017C5.75013 23.5534 5.47391 23.14 5.28545 22.6851C5.097 22.2301 5 21.7425 5 21.25C4.33696 21.25 3.70107 20.9866 3.23223 20.5178C2.76339 20.0489 2.5 19.413 2.5 18.75V7.5C2.5 6.83696 2.76339 6.20107 3.23223 5.73223C3.70107 5.26339 4.33696 5 5 5H18.75ZM8.75 20C8.41848 20 8.10054 20.1317 7.86612 20.3661C7.6317 20.6005 7.5 20.9185 7.5 21.25C7.5 21.5815 7.6317 21.8995 7.86612 22.1339C8.10054 22.3683 8.41848 22.5 8.75 22.5C9.08152 22.5 9.39946 22.3683 9.63388 22.1339C9.8683 21.8995 10 21.5815 10 21.25C10 20.9185 9.8683 20.6005 9.63388 20.3661C9.39946 20.1317 9.08152 20 8.75 20ZM21.25 20C20.9185 20 20.6005 20.1317 20.3661 20.3661C20.1317 20.6005 20 20.9185 20 21.25C20 21.5815 20.1317 21.8995 20.3661 22.1339C20.6005 22.3683 20.9185 22.5 21.25 22.5C21.5815 22.5 21.8995 22.3683 22.1339 22.1339C22.3683 21.8995 22.5 21.5815 22.5 21.25C22.5 20.9185 22.3683 20.6005 22.1339 20.3661C21.8995 20.1317 21.5815 20 21.25 20ZM18.75 7.5H5V18.75H5.955C6.6425 17.9825 7.64 17.5 8.75 17.5C9.775 17.5 10.7037 17.9125 11.3812 18.5775L11.545 18.75H18.455L18.5987 18.5987L18.75 18.455V7.5ZM23.15 11.25H21.25V17.5C22.275 17.5 23.2037 17.9125 23.8812 18.5775L24.045 18.75H25V13.5625L23.15 11.25Z" fill="white"/>
</svg>
