<?xml version="1.0" encoding="utf-8"?>
<!-- Generator: Adobe Illustrator 24.0.1, SVG Export Plug-In . SVG Version: 6.00 Build 0)  -->
<svg version="1.1" xmlns="http://www.w3.org/2000/svg" xmlns:xlink="http://www.w3.org/1999/xlink" x="0px" y="0px"
	 viewBox="0 0 30 30" style="enable-background:new 0 0 30 30;" xml:space="preserve">
<style type="text/css">
	.st0{fill:none;stroke:#FFFFFF;stroke-width:2;stroke-miterlimit:10;}
</style>
<g id="圖層_2">
</g>
<g id="圖層_1">
	<g>
		<g>
			<path class="st0" d="M21.1,10h2c0,0,1.3,0,2.4,1.4c1.4,1.7,1.9,3.5,1.9,4v3.5c0,1.2-1,2.3-2.3,2.3h-0.7"/>
			<path class="st0" d="M21.1,18.6V8.9V7.3c0-1.2-1-2.3-2.3-2.3H4.8C3.5,5,2.5,6,2.5,7.3v11.6c0,1.2,1,2.3,2.3,2.3h0.7"/>
		</g>
		<line class="st0" x1="18.7" y1="21.1" x2="11.8" y2="21.1"/>
		<circle class="st0" cx="8.5" cy="21.3" r="3"/>
		<circle class="st0" cx="21.5" cy="21.3" r="3"/>
	</g>
</g>
</svg>
