<svg width="49" height="64" viewBox="0 0 49 64" fill="none" xmlns="http://www.w3.org/2000/svg">
<path d="M16.4124 46.98V47.736C16.4124 49.356 15.9444 51.264 13.8024 52.524C13.6224 52.254 13.1724 51.75 12.9384 51.552C14.8644 50.454 15.1704 48.978 15.1704 47.7V45.72H20.6424V49.896C20.6424 50.4 20.6784 50.562 20.9304 50.562H21.9924C22.2264 50.562 22.5684 50.526 22.7844 50.472C22.8024 50.814 22.8564 51.318 22.8744 51.624C22.6944 51.696 22.3344 51.714 21.9924 51.714H20.8224C19.6524 51.714 19.4004 51.21 19.4004 49.86V46.98H16.4124ZM11.1924 47.322L10.1124 47.934C9.84236 47.286 9.26636 46.278 8.76236 45.522L9.80636 45C10.3284 45.738 10.9044 46.674 11.1924 47.322ZM13.6224 48.132V49.23H6.81836V48.132H13.6224ZM7.59236 53.892V52.83H12.9024V53.892H7.59236ZM7.59236 50.49H12.8844V51.552H7.59236V50.49ZM20.4624 54.234H15.3864C15.9804 55.566 16.8444 56.718 17.9244 57.672C18.9864 56.736 19.8684 55.602 20.4624 54.234ZM11.6964 59.31V56.34H8.74436V59.31H11.6964ZM21.3264 52.92L22.1724 53.298C21.5064 55.476 20.3904 57.168 18.9684 58.482C20.1924 59.31 21.6144 59.922 23.2164 60.282C22.9464 60.57 22.5684 61.11 22.3884 61.488C20.6964 61.038 19.2024 60.318 17.9244 59.346C16.5924 60.336 15.0804 61.056 13.4604 61.542C13.3344 61.2 13.0824 60.732 12.8484 60.426H8.74436V61.272H7.57436V55.224H12.8844V60.3C14.3064 59.922 15.6924 59.31 16.8984 58.482C15.7824 57.384 14.8644 56.034 14.2164 54.504L14.9904 54.234H13.4244V52.974H21.0924L21.3264 52.92ZM30.5604 47.322L29.4804 47.934C29.2284 47.286 28.6524 46.278 28.1664 45.54L29.1744 45.018C29.7144 45.756 30.2904 46.692 30.5604 47.322ZM33.4224 48.132V49.23H26.0244V48.132H33.4224ZM32.6124 52.83V53.892H26.8164V52.83H32.6124ZM31.4784 56.34H28.1304V59.31H31.4784V56.34ZM32.6664 55.224V60.426H28.1304V61.272H26.9604V55.224H32.6664ZM26.8164 51.552V50.49H32.6664V51.552H26.8164ZM41.9544 51.282V52.596H38.2644V61.524H36.9144V52.596H33.3864V51.282H36.9144V45.414H38.2644V51.282H41.9544Z" fill="white"/>
<path d="M8 20.7L22.7 37.6L37 20.7L22.2 3.90002L8 20.7Z" stroke="white" stroke-width="3.5" stroke-miterlimit="10"/>
<path d="M32 7.6L36.9 13.2L41.6 7.6L36.8 2L32 7.6Z" fill="white"/>
</svg>
