<svg width="30" height="30" viewBox="0 0 30 30" fill="none" xmlns="http://www.w3.org/2000/svg">
<path d="M21.25 15C22.9076 15 24.4973 15.6585 25.6694 16.8306C26.8415 18.0027 27.5 19.5924 27.5 21.25C27.5 22.9076 26.8415 24.4973 25.6694 25.6694C24.4973 26.8415 22.9076 27.5 21.25 27.5C19.5924 27.5 18.0027 26.8415 16.8306 25.6694C15.6585 24.4973 15 22.9076 15 21.25C15 19.5924 15.6585 18.0027 16.8306 16.8306C18.0027 15.6585 19.5924 15 21.25 15ZM20 3.75C20.3315 3.75 20.6495 3.8817 20.8839 4.11612C21.1183 4.35054 21.25 4.66848 21.25 5V6.25H23.75C24.413 6.25 25.0489 6.51339 25.5178 6.98223C25.9866 7.45107 26.25 8.08696 26.25 8.75V12.5H23.75V8.75H6.25V23.75H12.5V26.25H6.25C5.58696 26.25 4.95107 25.9866 4.48223 25.5178C4.01339 25.0489 3.75 24.413 3.75 23.75V8.75C3.75 8.08696 4.01339 7.45107 4.48223 6.98223C4.95107 6.51339 5.58696 6.25 6.25 6.25H8.75V5C8.75 4.66848 8.8817 4.35054 9.11612 4.11612C9.35054 3.8817 9.66848 3.75 10 3.75C10.3315 3.75 10.6495 3.8817 10.8839 4.11612C11.1183 4.35054 11.25 4.66848 11.25 5V6.25H18.75V5C18.75 4.66848 18.8817 4.35054 19.1161 4.11612C19.3505 3.8817 19.6685 3.75 20 3.75ZM21.25 17.5C20.2554 17.5 19.3016 17.8951 18.5983 18.5983C17.8951 19.3016 17.5 20.2554 17.5 21.25C17.5 22.2446 17.8951 23.1984 18.5983 23.9017C19.3016 24.6049 20.2554 25 21.25 25C22.2446 25 23.1984 24.6049 23.9017 23.9017C24.6049 23.1984 25 22.2446 25 21.25C25 20.2554 24.6049 19.3016 23.9017 18.5983C23.1984 17.8951 22.2446 17.5 21.25 17.5ZM21.25 18.125C21.5815 18.125 21.8995 18.2567 22.1339 18.4911C22.3683 18.7255 22.5 19.0435 22.5 19.375V20C22.8315 20 23.1495 20.1317 23.3839 20.3661C23.6183 20.6005 23.75 20.9185 23.75 21.25C23.75 21.5815 23.6183 21.8995 23.3839 22.1339C23.1495 22.3683 22.8315 22.5 22.5 22.5H21.25C20.9185 22.5 20.6005 22.3683 20.3661 22.1339C20.1317 21.8995 20 21.5815 20 21.25V19.375C20 19.0435 20.1317 18.7255 20.3661 18.4911C20.6005 18.2567 20.9185 18.125 21.25 18.125ZM10.625 17.5C10.9436 17.5004 11.25 17.6223 11.4817 17.8411C11.7134 18.0598 11.8528 18.3587 11.8715 18.6767C11.8901 18.9948 11.7867 19.308 11.5822 19.5523C11.3777 19.7966 11.0876 19.9536 10.7712 19.9912L10.625 20H10C9.6814 19.9996 9.37496 19.8777 9.14329 19.6589C8.91162 19.4402 8.77221 19.1413 8.75354 18.8233C8.73486 18.5052 8.83834 18.192 9.04283 17.9477C9.24732 17.7034 9.53738 17.5464 9.85375 17.5087L10 17.5H10.625ZM13.75 12.5C14.0815 12.5 14.3995 12.6317 14.6339 12.8661C14.8683 13.1005 15 13.4185 15 13.75C15 14.0815 14.8683 14.3995 14.6339 14.6339C14.3995 14.8683 14.0815 15 13.75 15H10C9.66848 15 9.35054 14.8683 9.11612 14.6339C8.8817 14.3995 8.75 14.0815 8.75 13.75C8.75 13.4185 8.8817 13.1005 9.11612 12.8661C9.35054 12.6317 9.66848 12.5 10 12.5H13.75Z" fill="white"/>
</svg>
