<svg width="48" height="64" viewBox="0 0 48 64" fill="none" xmlns="http://www.w3.org/2000/svg">
<g clip-path="url(#clip0_1328_1419)">
<path d="M14.01 51.822L14.028 52.272C15.144 50.508 15.792 47.772 16.134 45L17.448 45.162C17.304 46.206 17.106 47.25 16.872 48.222H21.3L21.534 48.168L22.434 48.456C22.092 50.058 21.588 51.93 21.102 53.118L20.004 52.776C20.346 51.93 20.67 50.634 20.922 49.464H16.566C16.152 50.886 15.666 52.164 15.054 53.154C14.82 52.956 14.334 52.614 14.01 52.398V52.956H6.936V51.822H14.01ZM9.834 49.374V47.826H6.342V46.692H9.834V45.054H11.094V46.692H14.586V47.826H11.094V49.374H14.226V50.49H6.756V49.374H9.834ZM7.638 56.106L8.754 56.394C8.304 57.69 7.638 59.22 7.062 60.21C6.792 60.066 6.288 59.814 6 59.706C6.63 58.734 7.224 57.348 7.638 56.106ZM14.748 55.494H11.112V61.416H9.852V55.494H6.126V54.342H14.748V55.494ZM12.156 56.502L13.146 56.106C13.668 56.988 14.262 58.194 14.532 58.896L13.47 59.4C13.2 58.662 12.642 57.438 12.156 56.502ZM18.78 50.796V51.642C18.78 52.164 18.762 52.74 18.726 53.334C19.356 56.448 20.634 59.166 22.74 60.318C22.452 60.57 22.038 61.074 21.858 61.416C20.148 60.372 19.032 58.464 18.276 56.088C17.808 57.924 16.89 59.814 15.09 61.452C14.856 61.164 14.406 60.768 14.064 60.57C17.268 57.708 17.502 54.072 17.502 51.624V50.796H18.78ZM40.488 47.268L39.552 48.114C39.03 47.484 37.914 46.512 36.996 45.864L37.896 45.126C38.814 45.738 39.948 46.656 40.488 47.268ZM30.462 53.604V58.536C31.722 58.266 33.018 58.014 34.314 57.726L34.422 58.914C31.38 59.634 28.086 60.39 25.8 60.894L25.386 59.58C26.394 59.382 27.708 59.112 29.148 58.824V53.604H25.944V52.308H33.828V53.604H30.462ZM41.226 49.644H35.97C36.42 55.692 37.824 60.066 39.606 60.066C40.092 60.066 40.308 59.076 40.416 56.682C40.722 56.988 41.226 57.276 41.604 57.42C41.37 60.534 40.866 61.452 39.498 61.452C36.582 61.452 35.088 56.286 34.602 49.644H25.314V48.33H34.512C34.458 47.268 34.44 46.17 34.422 45.072H35.826C35.826 46.188 35.844 47.268 35.898 48.33H41.226V49.644Z" fill="#FEB75D"/>
<path d="M24.3 8C28.6 8 30.7 2.1 30.7 2.1C30.7 2.1 36.6 3.5 38.3 5C40 6.5 45.5 12.8 45.5 12.8L39.7 18.3C39.7 18.3 37.4 16.2 37 15.8C36.2 14.9 35.6 14.3 35.3 14.4C35.3 14.4 35.2 14.3 35.2 14.9C35.2 15.5 35.4 20.5 35.5 22.2C35.5 23.9 36.5 37.6 35.7 38H12.9C12.1 37.6 13.1 23.9 13.1 22.2C13.1 20.5 13.4 15.5 13.4 14.9C13.4 14.3 13.3 14.4 13.3 14.4C13 14.3 12.4 14.9 11.6 15.8C11.2 16.2 8.9 18.3 8.9 18.3L3 12.7C3 12.7 8.5 6.4 10.2 4.9C11.9 3.4 17.8 2 17.8 2C17.8 2 20 8 24.3 8Z" stroke="#FEB75D" stroke-width="3.5" stroke-miterlimit="10"/>
</g>
<defs>
<clipPath id="clip0_1328_1419">
<rect width="48" height="64" fill="white"/>
</clipPath>
</defs>
</svg>
