<svg width="49" height="64" viewBox="0 0 49 64" fill="none" xmlns="http://www.w3.org/2000/svg">
<g clip-path="url(#clip0_1324_496)">
<path d="M21.94 51.606V49.896H17.188V51.606H21.94ZM21.94 54.36V52.614H17.188V54.36H21.94ZM21.94 57.114V55.368H17.188V57.114H21.94ZM16 48.834H18.52C18.646 48.294 18.772 47.646 18.844 47.088H15.46V45.936H23.722V47.088H20.212C20.05 47.682 19.906 48.294 19.744 48.834H23.164V58.176H16V48.834ZM9.214 52.596V55.188C9.214 57.024 9.016 59.634 7.954 61.38C7.756 61.128 7.27 60.696 7 60.552C7.918 58.968 8.008 56.808 8.008 55.188V51.498H8.602C8.404 51.264 8.026 50.922 7.774 50.76C8.692 50.454 9.646 50.076 10.51 49.626C9.754 49.266 9.016 48.96 8.332 48.69L9.196 48.024C9.934 48.312 10.762 48.654 11.554 49.032C12.148 48.672 12.67 48.294 13.12 47.88H7.558V46.8H11.158C10.996 46.314 10.744 45.738 10.51 45.288L11.68 45C12.022 45.54 12.31 46.242 12.49 46.8H15.28V47.88H13.552L14.29 48.168C13.804 48.636 13.228 49.104 12.598 49.518C13.39 49.914 14.128 50.292 14.686 50.616L13.822 51.372C13.246 51.03 12.454 50.58 11.59 50.148C10.672 50.688 9.682 51.138 8.782 51.498H15.46V52.596H9.214ZM13.732 55.008L14.758 55.422C13.714 56.556 12.022 57.51 10.474 58.122C10.276 57.87 9.97 57.528 9.682 57.348C11.14 56.808 12.814 55.944 13.732 55.008ZM13.246 52.74L14.272 53.154C13.3 54.09 11.716 54.882 10.348 55.368C10.15 55.134 9.826 54.81 9.556 54.612C10.87 54.18 12.4 53.496 13.246 52.74ZM14.236 57.492L15.352 57.888C14.236 59.562 12.184 60.858 9.844 61.596C9.664 61.308 9.376 60.93 9.088 60.696C11.266 60.084 13.246 58.95 14.236 57.492ZM17.638 58.464L18.79 59.148C17.89 60.066 16.396 61.038 15.1 61.596C14.902 61.326 14.488 60.948 14.2 60.714C15.496 60.192 16.936 59.238 17.638 58.464ZM20.158 59.22L21.13 58.536C22.102 59.202 23.362 60.156 23.974 60.84L22.93 61.56C22.336 60.912 21.112 59.904 20.158 59.22ZM36.142 47.844H31.444C30.868 48.618 30.184 49.356 29.5 50.04H34.252C34.918 49.428 35.62 48.6 36.142 47.844ZM39.508 54.414V51.282H35.206V54.414H39.508ZM29.77 51.282V54.414H33.91V51.282H29.77ZM32.092 59.994H39.094C40.876 59.994 41.146 59.49 41.362 57.132C41.704 57.348 42.244 57.546 42.64 57.618C42.334 60.408 41.794 61.218 39.094 61.218H32.182C29.356 61.218 28.474 60.714 28.474 58.644V50.976C27.952 51.444 27.412 51.84 26.872 52.218C26.764 51.912 26.368 51.264 26.152 50.958C28.33 49.626 30.526 47.43 31.768 45.018L32.956 45.468C32.74 45.864 32.524 46.242 32.29 46.638H37.024L37.294 46.566L38.176 47.196C37.546 48.15 36.718 49.176 35.872 50.04H40.822V56.484H39.508V55.692H29.77V58.662C29.77 59.724 30.148 59.994 32.092 59.994Z" fill="white"/>
<path d="M39.0821 12.4765L19.2827 2L6.00003 27.1028L25.7994 37.5792L39.0821 12.4765Z" stroke="white" stroke-width="3.5" stroke-miterlimit="10"/>
<path d="M36.4342 17.5145L10.5342 18.7145" stroke="white" stroke-width="3.5" stroke-miterlimit="10"/>
<path d="M9.23389 4.41443L21.4339 10.9144" stroke="white" stroke-width="3.5" stroke-miterlimit="10"/>
<path d="M41.434 25.1145C44.434 25.1145 44.434 22.1145 44.434 22.1145L41.434 17.0145L38.434 22.0145C38.434 22.0145 38.334 25.1145 41.434 25.1145Z" fill="white"/>
</g>
<defs>
<clipPath id="clip0_1324_496">
<rect width="48" height="64" fill="white" transform="translate(0.455078)"/>
</clipPath>
</defs>
</svg>
