<svg width="49" height="64" viewBox="0 0 49 64" fill="none" xmlns="http://www.w3.org/2000/svg">
<path d="M16.684 47.79L15.226 48.258C15.01 47.52 14.434 46.314 13.894 45.432L15.28 45.036C15.82 45.882 16.432 47.034 16.684 47.79ZM19.042 49.608H11.41C12.346 51.894 13.642 53.946 15.334 55.638C16.936 54.018 18.142 52.038 19.042 49.608ZM23.38 49.608H20.554C19.528 52.452 18.142 54.72 16.342 56.574C18.322 58.248 20.752 59.526 23.614 60.228C23.29 60.534 22.912 61.092 22.696 61.47C19.762 60.642 17.314 59.328 15.316 57.528C13.3 59.292 10.816 60.588 7.828 61.542C7.666 61.218 7.27 60.606 7 60.3C9.97 59.454 12.382 58.23 14.344 56.574C12.49 54.666 11.068 52.326 10.024 49.608H7.252V48.294H23.38V49.608ZM27.988 48.294V50.688H26.674V47.016H33.766C33.514 46.494 33.172 45.9 32.83 45.432L34.108 45C34.576 45.612 35.062 46.404 35.314 47.016H41.668V50.688H40.3V48.294H27.988ZM41.848 54.774V56.052H34.864V59.922C34.864 60.714 34.666 61.11 34.036 61.308C33.406 61.524 32.47 61.542 30.976 61.542C30.868 61.164 30.598 60.57 30.364 60.228C31.588 60.264 32.74 60.264 33.046 60.246C33.388 60.228 33.478 60.156 33.478 59.904V56.052H26.458V54.774H33.478V53.658C34.522 53.154 35.71 52.344 36.61 51.552H29.41V50.292H37.96L38.248 50.22L39.166 50.922C38.032 52.074 36.43 53.28 34.864 54.108V54.774H41.848Z" fill="#FEB75D"/>
<path d="M11 38.8L24.9 8L38.6 38.8" stroke="#FEB75D" stroke-width="3.5" stroke-miterlimit="10"/>
<path d="M16.2002 27.3H33.3002" stroke="#FEB75D" stroke-width="3.5" stroke-miterlimit="10"/>
</svg>
