<?xml version="1.0" encoding="utf-8"?>
<!-- Generator: Adobe Illustrator 24.0.1, SVG Export Plug-In . SVG Version: 6.00 Build 0)  -->
<svg version="1.1" id="圖層_1" xmlns="http://www.w3.org/2000/svg" xmlns:xlink="http://www.w3.org/1999/xlink" x="0px" y="0px"
	 viewBox="0 0 217 89" style="enable-background:new 0 0 217 89;" xml:space="preserve">
<style type="text/css">
	.st0{fill:#54BEDD;}
	.st1{fill:#F5B15E;}
	.st2{fill:#FFFFFF;}
	.st3{fill:#FFFFFF;stroke:#231815;stroke-miterlimit:10;}
</style>
<g>
	<polygon class="st0" points="40.11,29.5 47.5,44.83 42.15,52.66 26.23,20.81 19.96,8.27 9.67,5.51 0.79,3.13 7.05,15.67 
		13.69,17.45 42.15,74.37 53.63,57.56 55.1,60.61 61.44,51.34 52.58,32.96 55.52,28.65 61.08,30.14 73.62,33.5 79.88,24.33 
		49.25,16.12 	"/>
	<polygon class="st1" points="56.92,36.24 63.19,48.77 73.62,33.5 61.08,30.14 	"/>
	<polygon class="st2" points="48.97,47.88 40.33,60.52 19.59,19.03 7.05,15.67 40.33,82.23 55.1,60.61 	"/>
	<g>
		<rect x="175.4" y="68.96" class="st1" width="9.31" height="12.53"/>
		<polygon class="st1" points="120.97,48.89 130.04,36.4 120.29,36.4 111.22,48.89 		"/>
		<g>
			<polygon class="st2" points="144.95,57.78 131.19,57.75 140.27,45.27 136.91,36.36 121.47,57.65 124.69,66.24 138.5,66.24 
				141.04,73.03 110.3,73.03 104.14,81.49 153.82,81.49 153.82,81.49 153.82,81.49 			"/>
			<polygon class="st2" points="181.93,51.64 157.81,51.64 155.04,44.23 177.2,44.23 177.4,44.13 174.96,47.57 184.68,47.57 
				192.63,36.36 182.91,36.36 143.7,36.36 160.58,81.53 171.43,66.24 164.65,66.24 163.27,66.24 161.62,61.82 160.55,58.97 
				176.61,58.97 			"/>
			<polygon class="st2" points="205.98,66.29 205.99,66.29 208.97,62.2 207.29,57.7 199.31,36.4 192.97,45.13 191.38,47.57 
				193.89,47.57 197.68,57.7 183.87,57.7 177.58,66.29 194.99,66.29 205.22,81.49 216.21,81.49 			"/>
			<polygon class="st2" points="119,51.6 109.25,51.6 100.37,63.82 90.08,36.36 80.37,36.36 97.26,81.45 97.26,81.53 			"/>
		</g>
	</g>
	<path class="st3" d="M160.58,81.53"/>
	<path class="st3" d="M192.63,36.36"/>
</g>
</svg>
