<svg width="518" height="519" viewBox="0 0 518 519" fill="none" xmlns="http://www.w3.org/2000/svg">
<path d="M342.69 226.72L374.45 290.23L427.29 212.86L363.78 195.84L342.69 226.72Z" fill="#F5B25E"/>
<path d="M363.79 195.84L427.29 212.86L459.05 166.37L303.82 124.78L257.51 192.58L294.95 270.26L267.88 309.9L187.18 148.52L155.43 85.01L103.28 71.04L58.29 58.98L90.04 122.49L123.68 131.51L267.88 419.9L326.04 334.75L333.49 350.2L365.58 303.21L320.69 210.08L335.58 188.28L363.79 195.84Z" fill="#55BFDD"/>
<path d="M302.4 285.71L258.67 349.74L153.55 139.51L90.04 122.49L258.67 459.74L333.49 350.2L302.4 285.71Z" fill="white"/>
</svg>
