<svg width="600.09" height="546.11" fill="none" version="1.1" viewBox="0 0 600.09 546.11" xml:space="preserve" xmlns="http://www.w3.org/2000/svg"><g transform="translate(-34.636 -19.998)"><path id="S3-fixedColor" d="m343.18 111.36-70.963-33.44-17.016-46.794 170.88 1.0085-34.256 53.594z" fill="#b3b3b3"/><path id="S3-clip" d="m429 34.583c14.959 3.4083 40.506 8.8564 64.933 20.975 4.734 2.348 14.391 11.172 10.604 25.297-4.924 31.735-14.543 98.426-14.543 136.37 0 8.369 3.219 80.626 3.863 104.48s14.201 221.66 3.219 226.81c-10.944 5.15-106.42 15.489-159.28 15.489h-9.96c-52.867 0-148.3-10.301-159.28-15.489-10.945-5.151 2.575-202.95 3.219-226.81 0.6431-23.858 3.8621-96.077 3.8621-104.48 0-37.946-9.6191-104.6-14.542-136.37-3.787-14.126 5.87-22.949 10.604-25.297 24.426-12.118 54.344-19.882 69.303-23.328 0 0 5.4951 22.743 19.873 41.733 16.638 21.975 44.144 40.635 72.341 40.635 24.368 0 52.849-12.659 68.819-31.649 18.48-21.975 26.971-48.365 26.971-48.365z" fill="#ececec"/><path id="S3-collar" d="m257.8 21.32-20.443 5.9428 9.0331 24.722 22.82 35.419 32.091 24.484 39.698 5.4674 34.23-9.9839 29.001-24.722 22.345-36.132 6.4182-19.255-21.156-7.1314-17.591 3.328-44.69 4.992-36.37 0.71313-30.902-4.992-21.87-4.5165-1.9017 6.1805 4.9919 13.312 33.042 4.0411 53.723 3.5657 57.526-8.5576-0.4754 1.9017s-8.5576 18.304-8.7953 19.255c-0.2377 0.95085-27.099 29.476-27.099 29.476l-33.042 13.312-34.23-8.7953-25.911-21.87-13.55-24.484z" fill="#dcdddd" stroke-width="4.592"/><path id="S3-frame" d="m258.6 17.184-24.852 8.9668 0.6503 2.5059s0.475 1.7617 1.4043 4.6309c-15.838 3.7786-41.01 10.644-63.502 21.803-2.9471 1.4617-6.8182 4.5137-9.6758 9.3262-2.8576 4.8125-4.4964 11.461-2.4082 19.25l-0.0644-0.29882c4.9165 31.694 14.51 98.47 14.51 135.94 0 3.8203-0.8024 24.228-1.6875 46.32-0.88512 22.092-1.851 46.108-2.1738 58.088-0.31321 11.603-3.8697 67.259-5.9688 120.38-1.0495 26.562-1.7374 52.541-1.4727 72.281 0.13235 9.8701 0.49775 18.168 1.1973 24.295 0.34976 3.0634 0.7735 5.5732 1.3555 7.5801 0.58159 2.0056 0.98375 3.8243 3.2988 4.9121h2e-3l2e-3 2e-3c1.9219 0.9037 4.6117 1.5637 8.4512 2.3555 3.8418 0.7922 8.7133 1.6229 14.404 2.4746 11.382 1.7035 26.028 3.4819 41.984 5.0996 31.913 3.2355 69.03 5.8281 95.648 5.8281h9.959c26.618 0 63.726-2.5818 95.635-5.8125 15.954-1.6154 30.598-3.3943 41.982-5.0996 5.6922-0.85266 10.567-1.6855 14.412-2.4805 3.8427-0.79449 6.5362-1.4577 8.4629-2.3672v-2e-3c2.3153-1.0917 2.7117-2.9073 3.291-4.9121 0.5797-2.0062 1.0012-4.517 1.3496-7.5801 0.6968-6.1261 1.06-14.423 1.1914-24.293 0.2629-19.74-0.4235-45.719-1.4707-72.281-2.0942-53.124-5.6398-108.78-5.9531-120.38-0.3233-11.979-1.2886-35.987-2.1738-58.074-0.8853-22.088-1.6895-42.493-1.6895-46.334 0-37.466 9.5921-104.2 14.51-135.94l-0.062 0.29882c2.0882-7.7889 0.4494-14.438-2.4082-19.25-2.8576-4.8124-6.7307-7.8645-9.6777-9.3262-22.724-11.273-48.342-18.216-64.15-22 0.8904-2.7621 1.3379-4.4336 1.3379-4.4336l0.6503-2.5059-24.85-8.9648v0.0117-6e-3s-45.636 9.4648-75.723 9.4648c-30.086 0-75.713-9.448-75.719-9.4492zm150.18 6.0449c-0.8187 3.6039-2.027 8.0183-3.709 12.918-13.431 2.3427-48.409 7.3262-71.508 7.3262-22.184 0-55.671-4.6349-69.902-7.0527-1.7279-4.9998-2.9658-9.5069-3.7989-13.178 6.331 1.2897 45.682 9.0938 74.457 9.0938 28.776 0 68.129-7.8156 74.461-9.1074zm-154.34 1.4961c2.3082 10.216 7.2283 26.332 17.861 41.764 11.698 16.977 30.316 32.725 58.955 36.975l0.033 6e-3 0.031 4e-3c2.1513 0.26873 3.9704 0.23886 5.9863 2e-3l0.043-4e-3 0.043-8e-3c28.64-4.2502 47.256-20.009 58.953-36.99 10.632-15.434 15.553-31.547 17.861-41.748l13.805 4.9805c-1.6426 5.5152-7.3583 22.891-19.57 41.037-14.634 21.745-37.83 43.129-73.361 43.129h-1.5137c-35.532 0-58.727-21.384-73.361-43.129-12.212-18.146-17.928-35.522-19.57-41.037zm176.61 13.719c15.594 3.7327 41.321 10.738 63.486 21.734 1.787 0.8863 5.1088 3.4208 7.3164 7.1387 2.2077 3.7178 3.5055 8.5422 1.8067 14.879l-0.041 0.14844-0.023 0.15234c-4.9303 31.814-14.576 98.381-14.576 136.81 0 4.566 0.8061 24.474 1.6914 46.562 0.8852 22.088 1.8513 46.119 2.1719 57.998 0.3308 12.253 3.8666 67.426 5.957 120.45 1.0452 26.513 1.727 52.441 1.4668 71.982-0.1302 9.7707-0.4999 17.957-1.1562 23.727-0.3281 2.885-0.7377 5.1757-1.1621 6.6445-0.4234 1.4652-1.198 1.7962-0.2578 1.3535v2e-3c-0.8186 0.38671-3.5087 1.18-7.1914 1.9414-3.6826 0.76139-8.4785 1.5832-14.104 2.4258-11.25 1.6852-25.828 3.4561-41.713 5.0644-31.77 3.2168-68.814 5.7852-95.062 5.7852h-9.959c-26.248 0-63.301-2.5773-95.076-5.7988-15.888-1.6108-30.466-3.3829-41.715-5.0664-5.6244-0.84176-10.419-1.6629-14.1-2.4219s-6.3678-1.5487-7.1816-1.9316l-2e-3 -2e-3c0.93514 0.43875 0.16296 0.11093-0.26172-1.3535-0.42574-1.4681-0.83666-3.7579-1.166-6.6426-0.65872-5.7694-1.0311-13.956-1.1621-23.727-0.26203-19.541 0.42114-45.469 1.4688-71.982 2.0952-53.027 5.6399-108.2 5.9707-120.45 0.32014-11.879 1.2867-35.921 2.1719-58.014 0.88513-22.093 1.6914-41.998 1.6914-46.547 0-38.426-9.6467-105.03-14.576-136.81l-0.0234-0.15234-0.0391-0.14844c-1.6988-6.3366-0.40294-11.161 1.8047-14.879 2.2076-3.7178 5.5314-6.2524 7.3184-7.1387 21.677-10.754 47.085-17.725 62.857-21.506 3.1864 8.7021 8.8363 21.905 17.811 35.24 15.236 22.639 40.251 45.639 78.074 45.639h1.5137c37.823 0 62.838-23 78.074-45.639 9.0494-13.446 14.726-26.772 17.896-35.469zm-28.279 3.8457c-2.7199 6.7441-6.2934 13.978-11.104 20.961-11.037 16.023-28.1 30.568-55.062 34.584 0.6077-0.0835-5.4033-0.11224-4.5547 2e-3 -26.969-4.0142-44.034-18.553-55.072-34.572-4.7518-6.8962-8.2971-14.037-11.006-20.713 15.756 2.5456 46.146 6.6016 67.594 6.6016 22.267 0 53.856-4.3305 69.205-6.8633z" color="#000000" fill="#1a1a1a" stroke-miterlimit="10" style="-inkscape-stroke:none"/></g></svg>
