<svg width="600.29" height="550.19" version="1.1" viewBox="0 0 600.29 550.19" xml:space="preserve" xmlns="http://www.w3.org/2000/svg"><g transform="translate(614.63 -5.58)"><path id="S2-fixedColor" d="m-313.81 97.282-64.393-27.111-14.481-49.23h165.49l-26.844 50.412z" fill="#b3b3b3"/><path id="S2-clip" d="m-216.95 22.299c17.996 4.1285 53.078 14.341 78.798 30.779 34.318 21.93 94.676 90.303 105.63 102.16 10.919 11.855 20.679 18.887 15.619 25.78-2.777 3.75-24.959 35.477-46.607 56.726-6.811 6.666-12.835 12.411-18.428 16.085-4.68 3.03-6.665 4.4693-10.166 4.2043-3.5-0.303-33.367-30.49-38.808-36.513-11.299-12.574-20.355-20.945-24.083-19.846 0 0-1.294-1.288-1.294 7.082 0 8.371 3.234 80.638 3.881 104.5 0.647 23.862 14.319 218.03 3.285 223.18-10.996 5.151-103.5 15.771-156.61 15.771h-12.283c-53.113 0-149.52-10.582-160.56-15.771-10.995-5.151 2.655-199.32 3.302-223.18 0.647-23.861 3.881-96.09 3.881-104.5 0-8.408-2.263-9.413-2.263-9.413-3.69-1.098-14.186 8.12-24.09 20.884-5.402 6.022-22.286 25.126-26.363 28.623-3.8183 3.3087-13.436 10.139-18.116 7.0711-5.5929-3.674-14.466-10.681-21.277-17.347-21.649-21.248-45.369-52.499-48.108-56.248-5.0603-6.894 5.2777-17.115 16.197-28.97 10.92-11.855 72.161-76.786 106.52-98.716 25.834-16.476 62.213-28.278 80.133-32.369 8.1622 43.653 64.46 91.548 97.133 82.842 48.355 2.6862 83.315-55.042 86.383-63.683z" fill="#ececec"/><path id="S2-frame" d="m-413.97 15.364s0.45133 1.6899 1.3453 4.4727c-19.565 4.7849-53.107 14.344-76.86 29.631-17.482 11.26-41.073 33.485-61.846 54.465-20.772 20.98-38.63 40.694-44.025 46.604v2e-3c-5.3725 5.8862-10.981 11.636-14.784 17.07-1.9016 2.717-3.3852 5.359-4.0589 8.123-0.67356 2.764-0.35816 5.8406 1.4131 8.2754 2.7818 3.8417 24.777 33.803 46.487 55.305l2e-3 2e-3v2e-3c6.7999 6.7161 13.027 12.385 18.864 16.254h2e-3c5.3511 3.54 10.176 2.8267 13.446 2.541 1.1358-0.0992 1.5598-0.44211 2.1195-0.76953 0.55975-0.32742 1.1256-0.71997 1.7556-1.1934 1.26-0.94676 2.7601-2.2107 4.4673-3.7226 3.4144-3.024 7.6302-7.0348 11.906-11.223 8.551-8.3758 17.231-17.346 20.072-20.541 5.5557-6.2386 10.561-11.411 14.49-14.783 1.9644-1.6859 3.6719-2.9176 4.9086-3.584 0.42705-0.23014 0.26677-0.13975 0.53812-0.22461 0.10812 0.65741 0.27874 1.0409 0.27874 3.9199 0 3.838-0.79882 24.249-1.6801 46.34-0.88125 22.091-1.8426 46.1-2.164 58.082-0.31185 11.604-3.8436 67.269-5.9288 120.4-1.0425 26.566-1.725 52.55-1.4632 72.293 0.13093 9.8717 0.49261 18.17 1.1865 24.299 0.34702 3.0643 0.76751 5.5773 1.3453 7.5859 0.57744 2.0074 0.97617 3.8294 3.2789 4.9199h2e-3l2e-3 2e-3c1.9174 0.90922 4.598 1.5726 8.4236 2.3672 3.8278 0.79502 8.6813 1.6297 14.348 2.4824 11.334 1.7055 25.914 3.4821 41.799 5.0976 31.769 3.2311 68.716 5.8144 95.217 5.8144h9.1999c26.502 0 63.457-2.5923 95.231-5.8281 15.887-1.6179 30.468-3.3979 41.801-5.1016 5.6662-0.85184 10.516-1.6824 14.341-2.4746 3.8226-0.7918 6.4994-1.4521 8.4121-2.3555l4e-3 -2e-3c2.3024-1.0867 2.709-2.9119 3.2886-4.9199 0.58003-2.0093 1.0008-4.5214 1.3491-7.5859 0.69657-6.1292 1.0606-14.429 1.1924-24.301 0.2634-19.744-0.42031-45.727-1.4653-72.293-2.0898-53.132-5.6309-108.8-5.9422-120.4-0.32192-11.982-1.2826-36-2.164-58.096-0.88137-22.095-1.6801-42.509-1.6801-46.326 0-2.8691 0.17139-3.261 0.28069-3.9199 0.27372 0.0853 0.12127-6e-3 0.55359 0.22656 1.2371 0.66587 2.9429 1.8945 4.9048 3.5801 3.9236 3.3712 8.9195 8.5454 14.476 14.785l2e-3 4e-3 4e-3 2e-3c2.8459 3.1783 11.534 12.16 20.08 20.535 4.273 4.1877 8.4865 8.1987 11.898 11.223 1.7058 1.512 3.2043 2.7738 4.4634 3.7207 0.62954 0.47344 1.1941 0.86776 1.7536 1.1953 0.55955 0.32755 0.98349 0.6703 2.1195 0.76953h0.01545l0.01544 4e-3c3.2489 0.24822 8.0484 0.96382 13.4-2.5332l0.0078-6e-3 0.0078-4e-3c5.8369-3.869 12.065-9.5377 18.864-16.254l6e-3 -6e-3c21.714-21.505 43.73-51.551 46.479-55.295l4e-3 -4e-3 4e-3 -6e-3c1.771-2.4348 2.0866-5.5114 1.413-8.2754-0.67363-2.764-2.1573-5.406-4.0589-8.123-3.8032-5.434-9.413-11.186-14.786-17.072l-2e-3 -2e-3c-5.4071-5.9032-23.278-25.622-44.05-46.602-20.772-20.98-44.352-43.205-61.815-54.465-23.715-15.295-57.29-24.835-76.862-29.627 0.34004-1.7068 0.37656-2.0469 0.37656-2.0469-24.503 37.212-37.257 83.445-97.178 83.038l-2.6311 7e-3c-44.267 3.4316-72.205-33.725-97.449-84.531zm3.2228 9.8945c3.1644 8.7016 8.8052 21.974 17.782 35.373 15.171 22.644 40.076 45.646 77.729 45.646h1.5079c37.653 0 62.56-23.002 77.731-45.646 8.9765-13.398 14.618-26.669 17.782-35.371 18.441 4.5174 49.969 13.589 72.644 27.25-13.693 23.11-17.294 58.855-17.763 89.365-0.48399 31.473 2.5937 57.408 2.5937 57.408l0.18001-0.0215c-0.42623 1.469-0.61164 3.2228-0.61164 6.7266 0 4.5526 0.80251 24.459 1.6839 46.555 0.88147 22.096 1.8429 46.141 2.1621 58.021 0.32889 12.26 3.8581 67.439 5.9442 120.47 1.043 26.517 1.724 52.448 1.4633 71.99-0.13042 9.7714-0.50192 17.958-1.1575 23.727-0.32773 2.8842-0.73624 5.1726-1.1594 6.6387-0.42003 1.4551-1.1668 1.7756-0.25939 1.3476-0.81211 0.38367-3.486 1.1746-7.15 1.9336-3.6649 0.75914-8.4387 1.58-14.039 2.4219-11.2 1.6838-25.717 3.4554-41.536 5.0664-31.637 3.2219-68.527 5.8008-94.661 5.8008h-9.1998c-26.135 0-63.016-2.568-94.648-5.7852-15.816-1.6086-30.33-3.3809-41.532-5.0664-5.6006-0.84275-10.376-1.6642-14.043-2.4258-3.6667-0.76158-6.3457-1.5562-7.1616-1.9434h-4e-3l-2e-3 -2e-3c0.94431 0.44639 0.17217 0.12299-0.24974-1.3438-0.42188-1.4667-0.83082-3.758-1.1575-6.6426-0.65322-5.7691-1.0202-13.955-1.1497-23.727-0.25908-19.543 0.41879-45.473 1.4594-71.99 2.0813-53.034 5.6012-108.21 5.9306-120.47 0.31876-11.88 1.2808-35.915 2.1621-58.006 0.88135-22.091 1.684-42 1.684-46.57 0-4.3508-0.14615-6.1959-0.88842-7.8633-0.0412-0.0936-0.16504-0.19292-0.2245-0.29102 0.4129-3.6873 2.8881-26.996 2.4427-55.959-0.46671-30.35-4.0373-65.878-17.554-88.998 22.742-13.865 54.675-23.07 73.267-27.619zm270 30.248c16.44 11.047 39.122 32.298 59.086 52.461 20.666 20.873 38.446 40.49 43.897 46.441 5.4478 5.9682 10.961 11.691 14.321 16.492 1.6804 2.401 2.7897 4.5673 3.186 6.1934 0.39579 1.624 0.25758 2.5207-0.47615 3.5312-9.64e-4 1e-3 -9.44e-4 3e-3 -2e-3 4e-3 -2.7662 3.767-24.701 33.622-45.891 54.607-6.6911 6.6089-12.748 12.07-17.993 15.549h-2e-3c-3.9017 2.5489-6.1946 1.9186-9.8502 1.6348 0.52681 0.0568 0.45321 0.12195 0.21484-0.0176-0.25773-0.15087-0.69134-0.44319-1.2136-0.83594-1.0445-0.78549-2.4681-1.9769-4.1092-3.4316-3.2823-2.9095-7.4567-6.8797-11.691-11.029-8.4663-8.2972-17.27-17.414-19.818-20.26l-4e-3 -6e-3c-5.6398-6.3328-10.727-11.629-15.012-15.311-2.1434-1.8416-4.0744-3.2838-5.9093-4.2715-1.0735-0.57784-2.1952-0.87548-3.3506-1.002-0.59251-5.528-2.7241-27.312-2.3091-54.293 0.46238-30.066 4.429-65.216 16.927-86.457zm-348.06 0.41601c12.309 21.281 16.233 56.168 16.692 86.041 0.41688 27.106-1.7369 48.973-2.3169 54.365-0.85271 0.19051-1.6847 0.49307-2.4949 0.92969-1.8318 0.98712-3.764 2.4283-5.9094 4.2695-4.2908 3.6824-9.3908 8.9819-15.034 15.318v2e-3c-2.5139 2.8272-11.33 11.959-19.803 20.258-4.2364 4.1494-8.4135 8.1179-11.699 11.027-1.6426 1.4547-3.0675 2.648-4.1132 3.4336-0.52275 0.3928-0.95551 0.68493-1.2136 0.83593-0.25806 0.151-0.47187 0.0809 0.23034 0.0195-3.6665 0.32026-5.9314 0.96906-9.854-1.625l-2e-3 -2e-3c-5.2472-3.4785-11.31-8.945-18.007-15.559-21.196-20.992-43.236-50.942-45.887-54.604v-6e-3c-0.73627-1.0122-0.8743-1.9071-0.47809-3.5332 0.39637-1.6261 1.5056-3.7924 3.186-6.1934 3.3607-4.802 8.8744-10.526 14.323-16.496 5.4268-5.9451 23.2-25.565 43.866-46.438 19.726-19.923 42.105-40.889 58.513-52.045z" color="#000000" fill="#1a1a1a" stroke="#1a1a1a" stroke-miterlimit="10" stroke-width=".2"/><path id="S2-collar" d="m-390.05 8.7096c-1.419 0.4841 2.8877 16.007 3.1653 18.543-0.74463-0.98866-4.8182-16.92-5.0131-17.888l-19.402 6.9687s23.171 88.779 96.867 88.779h1.5215c73.697 0 96.867-88.779 96.867-88.779l-19.404-6.9687c-0.13574 0.67292-3.752 16.384-4.8027 17.115 0.91599-1.7501 4.5547-17.586 3.1133-17.857-52.416 10.404-101.44 10.574-152.91 0.0875zm149.8 17.981c-8.281 23.343-25.744 55.975-68.991 62.364-0.647 0.0758-6.4868 0.0758-7.0958 0-42.518-6.2813-61.821-38.049-70.33-61.309 47.071 8.6307 97.47 6.6898 146.42-1.0549z" fill="#dcdddd" stroke="#1a1a1a" stroke-width="5.6797"/></g></svg>
