<svg width="134" height="155" viewBox="0 0 134 155" fill="none" xmlns="http://www.w3.org/2000/svg">
<path d="M24.8394 16.2791H43.4395V113" stroke="white" stroke-width="4.5" stroke-miterlimit="10"/>
<path d="M109.16 16.2788H68.5498V108.66H109.16V16.2788Z" stroke="white" stroke-width="4.5" stroke-miterlimit="10"/>
<path d="M7.47937 153.336C4.11937 153.336 1.38337 150.504 1.38337 144.504C1.38337 137.736 4.55137 135.024 8.05537 135.024C10.0234 135.024 11.4634 135.84 12.4714 136.92L10.9594 138.6C10.3114 137.832 9.23137 137.28 8.19937 137.28C5.84737 137.28 3.95137 139.104 3.95137 144.504C3.95137 149.064 5.29537 151.2 7.45537 151.2C8.99137 151.2 10.1914 149.808 10.1914 147.528C10.1914 145.248 9.15937 143.976 7.28737 143.976C6.23137 143.976 4.95937 144.6 3.90337 146.208L3.78337 144.192C4.81537 142.8 6.44737 141.984 7.76737 141.984C10.7434 141.984 12.7594 143.784 12.7594 147.528C12.7594 151.032 10.3354 153.336 7.47937 153.336ZM17.9629 153.252C17.3149 153.252 16.7929 152.73 16.7929 151.992C16.7929 151.236 17.3149 150.732 17.9629 150.732C18.6289 150.732 19.1689 151.236 19.1689 151.992C19.1689 152.73 18.6289 153.252 17.9629 153.252ZM32.2786 151.542H37.1746V152.856H32.2786V151.542ZM22.3426 141.3H29.2546V142.614H22.3426V141.3ZM31.6666 140.13H37.8226V154.044H36.4546V141.426H32.9806V154.17H31.6666V140.13ZM28.8946 141.3H30.2086C30.2086 141.3 30.2086 141.804 30.2086 141.984C30.0646 149.994 29.9386 152.622 29.3626 153.414C29.0386 153.882 28.7146 154.044 28.1746 154.098C27.6706 154.17 26.8426 154.17 26.0326 154.116C26.0146 153.72 25.8706 153.126 25.6366 152.748C26.4826 152.82 27.2566 152.82 27.5986 152.82C27.8686 152.838 28.0306 152.784 28.1926 152.55C28.6066 151.992 28.7686 149.328 28.8946 141.624V141.3ZM24.8986 138.132H26.2126C26.1946 144.774 26.1046 151.02 22.9366 154.458C22.7026 154.152 22.2346 153.738 21.8926 153.54C24.8986 150.372 24.8806 144.432 24.8986 138.132ZM44.3746 138.978H49.4686V140.346H44.3746V138.978ZM48.7846 138.978H50.1706C50.1706 142.2 50.5666 149.04 57.6766 153.252C57.3706 153.486 56.8306 154.062 56.5786 154.386C49.3786 150.03 48.7846 142.362 48.7846 138.978ZM48.2806 142.506L49.8106 142.794C48.5146 148.284 46.1386 152.082 42.1606 154.422C41.9086 154.134 41.2966 153.576 40.9366 153.324C44.9326 151.236 47.1826 147.6 48.2806 142.506ZM65.9566 141.03H76.4326V142.272H65.9566V141.03ZM70.3846 137.898H71.6986V152.766C71.6986 153.576 71.4826 153.972 70.9786 154.188C70.4566 154.422 69.6466 154.458 68.2066 154.458C68.1526 154.116 67.9186 153.522 67.7206 153.162C68.7826 153.198 69.7006 153.18 69.9886 153.18C70.2586 153.162 70.3846 153.072 70.3846 152.766V137.898ZM65.2546 151.47C66.5506 150.426 68.6926 148.554 70.6186 146.79L71.1046 147.762C69.4126 149.49 67.5406 151.29 66.1006 152.64L65.2546 151.47ZM66.2266 143.892L67.2886 143.406C68.0806 144.432 68.9446 145.836 69.2686 146.754L68.1526 147.294C67.8466 146.376 67.0186 144.954 66.2266 143.892ZM75.0106 143.298L76.1806 143.928C75.1906 145.296 73.9306 146.934 72.9046 147.96L71.9686 147.402C72.9406 146.34 74.2726 144.576 75.0106 143.298ZM72.5626 138.798L73.3546 138.096C74.1286 138.618 75.0646 139.428 75.5146 139.986L74.7046 140.796C74.2546 140.184 73.3546 139.356 72.5626 138.798ZM71.6446 142.578C72.3286 147.384 73.6246 149.94 76.7206 152.118C76.4146 152.37 76.0546 152.784 75.8746 153.162C72.5986 150.732 71.2486 147.888 70.5106 142.776L71.6446 142.578ZM59.9986 139.104H65.5426V140.382H59.9986V139.104ZM60.1426 144.306H65.2546V145.584H60.1426V144.306ZM59.7826 151.254C61.2766 150.858 63.5086 150.156 65.6866 149.472L65.8846 150.714C63.8506 151.362 61.7266 152.046 60.0886 152.568L59.7826 151.254ZM62.1766 139.68H63.4366V150.822L62.1766 151.074V139.68ZM79.1686 140.814H95.0086V142.11H79.1686V140.814ZM93.4426 143.658L94.5766 144.468C93.2446 145.908 91.4446 147.564 90.0226 148.644L89.0506 147.834C90.4366 146.79 92.3266 145.026 93.4426 143.658ZM88.2226 141.48C89.0686 146.7 90.7066 150.048 95.4766 152.802C95.1166 153.072 94.6846 153.576 94.5226 153.99C89.5186 150.84 87.8626 147.186 86.9626 141.714L88.2226 141.48ZM86.4406 141.156L87.8086 141.678C85.9726 144.522 82.8406 147.168 79.4386 148.752C79.2946 148.428 78.9166 147.87 78.6826 147.6C81.8866 146.178 84.9826 143.658 86.4406 141.156ZM82.4986 154.404L82.3906 153.144L83.0566 152.604L89.0326 150.768C89.0866 151.164 89.2306 151.704 89.3386 152.01C83.6686 153.81 82.9666 154.062 82.4986 154.404ZM85.8286 138.222L87.1786 137.808C87.6826 138.618 88.2046 139.716 88.3846 140.418L86.9626 140.904C86.7826 140.166 86.2966 139.05 85.8286 138.222ZM82.4986 154.404C82.3726 154.098 82.0126 153.576 81.7786 153.324C82.1206 153.108 82.7506 152.604 82.7506 151.74V145.386H84.1186V152.766C84.1186 152.766 82.4986 153.864 82.4986 154.404ZM99.5986 139.698V142.398H102.695V139.698H99.5986ZM98.5726 138.672H103.775V143.424H98.5726V138.672ZM97.7086 144.846H104.207V146.034H97.7086V144.846ZM99.4006 145.35H100.571C100.355 146.556 100.031 148.032 99.7786 148.968H98.5906C98.8786 147.978 99.2026 146.502 99.4006 145.35ZM99.5266 147.87H102.785V148.968H99.2386L99.5266 147.87ZM102.317 147.87H103.505C103.505 147.87 103.487 148.23 103.469 148.41C103.199 151.92 102.965 153.27 102.479 153.774C102.191 154.098 101.921 154.206 101.435 154.242C101.075 154.278 100.355 154.278 99.6346 154.224C99.6166 153.882 99.5086 153.396 99.3106 153.09C100.013 153.144 100.679 153.162 100.949 153.162C101.219 153.162 101.381 153.126 101.507 152.982C101.849 152.64 102.083 151.38 102.317 148.068V147.87ZM109.157 139.122H113.477V140.238H109.157V139.122ZM105.611 141.462H113.495V142.56H105.611V141.462ZM104.999 141.462H106.187V146.052C106.187 148.554 105.953 152.082 104.351 154.476C104.153 154.242 103.649 153.882 103.361 153.738C104.837 151.488 104.999 148.356 104.999 146.052V141.462ZM106.565 144.36L111.983 143.82L112.091 144.774L106.691 145.332L106.565 144.36ZM113.135 141.462H113.315L113.531 141.408L114.359 141.624C114.143 142.686 113.837 143.946 113.603 144.738L112.577 144.486C112.775 143.748 113.009 142.578 113.135 141.624V141.462ZM107.627 148.302H108.779C108.671 151.2 108.203 153.234 106.241 154.44C106.097 154.152 105.755 153.738 105.485 153.54C107.177 152.55 107.519 150.804 107.627 148.302ZM110.309 148.302H111.461V152.478C111.461 152.604 111.479 152.73 111.605 152.766C111.677 152.838 111.821 152.856 111.983 152.856C112.127 152.856 112.397 152.856 112.595 152.856C112.775 152.856 112.991 152.838 113.081 152.766C113.171 152.712 113.279 152.568 113.315 152.388C113.351 152.1 113.387 151.398 113.369 150.57C113.603 150.786 114.035 151.038 114.377 151.128C114.359 151.974 114.287 152.874 114.197 153.198C114.089 153.522 113.909 153.738 113.657 153.882C113.423 153.99 113.027 154.062 112.703 154.062C112.469 154.062 111.911 154.062 111.731 154.062C111.335 154.062 110.921 153.99 110.669 153.774C110.381 153.54 110.309 153.27 110.309 152.46V148.302ZM108.545 137.88H109.841V142.038H108.545V137.88ZM108.473 142.668H109.643V145.728C109.643 146.178 109.697 146.34 110.075 146.34C110.363 146.34 111.695 146.34 112.001 146.34C112.325 146.34 112.865 146.322 113.099 146.25C113.135 146.592 113.171 146.97 113.225 147.258C112.973 147.348 112.505 147.366 112.055 147.366C111.695 147.366 110.165 147.366 109.877 147.366C108.725 147.366 108.473 146.862 108.473 145.692V142.668ZM116.753 138.744H123.359V139.986H116.753V138.744ZM118.607 144.36H122.693V152.136H118.607V150.948H121.487V145.548H118.607V144.36ZM118.931 139.338L120.227 139.536C119.669 143.316 118.751 146.862 117.113 149.22C116.987 148.932 116.573 148.284 116.321 147.996C117.743 145.944 118.499 142.722 118.931 139.338ZM118.013 144.36H119.201V153.63H118.013V144.36ZM124.799 141.48H132.089V142.578H124.799V141.48ZM124.799 144.252H132.089V145.368H124.799V144.252ZM124.133 147.078H132.035V148.266H124.133V147.078ZM127.859 139.266H129.083V147.582H127.859V139.266ZM125.627 149.706L126.563 149.562C126.779 150.642 126.905 151.992 126.887 152.874L125.897 153.036C125.933 152.136 125.825 150.768 125.627 149.706ZM127.535 149.562L128.417 149.328C128.795 150.192 129.137 151.344 129.281 152.082L128.345 152.352C128.237 151.614 127.895 150.444 127.535 149.562ZM129.353 149.166L130.073 148.86C130.595 149.508 131.117 150.408 131.351 150.966L130.541 151.344C130.325 150.75 129.821 149.85 129.353 149.166ZM123.881 149.148L124.907 149.4C124.727 150.966 124.385 152.64 123.521 153.63L122.567 153.09C123.359 152.19 123.719 150.624 123.881 149.148ZM124.133 138.654H132.539V139.842H125.375V147.672H124.133V138.654ZM131.639 147.078H132.881C132.881 147.078 132.881 147.456 132.863 147.636C132.665 151.866 132.467 153.414 131.999 153.936C131.711 154.278 131.405 154.404 130.919 154.44C130.505 154.476 129.731 154.476 128.939 154.44C128.921 154.08 128.795 153.594 128.597 153.252C129.371 153.324 130.091 153.342 130.361 153.342C130.649 153.342 130.793 153.306 130.937 153.144C131.261 152.784 131.477 151.308 131.639 147.294V147.078Z" fill="white"/>
</svg>
