<svg width="138" height="154" viewBox="0 0 138 154" fill="none" xmlns="http://www.w3.org/2000/svg">
<path d="M69.1551 21.2996C82.4852 21.2996 88.9953 3.00947 88.9953 3.00947C88.9953 3.00947 107.285 7.34951 112.556 11.9995C117.826 16.6496 134.876 36.1798 134.876 36.1798L116.896 53.2299C116.896 53.2299 109.765 46.7199 108.525 45.4799C106.045 42.6898 104.185 40.8298 103.255 41.1398C103.255 41.1398 102.945 40.8298 102.945 42.6898C102.945 44.5499 103.565 60.05 103.875 65.32C103.875 70.5901 106.975 113.06 104.495 114.3H33.8148C31.3348 113.06 34.4348 70.5901 34.4348 65.32C34.4348 60.05 35.3648 44.5499 35.3648 42.6898C35.3648 40.8298 35.0548 41.1398 35.0548 41.1398C34.1248 40.8298 32.2648 42.6898 29.7848 45.4799C28.5447 46.7199 21.4147 53.2299 21.4147 53.2299L3.12451 35.8698C3.12451 35.8698 20.1747 16.3396 25.4447 11.6895C30.7148 7.0395 49.0049 2.69946 49.0049 2.69946C49.0049 2.69946 55.825 21.2996 69.1551 21.2996Z" stroke="white" stroke-width="3.5" stroke-miterlimit="10"/>
<path d="M4.15137 152.301V150.021H8.03937V137.733H4.84737V135.981C6.52737 135.693 7.67937 135.261 8.71137 134.637H10.7994V150.021H14.2554V152.301H4.15137ZM19.9629 152.553C19.3149 152.553 18.7929 152.031 18.7929 151.293C18.7929 150.537 19.3149 150.033 19.9629 150.033C20.6289 150.033 21.1689 150.537 21.1689 151.293C21.1689 152.031 20.6289 152.553 19.9629 152.553ZM29.4186 144.867H39.8766V145.911H29.4186V144.867ZM28.6626 147.585H40.4526V148.629H28.6626V147.585ZM31.9206 143.571H33.1806V148.161H31.9206V143.571ZM35.9886 143.571H37.2486V148.161H35.9886V143.571ZM35.5206 149.385L36.4206 148.773C37.7706 149.403 39.2826 150.249 40.1466 150.915L38.9586 151.545C38.1846 150.861 36.8346 150.015 35.5206 149.385ZM32.5146 148.791L33.7206 149.205C32.7666 150.105 31.2906 151.023 30.0666 151.581C29.8146 151.365 29.3286 150.951 29.0226 150.753C30.2826 150.267 31.6686 149.529 32.5146 148.791ZM29.8146 137.901H34.0986V140.961H29.8146V140.025H32.9286V138.819H29.8146V137.901ZM35.5566 137.919H39.9306V140.979H35.5566V140.043H38.7426V138.837H35.5566V137.919ZM35.0346 137.919H36.1506V141.591C36.1506 142.095 36.2226 142.257 36.6366 142.257C36.9966 142.257 38.7066 142.257 39.0666 142.257C39.4086 142.257 39.9486 142.239 40.2546 142.185C40.2726 142.473 40.3086 142.887 40.3626 143.157C40.0926 143.211 39.6066 143.247 39.1206 143.247C38.7066 143.247 36.8706 143.247 36.5826 143.247C35.3406 143.247 35.0346 142.797 35.0346 141.573V137.919ZM29.3106 143.697L29.2746 142.815L29.8326 142.437L34.2606 141.735C34.2066 142.023 34.1526 142.473 34.1526 142.707C30.1566 143.427 29.6166 143.535 29.3106 143.697ZM29.3106 143.697C29.2386 143.409 28.9866 142.887 28.8246 142.617C29.0406 142.509 29.2926 142.275 29.2926 141.591V137.901H30.3906V142.689C30.3906 142.689 29.3106 143.301 29.3106 143.697ZM24.5946 137.901L25.5846 137.289C26.4126 138.171 27.4206 139.323 27.9246 140.043L26.8626 140.781C26.3946 140.043 25.3866 138.783 24.5946 137.901ZM24.2346 141.357H27.5106V142.491H24.2346V141.357ZM27.3306 149.601C28.4466 151.959 30.8226 152.283 34.4406 152.283C36.3486 152.283 39.0126 152.193 40.8666 152.031C40.6506 152.337 40.4886 152.967 40.4166 153.345C38.7066 153.435 36.4206 153.489 34.4226 153.489C30.1746 153.489 27.7986 153.003 26.4306 150.015L27.3306 149.601ZM27.3126 145.839H27.6366L27.8706 145.803L28.5546 146.055C27.9966 149.835 26.6466 152.391 24.8106 153.795C24.6306 153.507 24.1806 153.057 23.9106 152.859C25.6566 151.617 26.8626 149.313 27.3126 146.073V145.839ZM24.5226 147.189V146.163L25.1706 145.839H27.6726V146.937H25.5486C25.1346 146.937 24.6666 147.063 24.5226 147.189ZM24.5226 147.189C24.4506 146.883 24.1806 146.253 24.0366 145.983C24.2886 145.911 24.5586 145.803 24.8286 145.443C25.2966 144.939 26.7186 142.419 27.2046 141.483V141.429L27.5826 141.267L28.4826 141.609C27.7806 142.833 26.3946 145.209 25.5306 146.343C25.5306 146.343 24.5226 146.829 24.5226 147.189ZM56.0046 138.837V140.727H57.8406V138.837H56.0046ZM53.1246 138.837V140.727H54.9246V138.837H53.1246ZM50.3166 138.837V140.727H52.0446V138.837H50.3166ZM49.2186 137.847H58.9746V141.699H49.2186V137.847ZM49.4166 142.761H58.6146V143.805H49.4166V142.761ZM48.6246 145.083H59.1906V146.145H48.6246V145.083ZM49.0026 147.855H58.8126V148.917H49.0026V147.855ZM48.3906 150.213H59.4426V151.275H48.3906V150.213ZM53.3046 141.393H54.5826V145.497H53.3046V141.393ZM53.3046 148.323H54.5826V153.741H53.3046V148.323ZM50.7666 146.397L51.9006 146.127C52.1706 146.649 52.4946 147.351 52.6206 147.801L51.4506 148.143C51.3426 147.657 51.0546 146.937 50.7666 146.397ZM56.1126 146.091L57.3906 146.433C56.9766 147.153 56.5626 147.927 56.2026 148.449L55.1946 148.125C55.5006 147.549 55.9146 146.685 56.1126 146.091ZM42.9186 146.487C44.2506 146.109 46.2486 145.479 48.1926 144.849L48.3726 146.073C46.5906 146.703 44.7186 147.315 43.2606 147.801L42.9186 146.487ZM43.1166 140.817H48.3726V142.077H43.1166V140.817ZM45.2946 137.199H46.5546V152.103C46.5546 152.823 46.3746 153.201 45.9246 153.417C45.5106 153.633 44.8086 153.669 43.6746 153.669C43.6206 153.327 43.4586 152.769 43.2786 152.391C44.0706 152.427 44.7546 152.427 44.9706 152.409C45.1866 152.409 45.2946 152.337 45.2946 152.103V137.199ZM62.2686 140.115H78.1086V141.411H62.2686V140.115ZM76.5426 142.959L77.6766 143.769C76.3446 145.209 74.5446 146.865 73.1226 147.945L72.1506 147.135C73.5366 146.091 75.4266 144.327 76.5426 142.959ZM71.3226 140.781C72.1686 146.001 73.8066 149.349 78.5766 152.103C78.2166 152.373 77.7846 152.877 77.6226 153.291C72.6186 150.141 70.9626 146.487 70.0626 141.015L71.3226 140.781ZM69.5406 140.457L70.9086 140.979C69.0726 143.823 65.9406 146.469 62.5386 148.053C62.3946 147.729 62.0166 147.171 61.7826 146.901C64.9866 145.479 68.0826 142.959 69.5406 140.457ZM65.5986 153.705L65.4906 152.445L66.1566 151.905L72.1326 150.069C72.1866 150.465 72.3306 151.005 72.4386 151.311C66.7686 153.111 66.0666 153.363 65.5986 153.705ZM68.9286 137.523L70.2786 137.109C70.7826 137.919 71.3046 139.017 71.4846 139.719L70.0626 140.205C69.8826 139.467 69.3966 138.351 68.9286 137.523ZM65.5986 153.705C65.4726 153.399 65.1126 152.877 64.8786 152.625C65.2206 152.409 65.8506 151.905 65.8506 151.041V144.687H67.2186V152.067C67.2186 152.067 65.5986 153.165 65.5986 153.705ZM88.9266 138.279H97.0986V139.557H88.9266V138.279ZM88.9806 142.941H95.8926V144.183H88.9806V142.941ZM88.2786 138.279H89.5746V143.355C89.5746 146.397 89.2506 150.789 87.0726 153.705C86.8566 153.453 86.2986 153.039 85.9926 152.895C88.0626 150.123 88.2786 146.217 88.2786 143.337V138.279ZM90.7626 143.769C91.8426 147.855 94.0746 151.239 97.5666 152.661C97.2606 152.931 96.8466 153.435 96.6486 153.777C93.0486 152.103 90.8166 148.539 89.6286 144.039L90.7626 143.769ZM95.6046 142.941H95.8386L96.0726 142.887L96.9006 143.157C95.8746 148.647 93.0126 152.049 89.5206 153.723C89.3406 153.417 88.9806 152.913 88.6926 152.661C91.9146 151.293 94.6866 147.927 95.6046 143.193V142.941ZM81.0066 141.051H87.3426V142.329H81.0066V141.051ZM83.7246 137.181H85.0026V153.723H83.7246V137.181ZM83.6526 141.843L84.5166 142.149C83.9226 145.029 82.6266 148.557 81.2766 150.375C81.1326 150.015 80.8086 149.475 80.5746 149.169C81.8526 147.549 83.1126 144.435 83.6526 141.843ZM84.9126 143.787C85.3806 144.291 87.1086 146.487 87.4686 147.027L86.6406 148.089C86.1906 147.189 84.7866 145.137 84.2466 144.417L84.9126 143.787ZM105.613 148.575H108.799V149.547H105.613V148.575ZM107.035 146.559H111.049V147.567H107.035V146.559ZM106.153 139.251H115.945V140.277H106.153V139.251ZM105.703 143.589H116.161V144.651H105.703V143.589ZM106.909 141.411H115.387V142.401H106.909V141.411ZM110.329 139.791H111.625V144.057H110.329V139.791ZM110.347 146.559H111.607V152.391C111.607 153.039 111.499 153.381 111.013 153.561C110.545 153.759 109.789 153.777 108.673 153.777C108.619 153.453 108.457 152.967 108.295 152.643C109.105 152.661 109.843 152.661 110.059 152.643C110.275 152.643 110.347 152.589 110.347 152.391V146.559ZM108.889 145.281L109.573 144.489C110.923 144.849 112.705 145.515 113.659 146.073L112.939 146.937C112.039 146.397 110.275 145.695 108.889 145.281ZM107.503 137.595L108.511 137.181C108.961 137.757 109.447 138.531 109.681 139.053L108.619 139.521C108.403 138.999 107.935 138.189 107.503 137.595ZM108.511 148.575H108.727L108.943 148.539L109.681 148.827C109.015 151.041 107.485 152.553 105.775 153.345C105.613 153.075 105.289 152.661 105.037 152.445C106.549 151.833 108.007 150.483 108.511 148.773V148.575ZM114.919 147.099L115.927 147.855C114.955 148.665 113.767 149.583 112.849 150.159L112.111 149.565C112.993 148.917 114.235 147.855 114.919 147.099ZM113.263 137.181L114.469 137.559C114.001 138.279 113.533 138.999 113.137 139.503L112.165 139.143C112.543 138.603 113.011 137.757 113.263 137.181ZM111.571 147.531C112.453 149.637 114.307 151.437 116.503 152.211C116.233 152.445 115.855 152.895 115.675 153.237C113.461 152.247 111.625 150.213 110.689 147.819L111.571 147.531ZM99.9246 141.087H105.775V142.365H99.9246V141.087ZM102.463 137.181H103.705V153.723H102.463V137.181ZM102.427 141.843L103.255 142.131C102.697 144.975 101.509 148.521 100.249 150.321C100.105 149.979 99.7806 149.457 99.5646 149.169C100.753 147.549 101.923 144.417 102.427 141.843ZM103.615 143.373C104.011 143.877 105.541 146.181 105.883 146.721L105.127 147.729C104.713 146.811 103.453 144.651 103.003 143.949L103.615 143.373ZM130.651 138.081L131.551 137.307C132.487 137.937 133.621 138.873 134.179 139.503L133.225 140.349C132.685 139.701 131.587 138.729 130.651 138.081ZM118.879 140.547H134.917V141.861H118.879V140.547ZM119.491 144.561H127.447V145.875H119.491V144.561ZM122.731 145.263H124.081V151.689H122.731V145.263ZM118.951 151.869C121.093 151.455 124.621 150.735 127.951 150.015L128.059 151.221C124.981 151.941 121.687 152.697 119.365 153.219L118.951 151.869ZM128.041 137.271H129.481C129.427 145.623 131.047 152.373 133.261 152.373C133.765 152.373 133.981 151.383 134.089 148.971C134.395 149.277 134.917 149.583 135.295 149.709C135.061 152.859 134.539 153.777 133.153 153.777C129.571 153.777 128.113 145.983 128.041 137.271Z" fill="white"/>
</svg>
