<svg width="134" height="155" viewBox="0 0 134 155" fill="none" xmlns="http://www.w3.org/2000/svg">
<path d="M114.895 17.7493H19.1045V103H114.895V17.7493Z" stroke="white" stroke-width="3.5" stroke-miterlimit="10"/>
<path d="M29.0254 102.691L84.5159 48.75L113.966 77.8903" stroke="white" stroke-width="3.5" stroke-miterlimit="10"/>
<path d="M42.354 48.4393C46.9766 48.4393 50.724 44.6918 50.724 40.0692C50.724 35.4465 46.9766 31.6991 42.354 31.6991C37.7313 31.6991 33.9839 35.4465 33.9839 40.0692C33.9839 44.6918 37.7313 48.4393 42.354 48.4393Z" fill="white"/>
<path d="M6.54337 153.336C3.75937 153.336 2.00737 152.208 0.735366 150.96L2.07937 149.16C3.06337 150.168 4.35937 151.056 6.20737 151.056C8.19937 151.056 9.68737 149.64 9.68737 147.288C9.68737 144.96 8.34337 143.616 6.32737 143.616C5.22337 143.616 4.55137 143.928 3.51937 144.6L2.15137 143.736L2.67937 135.336H11.6554V137.688H5.10337L4.69537 142.2C5.43937 141.816 6.15937 141.6 7.11937 141.6C10.0714 141.6 12.4954 143.328 12.4954 147.216C12.4954 151.104 9.61537 153.336 6.54337 153.336ZM17.9629 153.252C17.3149 153.252 16.7929 152.73 16.7929 151.992C16.7929 151.236 17.3149 150.732 17.9629 150.732C18.6289 150.732 19.1689 151.236 19.1689 151.992C19.1689 152.73 18.6289 153.252 17.9629 153.252ZM32.2786 151.542H37.1746V152.856H32.2786V151.542ZM22.3426 141.3H29.2546V142.614H22.3426V141.3ZM31.6666 140.13H37.8226V154.044H36.4546V141.426H32.9806V154.17H31.6666V140.13ZM28.8946 141.3H30.2086C30.2086 141.3 30.2086 141.804 30.2086 141.984C30.0646 149.994 29.9386 152.622 29.3626 153.414C29.0386 153.882 28.7146 154.044 28.1746 154.098C27.6706 154.17 26.8426 154.17 26.0326 154.116C26.0146 153.72 25.8706 153.126 25.6366 152.748C26.4826 152.82 27.2566 152.82 27.5986 152.82C27.8686 152.838 28.0306 152.784 28.1926 152.55C28.6066 151.992 28.7686 149.328 28.8946 141.624V141.3ZM24.8986 138.132H26.2126C26.1946 144.774 26.1046 151.02 22.9366 154.458C22.7026 154.152 22.2346 153.738 21.8926 153.54C24.8986 150.372 24.8806 144.432 24.8986 138.132ZM44.3746 138.978H49.4686V140.346H44.3746V138.978ZM48.7846 138.978H50.1706C50.1706 142.2 50.5666 149.04 57.6766 153.252C57.3706 153.486 56.8306 154.062 56.5786 154.386C49.3786 150.03 48.7846 142.362 48.7846 138.978ZM48.2806 142.506L49.8106 142.794C48.5146 148.284 46.1386 152.082 42.1606 154.422C41.9086 154.134 41.2966 153.576 40.9366 153.324C44.9326 151.236 47.1826 147.6 48.2806 142.506ZM75.0646 143.01L75.9466 143.892C74.7406 144.864 73.1206 145.908 71.8786 146.592L71.1586 145.8C72.3826 145.116 74.0746 143.91 75.0646 143.01ZM67.1446 138.654L68.1526 138.006C69.0166 138.672 69.9166 139.608 70.3486 140.274L69.2866 141.012C68.8726 140.346 67.9726 139.338 67.1446 138.654ZM65.6866 140.922H76.3066V142.128L65.6866 142.11V140.922ZM70.6186 145.026L71.4826 145.62C70.4026 146.664 68.3506 147.996 66.8746 148.752C66.6946 148.446 66.3706 147.996 66.1006 147.762C67.5766 147.186 69.5926 146.016 70.6186 145.026ZM71.3926 147.456L72.2926 148.068C70.9606 149.58 68.4046 151.218 66.3166 152.028C66.1366 151.722 65.8126 151.29 65.5246 151.038C67.6126 150.39 70.1506 148.86 71.3926 147.456ZM73.3906 137.898L74.6866 138.33C74.0206 139.392 73.1926 140.598 72.5266 141.354L71.4286 140.958C72.0946 140.148 72.9406 138.834 73.3906 137.898ZM60.6286 138.672H64.8766V139.896H61.8526V154.458H60.6286V138.672ZM64.4626 138.672H64.6966L64.9126 138.618L65.7766 139.14C65.2546 140.616 64.5886 142.47 63.9766 143.91C65.3086 145.404 65.5966 146.664 65.5966 147.78C65.5966 148.752 65.3986 149.508 64.8946 149.868C64.6426 150.03 64.3186 150.138 63.9586 150.192C63.5986 150.228 63.1486 150.228 62.7346 150.21C62.7166 149.886 62.6086 149.364 62.4106 149.022C62.8246 149.058 63.1666 149.076 63.4546 149.04C63.6706 149.04 63.8686 148.986 64.0126 148.878C64.3006 148.68 64.3906 148.194 64.3906 147.654C64.3906 146.682 64.0666 145.458 62.7706 144.054C63.4186 142.416 64.0846 140.274 64.4626 139.032V138.672ZM70.4026 141.354L71.5366 141.786C70.2406 143.424 68.1166 144.9 66.2086 145.836C66.0646 145.584 65.6686 145.08 65.3986 144.846C67.2886 144.072 69.2686 142.794 70.4026 141.354ZM73.5166 145.512C74.1646 147.618 75.4426 149.886 76.6846 151.056C76.4146 151.254 76.0006 151.65 75.7846 151.938C74.5066 150.624 73.1926 148.14 72.4726 145.872L73.5166 145.512ZM69.0706 143.136L70.0606 142.596C73.4446 146.052 73.2826 152.154 71.6986 153.486C71.1946 154.008 70.6906 154.188 69.9166 154.206C69.5926 154.206 68.9806 154.188 68.4946 154.152C68.4766 153.792 68.3686 153.27 68.1526 152.91C68.7286 152.982 69.3406 153 69.6826 153C70.1146 153 70.4206 152.928 70.7266 152.604C71.8426 151.632 72.1306 146.34 69.0706 143.136ZM85.7206 137.898H86.8546V142.506H85.7206V137.898ZM83.3446 139.104H84.3166V141.786H88.2586V139.122H89.2666V142.884H83.3446V139.104ZM83.0746 143.856H89.0326V144.954H83.0746V143.856ZM85.8466 149.832H86.9446V153.252C86.9446 153.756 86.8546 154.008 86.4946 154.17C86.1166 154.332 85.6126 154.332 84.8026 154.332C84.7306 154.062 84.5506 153.684 84.4066 153.432C84.9646 153.45 85.4686 153.45 85.6306 153.432C85.7926 153.432 85.8466 153.378 85.8466 153.234V149.832ZM87.5926 151.146L88.4386 150.75C88.9606 151.38 89.5186 152.226 89.6986 152.802L88.8166 153.252C88.6186 152.676 88.0966 151.776 87.5926 151.146ZM83.9746 150.93L84.9646 151.164C84.5686 151.956 83.9926 152.964 83.3446 153.594L82.4806 152.928C83.0386 152.442 83.6146 151.65 83.9746 150.93ZM87.9706 148.194L88.7986 147.78C89.3926 148.644 90.0046 149.76 90.2566 150.462L89.3746 150.93C89.1226 150.21 88.5286 149.058 87.9706 148.194ZM83.3266 148.176C83.2546 147.924 83.0926 147.384 82.9666 147.096C83.2006 147.06 83.4346 146.934 83.7046 146.736C83.9746 146.538 84.9106 145.71 85.5046 144.864L86.5666 145.368C85.7746 146.25 84.8746 147.078 84.0466 147.564V147.582C84.0466 147.582 83.3266 147.924 83.3266 148.176ZM83.3266 148.176L83.3086 147.384L83.8666 147.06L87.1246 146.862C87.0706 147.132 87.0346 147.51 87.0346 147.726C84.0646 147.96 83.5966 148.068 83.3266 148.176ZM83.0746 150.714C83.0386 150.48 82.8766 149.94 82.7506 149.652C83.0926 149.616 83.5066 149.4 84.0106 149.058C84.5686 148.734 86.4046 147.402 87.7006 146.034L88.6186 146.664C87.1066 148.05 85.4326 149.292 83.8306 150.156V150.174C83.8306 150.174 83.0746 150.48 83.0746 150.714ZM83.0746 150.714L83.0566 149.832L83.7226 149.472L89.3206 149.04C89.2666 149.346 89.2306 149.796 89.2306 150.012C84.0826 150.462 83.4526 150.552 83.0746 150.714ZM91.1026 141.408H95.3866V142.524H90.8326L91.1026 141.408ZM91.2466 137.88L92.4346 138.078C91.9666 141.282 91.1926 144.36 89.8606 146.412C89.7166 146.16 89.3206 145.584 89.0686 145.332C90.2206 143.532 90.8686 140.742 91.2466 137.88ZM91.3366 142.596C91.8766 147.348 93.0646 151.74 95.6926 153.468C95.4226 153.684 95.0086 154.152 94.8286 154.476C92.0926 152.442 90.9226 147.906 90.3466 142.722L91.3366 142.596ZM93.4786 141.768L94.6126 141.84C94.1266 147.798 93.0106 151.884 89.6266 154.494C89.4826 154.26 89.1046 153.792 88.8526 153.576C92.0926 151.272 93.0826 147.294 93.4786 141.768ZM81.4726 137.88L82.7146 138.33C81.8866 139.77 80.5726 141.408 79.3486 142.488C79.1866 142.218 78.8446 141.714 78.6286 141.48C79.6906 140.544 80.8786 139.068 81.4726 137.88ZM81.8686 141.498L83.0566 141.912C82.0846 144.018 80.6086 146.268 79.2226 147.744C79.0786 147.474 78.6826 146.844 78.4306 146.574C79.7266 145.278 81.0406 143.37 81.8686 141.498ZM80.5726 144.774L81.7426 143.604V154.422H80.5726V144.774ZM104.171 140.544H114.071V141.804H104.171V140.544ZM106.583 142.272L107.789 142.812C106.979 144.252 105.773 145.782 104.549 146.844C104.333 146.592 103.901 146.232 103.613 146.016C104.783 145.062 105.953 143.532 106.583 142.272ZM109.913 142.884L110.867 142.146C112.037 143.28 113.423 144.846 114.035 145.908L113.027 146.736C112.451 145.656 111.101 144.018 109.913 142.884ZM106.781 145.512C108.059 149.094 110.705 151.956 114.359 153.144C114.053 153.414 113.639 153.954 113.441 154.332C109.661 152.928 107.051 149.85 105.611 145.818L106.781 145.512ZM107.303 138.276L108.455 137.79C109.067 138.456 109.679 139.356 109.967 139.986L108.761 140.562C108.491 139.932 107.897 138.96 107.303 138.276ZM98.1046 141.696H103.721V142.974H98.1046V141.696ZM100.463 137.88H101.705V154.422H100.463V137.88ZM100.319 142.452L101.147 142.758C100.607 145.674 99.4546 149.292 98.2306 151.128C98.0866 150.75 97.7626 150.174 97.5106 149.832C98.6806 148.212 99.8326 145.044 100.319 142.452ZM101.669 143.64C102.047 144.18 103.523 146.646 103.847 147.24L103.019 148.266C102.641 147.294 101.471 144.99 101.021 144.198L101.669 143.64ZM110.669 145.422L111.983 145.746C110.795 149.832 108.293 152.694 104.351 154.458C104.171 154.17 103.757 153.684 103.487 153.45C107.231 151.812 109.679 149.13 110.669 145.422ZM123.521 137.898H124.655V142.506H123.521V137.898ZM121.145 139.104H122.117V141.786H126.059V139.122H127.067V142.884H121.145V139.104ZM120.875 143.856H126.833V144.954H120.875V143.856ZM123.647 149.832H124.745V153.252C124.745 153.756 124.655 154.008 124.295 154.17C123.917 154.332 123.413 154.332 122.603 154.332C122.531 154.062 122.351 153.684 122.207 153.432C122.765 153.45 123.269 153.45 123.431 153.432C123.593 153.432 123.647 153.378 123.647 153.234V149.832ZM125.393 151.146L126.239 150.75C126.761 151.38 127.319 152.226 127.499 152.802L126.617 153.252C126.419 152.676 125.897 151.776 125.393 151.146ZM121.775 150.93L122.765 151.164C122.369 151.956 121.793 152.964 121.145 153.594L120.281 152.928C120.839 152.442 121.415 151.65 121.775 150.93ZM125.771 148.194L126.599 147.78C127.193 148.644 127.805 149.76 128.057 150.462L127.175 150.93C126.923 150.21 126.329 149.058 125.771 148.194ZM121.127 148.176C121.055 147.924 120.893 147.384 120.767 147.096C121.001 147.06 121.235 146.934 121.505 146.736C121.775 146.538 122.711 145.71 123.305 144.864L124.367 145.368C123.575 146.25 122.675 147.078 121.847 147.564V147.582C121.847 147.582 121.127 147.924 121.127 148.176ZM121.127 148.176L121.109 147.384L121.667 147.06L124.925 146.862C124.871 147.132 124.835 147.51 124.835 147.726C121.865 147.96 121.397 148.068 121.127 148.176ZM120.875 150.714C120.839 150.48 120.677 149.94 120.551 149.652C120.893 149.616 121.307 149.4 121.811 149.058C122.369 148.734 124.205 147.402 125.501 146.034L126.419 146.664C124.907 148.05 123.233 149.292 121.631 150.156V150.174C121.631 150.174 120.875 150.48 120.875 150.714ZM120.875 150.714L120.857 149.832L121.523 149.472L127.121 149.04C127.067 149.346 127.031 149.796 127.031 150.012C121.883 150.462 121.253 150.552 120.875 150.714ZM128.903 141.408H133.187V142.524H128.633L128.903 141.408ZM129.047 137.88L130.235 138.078C129.767 141.282 128.993 144.36 127.661 146.412C127.517 146.16 127.121 145.584 126.869 145.332C128.021 143.532 128.669 140.742 129.047 137.88ZM129.137 142.596C129.677 147.348 130.865 151.74 133.493 153.468C133.223 153.684 132.809 154.152 132.629 154.476C129.893 152.442 128.723 147.906 128.147 142.722L129.137 142.596ZM131.279 141.768L132.413 141.84C131.927 147.798 130.811 151.884 127.427 154.494C127.283 154.26 126.905 153.792 126.653 153.576C129.893 151.272 130.883 147.294 131.279 141.768ZM119.273 137.88L120.515 138.33C119.687 139.77 118.373 141.408 117.149 142.488C116.987 142.218 116.645 141.714 116.429 141.48C117.491 140.544 118.679 139.068 119.273 137.88ZM119.669 141.498L120.857 141.912C119.885 144.018 118.409 146.268 117.023 147.744C116.879 147.474 116.483 146.844 116.231 146.574C117.527 145.278 118.841 143.37 119.669 141.498ZM118.373 144.774L119.543 143.604V154.422H118.373V144.774Z" fill="white"/>
</svg>
