<svg width="134" height="155" viewBox="0 0 134 155" fill="none" xmlns="http://www.w3.org/2000/svg">
<path d="M21 108L67.3333 5.33325L113 108" stroke="white" stroke-width="3.38947" stroke-miterlimit="10"/>
<path d="M38.3345 69.6659H95.3345" stroke="white" stroke-width="3.38947" stroke-miterlimit="10"/>
<path d="M6.51937 153.336C3.75937 153.336 1.95937 152.232 0.759366 150.888L2.12737 149.112C3.15937 150.168 4.45537 151.056 6.30337 151.056C8.27137 151.056 9.63937 149.952 9.63937 148.128C9.63937 146.16 8.39137 144.912 4.43137 144.912V142.848C7.88737 142.848 9.03937 141.552 9.03937 139.776C9.03937 138.216 8.03137 137.232 6.32737 137.232C4.98337 137.232 3.83137 137.88 2.82337 138.888L1.35937 137.136C2.77537 135.888 4.40737 135.024 6.44737 135.024C9.61537 135.024 11.8474 136.656 11.8474 139.56C11.8474 141.6 10.6714 143.016 8.79937 143.712V143.832C10.8394 144.36 12.4474 145.872 12.4474 148.272C12.4474 151.464 9.78337 153.336 6.51937 153.336ZM17.9629 153.252C17.3149 153.252 16.7929 152.73 16.7929 151.992C16.7929 151.236 17.3149 150.732 17.9629 150.732C18.6289 150.732 19.1689 151.236 19.1689 151.992C19.1689 152.73 18.6289 153.252 17.9629 153.252ZM32.2786 151.542H37.1746V152.856H32.2786V151.542ZM22.3426 141.3H29.2546V142.614H22.3426V141.3ZM31.6666 140.13H37.8226V154.044H36.4546V141.426H32.9806V154.17H31.6666V140.13ZM28.8946 141.3H30.2086C30.2086 141.3 30.2086 141.804 30.2086 141.984C30.0646 149.994 29.9386 152.622 29.3626 153.414C29.0386 153.882 28.7146 154.044 28.1746 154.098C27.6706 154.17 26.8426 154.17 26.0326 154.116C26.0146 153.72 25.8706 153.126 25.6366 152.748C26.4826 152.82 27.2566 152.82 27.5986 152.82C27.8686 152.838 28.0306 152.784 28.1926 152.55C28.6066 151.992 28.7686 149.328 28.8946 141.624V141.3ZM24.8986 138.132H26.2126C26.1946 144.774 26.1046 151.02 22.9366 154.458C22.7026 154.152 22.2346 153.738 21.8926 153.54C24.8986 150.372 24.8806 144.432 24.8986 138.132ZM44.3746 138.978H49.4686V140.346H44.3746V138.978ZM48.7846 138.978H50.1706C50.1706 142.2 50.5666 149.04 57.6766 153.252C57.3706 153.486 56.8306 154.062 56.5786 154.386C49.3786 150.03 48.7846 142.362 48.7846 138.978ZM48.2806 142.506L49.8106 142.794C48.5146 148.284 46.1386 152.082 42.1606 154.422C41.9086 154.134 41.2966 153.576 40.9366 153.324C44.9326 151.236 47.1826 147.6 48.2806 142.506ZM75.0646 143.01L75.9466 143.892C74.7406 144.864 73.1206 145.908 71.8786 146.592L71.1586 145.8C72.3826 145.116 74.0746 143.91 75.0646 143.01ZM67.1446 138.654L68.1526 138.006C69.0166 138.672 69.9166 139.608 70.3486 140.274L69.2866 141.012C68.8726 140.346 67.9726 139.338 67.1446 138.654ZM65.6866 140.922H76.3066V142.128L65.6866 142.11V140.922ZM70.6186 145.026L71.4826 145.62C70.4026 146.664 68.3506 147.996 66.8746 148.752C66.6946 148.446 66.3706 147.996 66.1006 147.762C67.5766 147.186 69.5926 146.016 70.6186 145.026ZM71.3926 147.456L72.2926 148.068C70.9606 149.58 68.4046 151.218 66.3166 152.028C66.1366 151.722 65.8126 151.29 65.5246 151.038C67.6126 150.39 70.1506 148.86 71.3926 147.456ZM73.3906 137.898L74.6866 138.33C74.0206 139.392 73.1926 140.598 72.5266 141.354L71.4286 140.958C72.0946 140.148 72.9406 138.834 73.3906 137.898ZM60.6286 138.672H64.8766V139.896H61.8526V154.458H60.6286V138.672ZM64.4626 138.672H64.6966L64.9126 138.618L65.7766 139.14C65.2546 140.616 64.5886 142.47 63.9766 143.91C65.3086 145.404 65.5966 146.664 65.5966 147.78C65.5966 148.752 65.3986 149.508 64.8946 149.868C64.6426 150.03 64.3186 150.138 63.9586 150.192C63.5986 150.228 63.1486 150.228 62.7346 150.21C62.7166 149.886 62.6086 149.364 62.4106 149.022C62.8246 149.058 63.1666 149.076 63.4546 149.04C63.6706 149.04 63.8686 148.986 64.0126 148.878C64.3006 148.68 64.3906 148.194 64.3906 147.654C64.3906 146.682 64.0666 145.458 62.7706 144.054C63.4186 142.416 64.0846 140.274 64.4626 139.032V138.672ZM70.4026 141.354L71.5366 141.786C70.2406 143.424 68.1166 144.9 66.2086 145.836C66.0646 145.584 65.6686 145.08 65.3986 144.846C67.2886 144.072 69.2686 142.794 70.4026 141.354ZM73.5166 145.512C74.1646 147.618 75.4426 149.886 76.6846 151.056C76.4146 151.254 76.0006 151.65 75.7846 151.938C74.5066 150.624 73.1926 148.14 72.4726 145.872L73.5166 145.512ZM69.0706 143.136L70.0606 142.596C73.4446 146.052 73.2826 152.154 71.6986 153.486C71.1946 154.008 70.6906 154.188 69.9166 154.206C69.5926 154.206 68.9806 154.188 68.4946 154.152C68.4766 153.792 68.3686 153.27 68.1526 152.91C68.7286 152.982 69.3406 153 69.6826 153C70.1146 153 70.4206 152.928 70.7266 152.604C71.8426 151.632 72.1306 146.34 69.0706 143.136ZM84.6406 152.478H93.3346V153.72H84.6406V152.478ZM84.0286 139.698H90.6346V140.904H84.0286V139.698ZM84.8386 137.826L86.3506 138.132C85.0006 140.472 82.8406 142.92 79.7086 144.774C79.5106 144.432 79.0606 143.964 78.7546 143.73C81.7246 142.11 83.7946 139.788 84.8386 137.826ZM90.1846 139.698H90.4366L90.6886 139.626L91.5886 140.112C89.4286 145.548 84.3526 149.166 79.4566 150.75C79.2946 150.39 78.9526 149.832 78.6646 149.544C83.3266 148.194 88.3126 144.666 90.1846 139.932V139.698ZM81.7786 142.902L82.7866 142.038C84.2086 143.01 85.9366 144.45 86.7646 145.476L85.6666 146.448C84.9106 145.422 83.2006 143.91 81.7786 142.902ZM92.6686 146.79H94.0546V154.476H92.6686V146.79ZM85.2526 146.79H93.3526V148.032H85.2526V154.44H83.9026V147.852L84.9826 146.79H85.2526ZM104.171 140.544H114.071V141.804H104.171V140.544ZM106.583 142.272L107.789 142.812C106.979 144.252 105.773 145.782 104.549 146.844C104.333 146.592 103.901 146.232 103.613 146.016C104.783 145.062 105.953 143.532 106.583 142.272ZM109.913 142.884L110.867 142.146C112.037 143.28 113.423 144.846 114.035 145.908L113.027 146.736C112.451 145.656 111.101 144.018 109.913 142.884ZM106.781 145.512C108.059 149.094 110.705 151.956 114.359 153.144C114.053 153.414 113.639 153.954 113.441 154.332C109.661 152.928 107.051 149.85 105.611 145.818L106.781 145.512ZM107.303 138.276L108.455 137.79C109.067 138.456 109.679 139.356 109.967 139.986L108.761 140.562C108.491 139.932 107.897 138.96 107.303 138.276ZM98.1046 141.696H103.721V142.974H98.1046V141.696ZM100.463 137.88H101.705V154.422H100.463V137.88ZM100.319 142.452L101.147 142.758C100.607 145.674 99.4546 149.292 98.2306 151.128C98.0866 150.75 97.7626 150.174 97.5106 149.832C98.6806 148.212 99.8326 145.044 100.319 142.452ZM101.669 143.64C102.047 144.18 103.523 146.646 103.847 147.24L103.019 148.266C102.641 147.294 101.471 144.99 101.021 144.198L101.669 143.64ZM110.669 145.422L111.983 145.746C110.795 149.832 108.293 152.694 104.351 154.458C104.171 154.17 103.757 153.684 103.487 153.45C107.231 151.812 109.679 149.13 110.669 145.422ZM122.441 152.478H131.135V153.72H122.441V152.478ZM121.829 139.698H128.435V140.904H121.829V139.698ZM122.639 137.826L124.151 138.132C122.801 140.472 120.641 142.92 117.509 144.774C117.311 144.432 116.861 143.964 116.555 143.73C119.525 142.11 121.595 139.788 122.639 137.826ZM127.985 139.698H128.237L128.489 139.626L129.389 140.112C127.229 145.548 122.153 149.166 117.257 150.75C117.095 150.39 116.753 149.832 116.465 149.544C121.127 148.194 126.113 144.666 127.985 139.932V139.698ZM119.579 142.902L120.587 142.038C122.009 143.01 123.737 144.45 124.565 145.476L123.467 146.448C122.711 145.422 121.001 143.91 119.579 142.902ZM130.469 146.79H131.855V154.476H130.469V146.79ZM123.053 146.79H131.153V148.032H123.053V154.44H121.703V147.852L122.783 146.79H123.053Z" fill="white"/>
</svg>
