<svg width="134" height="155" viewBox="0 0 134 155" fill="none" xmlns="http://www.w3.org/2000/svg">
<path d="M14.9194 57.972L60.4899 110.362L104.82 57.972L58.9398 5.89148L14.9194 57.972Z" stroke="white" stroke-width="3.5" stroke-miterlimit="10"/>
<path d="M89.3203 17.3602L104.51 34.7203L119.081 17.3602L104.2 0L89.3203 17.3602Z" fill="white"/>
<path d="M1.14337 153V151.392C6.37537 146.784 9.03937 143.352 9.03937 140.448C9.03937 138.552 8.03137 137.232 6.06337 137.232C4.67137 137.232 3.51937 138.096 2.58337 139.176L0.999366 137.664C2.53537 136.008 4.09537 135.024 6.39937 135.024C9.63937 135.024 11.7274 137.112 11.7274 140.328C11.7274 143.712 8.99137 147.24 5.24737 150.84C6.15937 150.744 7.28737 150.648 8.15137 150.648H12.5674V153H1.14337ZM17.9629 153.252C17.3149 153.252 16.7929 152.73 16.7929 151.992C16.7929 151.236 17.3149 150.732 17.9629 150.732C18.6289 150.732 19.1689 151.236 19.1689 151.992C19.1689 152.73 18.6289 153.252 17.9629 153.252ZM27.4186 145.566H37.8766V146.61H27.4186V145.566ZM26.6626 148.284H38.4526V149.328H26.6626V148.284ZM29.9206 144.27H31.1806V148.86H29.9206V144.27ZM33.9886 144.27H35.2486V148.86H33.9886V144.27ZM33.5206 150.084L34.4206 149.472C35.7706 150.102 37.2826 150.948 38.1466 151.614L36.9586 152.244C36.1846 151.56 34.8346 150.714 33.5206 150.084ZM30.5146 149.49L31.7206 149.904C30.7666 150.804 29.2906 151.722 28.0666 152.28C27.8146 152.064 27.3286 151.65 27.0226 151.452C28.2826 150.966 29.6686 150.228 30.5146 149.49ZM27.8146 138.6H32.0986V141.66H27.8146V140.724H30.9286V139.518H27.8146V138.6ZM33.5566 138.618H37.9306V141.678H33.5566V140.742H36.7426V139.536H33.5566V138.618ZM33.0346 138.618H34.1506V142.29C34.1506 142.794 34.2226 142.956 34.6366 142.956C34.9966 142.956 36.7066 142.956 37.0666 142.956C37.4086 142.956 37.9486 142.938 38.2546 142.884C38.2726 143.172 38.3086 143.586 38.3626 143.856C38.0926 143.91 37.6066 143.946 37.1206 143.946C36.7066 143.946 34.8706 143.946 34.5826 143.946C33.3406 143.946 33.0346 143.496 33.0346 142.272V138.618ZM27.3106 144.396L27.2746 143.514L27.8326 143.136L32.2606 142.434C32.2066 142.722 32.1526 143.172 32.1526 143.406C28.1566 144.126 27.6166 144.234 27.3106 144.396ZM27.3106 144.396C27.2386 144.108 26.9866 143.586 26.8246 143.316C27.0406 143.208 27.2926 142.974 27.2926 142.29V138.6H28.3906V143.388C28.3906 143.388 27.3106 144 27.3106 144.396ZM22.5946 138.6L23.5846 137.988C24.4126 138.87 25.4206 140.022 25.9246 140.742L24.8626 141.48C24.3946 140.742 23.3866 139.482 22.5946 138.6ZM22.2346 142.056H25.5106V143.19H22.2346V142.056ZM25.3306 150.3C26.4466 152.658 28.8226 152.982 32.4406 152.982C34.3486 152.982 37.0126 152.892 38.8666 152.73C38.6506 153.036 38.4886 153.666 38.4166 154.044C36.7066 154.134 34.4206 154.188 32.4226 154.188C28.1746 154.188 25.7986 153.702 24.4306 150.714L25.3306 150.3ZM25.3126 146.538H25.6366L25.8706 146.502L26.5546 146.754C25.9966 150.534 24.6466 153.09 22.8106 154.494C22.6306 154.206 22.1806 153.756 21.9106 153.558C23.6566 152.316 24.8626 150.012 25.3126 146.772V146.538ZM22.5226 147.888V146.862L23.1706 146.538H25.6726V147.636H23.5486C23.1346 147.636 22.6666 147.762 22.5226 147.888ZM22.5226 147.888C22.4506 147.582 22.1806 146.952 22.0366 146.682C22.2886 146.61 22.5586 146.502 22.8286 146.142C23.2966 145.638 24.7186 143.118 25.2046 142.182V142.128L25.5826 141.966L26.4826 142.308C25.7806 143.532 24.3946 145.908 23.5306 147.042C23.5306 147.042 22.5226 147.528 22.5226 147.888ZM54.0046 139.536V141.426H55.8406V139.536H54.0046ZM51.1246 139.536V141.426H52.9246V139.536H51.1246ZM48.3166 139.536V141.426H50.0446V139.536H48.3166ZM47.2186 138.546H56.9746V142.398H47.2186V138.546ZM47.4166 143.46H56.6146V144.504H47.4166V143.46ZM46.6246 145.782H57.1906V146.844H46.6246V145.782ZM47.0026 148.554H56.8126V149.616H47.0026V148.554ZM46.3906 150.912H57.4426V151.974H46.3906V150.912ZM51.3046 142.092H52.5826V146.196H51.3046V142.092ZM51.3046 149.022H52.5826V154.44H51.3046V149.022ZM48.7666 147.096L49.9006 146.826C50.1706 147.348 50.4946 148.05 50.6206 148.5L49.4506 148.842C49.3426 148.356 49.0546 147.636 48.7666 147.096ZM54.1126 146.79L55.3906 147.132C54.9766 147.852 54.5626 148.626 54.2026 149.148L53.1946 148.824C53.5006 148.248 53.9146 147.384 54.1126 146.79ZM40.9186 147.186C42.2506 146.808 44.2486 146.178 46.1926 145.548L46.3726 146.772C44.5906 147.402 42.7186 148.014 41.2606 148.5L40.9186 147.186ZM41.1166 141.516H46.3726V142.776H41.1166V141.516ZM43.2946 137.898H44.5546V152.802C44.5546 153.522 44.3746 153.9 43.9246 154.116C43.5106 154.332 42.8086 154.368 41.6746 154.368C41.6206 154.026 41.4586 153.468 41.2786 153.09C42.0706 153.126 42.7546 153.126 42.9706 153.108C43.1866 153.108 43.2946 153.036 43.2946 152.802V137.898ZM60.7906 143.334H66.1186V144.414H60.7906V143.334ZM60.7906 145.692H66.1366V146.772H60.7906V145.692ZM60.0346 140.94H66.8926V142.074H60.0346V140.94ZM61.3666 148.104H66.1366V153.36H61.3666V152.226H64.9306V149.238H61.3666V148.104ZM60.7726 148.104H61.9606V154.206H60.7726V148.104ZM61.9966 138.348L63.0406 137.808C63.5626 138.546 64.1566 139.5 64.4446 140.13L63.3286 140.778C63.0586 140.112 62.4826 139.086 61.9966 138.348ZM68.6926 138.546H73.3546V139.806H68.6926V138.546ZM66.6946 145.836H74.6326V147.114H66.6946V145.836ZM74.1466 145.836H74.4166L74.6506 145.782L75.4966 146.16C74.1106 150.75 70.6366 153.288 66.7306 154.458C66.5866 154.098 66.2806 153.54 66.0286 153.252C69.6646 152.334 72.9766 149.922 74.1466 146.07V145.836ZM68.6026 146.988C69.9346 150.066 72.7606 152.352 76.5586 153.198C76.2706 153.486 75.8926 154.044 75.7126 154.422C71.8066 153.396 68.9806 150.912 67.4506 147.384L68.6026 146.988ZM68.4226 138.546H69.6826V140.562C69.6826 142.182 69.2146 144.108 67.0546 145.386C66.8926 145.116 66.4246 144.594 66.1906 144.396C68.1346 143.28 68.4226 141.804 68.4226 140.526V138.546ZM72.6886 138.546H73.9486V142.722C73.9486 143.226 73.9846 143.406 74.2186 143.406C74.4166 143.406 75.1186 143.406 75.3166 143.406C75.5326 143.406 75.8746 143.37 76.0906 143.316C76.1086 143.658 76.1446 144.162 76.1986 144.468C76.0006 144.558 75.6406 144.576 75.3166 144.576C75.0826 144.576 74.3446 144.576 74.1286 144.576C72.9406 144.576 72.6886 144.072 72.6886 142.704V138.546ZM80.0326 143.334H85.9186V144.414H80.0326V143.334ZM80.0326 145.692H85.8826V146.772H80.0326V145.692ZM79.2226 140.94H86.6746V142.074H79.2226V140.94ZM80.7346 148.104H85.9006V153.36H80.7346V152.226H84.7126V149.238H80.7346V148.104ZM80.1586 148.104H81.3286V154.206H80.1586V148.104ZM81.3646 138.348L82.4266 137.808C82.9306 138.546 83.5066 139.5 83.7946 140.13L82.7146 140.778C82.4446 140.112 81.8506 139.086 81.3646 138.348ZM86.6566 144.126H95.2786V145.458H86.6566V144.126ZM90.1846 138.222H91.5706V154.44H90.1846V138.222ZM109.157 143.73H110.435V144.594C110.435 147.33 110.147 151.344 106.727 154.476C106.493 154.17 106.025 153.774 105.701 153.576C108.923 150.696 109.157 147.042 109.157 144.558V143.73ZM110.327 145.926C110.921 149.202 112.217 152.1 114.449 153.306C114.161 153.576 113.729 154.08 113.531 154.422C111.173 152.982 109.895 149.832 109.247 146.142L110.327 145.926ZM97.9066 139.608H106.223V140.742H97.9066V139.608ZM97.6906 147.312H106.385V148.446H97.6906V147.312ZM98.3206 142.29H105.845V143.442H98.3206V142.29ZM98.5186 144.792H105.629V145.926H98.5186V144.792ZM101.417 137.952H102.695V143.028H101.417V137.952ZM99.2026 149.076L100.337 149.364C99.8866 150.696 99.2026 152.208 98.6446 153.216C98.3746 153.054 97.8526 152.82 97.5646 152.694C98.1766 151.722 98.8066 150.318 99.2026 149.076ZM103.739 149.472L104.765 149.076C105.287 149.958 105.881 151.182 106.169 151.884L105.071 152.388C104.819 151.65 104.261 150.408 103.739 149.472ZM107.699 141.156H113.135V142.398H107.699V141.156ZM107.771 137.898L109.085 138.078C108.653 141.21 107.861 144.162 106.691 146.124C106.457 145.908 105.881 145.512 105.575 145.332C106.745 143.55 107.411 140.76 107.771 137.898ZM112.793 141.156H112.991L113.225 141.102L114.125 141.372C113.783 142.992 113.261 144.882 112.775 146.07L111.677 145.746C112.091 144.63 112.541 142.812 112.793 141.408V141.156ZM101.435 147.762H102.713V154.44H101.435V147.762ZM128.651 138.78L129.551 138.006C130.487 138.636 131.621 139.572 132.179 140.202L131.225 141.048C130.685 140.4 129.587 139.428 128.651 138.78ZM116.879 141.246H132.917V142.56H116.879V141.246ZM117.491 145.26H125.447V146.574H117.491V145.26ZM120.731 145.962H122.081V152.388H120.731V145.962ZM116.951 152.568C119.093 152.154 122.621 151.434 125.951 150.714L126.059 151.92C122.981 152.64 119.687 153.396 117.365 153.918L116.951 152.568ZM126.041 137.97H127.481C127.427 146.322 129.047 153.072 131.261 153.072C131.765 153.072 131.981 152.082 132.089 149.67C132.395 149.976 132.917 150.282 133.295 150.408C133.061 153.558 132.539 154.476 131.153 154.476C127.571 154.476 126.113 146.682 126.041 137.97Z" fill="white"/>
</svg>
