<svg width="134" height="158" viewBox="0 0 134 158" fill="none" xmlns="http://www.w3.org/2000/svg">
<path d="M109.982 35.4774L48.6035 3L7.42682 80.8193L68.8054 113.297L109.982 35.4774Z" stroke="white" stroke-width="3.5" stroke-miterlimit="10"/>
<path d="M101.773 51.0957L21.4824 54.8157" stroke="white" stroke-width="3.5" stroke-miterlimit="10"/>
<path d="M17.4517 10.484L55.272 30.6342" stroke="white" stroke-width="3.5" stroke-miterlimit="10"/>
<path d="M117.273 74.6566C126.573 74.6566 126.573 65.3565 126.573 65.3565L117.273 49.5464L107.973 65.0465C107.973 65.0465 107.663 74.6566 117.273 74.6566Z" fill="white"/>
<path d="M8.22337 156V144.48C8.22337 143.544 8.29537 142.032 8.36737 141.072H8.24737C7.81537 141.96 7.33537 142.896 6.83137 143.808L3.37537 149.112H13.0714V151.272H0.591366V149.4L7.59937 138.336H10.8154V156H8.22337ZM17.9629 156.252C17.3149 156.252 16.7929 155.73 16.7929 154.992C16.7929 154.236 17.3149 153.732 17.9629 153.732C18.6289 153.732 19.1689 154.236 19.1689 154.992C19.1689 155.73 18.6289 156.252 17.9629 156.252ZM22.8106 146.334H27.6886V147.414H22.8106V146.334ZM23.3866 151.104H27.7066V156.36H23.3866V155.226H26.5906V152.238H23.3866V151.104ZM22.8106 151.104H23.9266V157.188H22.8106V151.104ZM22.8106 148.692H27.6886V149.772H22.8106V148.692ZM22.1086 143.94H28.2466V145.074H22.1086V143.94ZM24.0346 141.366L25.0246 140.916C25.5286 141.654 26.1046 142.644 26.3926 143.256L25.3306 143.796C25.0606 143.148 24.4846 142.122 24.0346 141.366ZM29.2546 141.708H30.3886V148.458C30.3886 151.176 30.1906 154.992 28.7326 157.476C28.5166 157.278 28.0306 156.918 27.7786 156.81C29.1286 154.434 29.2546 151.032 29.2546 148.458V141.708ZM29.8306 141.708H37.5706V142.914H29.8306V141.708ZM36.9946 141.708H38.1286V155.784C38.1286 156.468 37.9666 156.864 37.5166 157.062C37.0486 157.26 36.2926 157.278 35.0506 157.278C35.0146 156.972 34.8346 156.432 34.6546 156.108C35.5906 156.144 36.4006 156.144 36.6346 156.126C36.9046 156.108 36.9946 156.036 36.9946 155.784V141.708ZM30.1186 144.84H37.2466V145.956H30.1186V144.84ZM30.0646 147.792H37.2826V148.89H30.0646V147.792ZM33.0886 142.392H34.2406V148.386H33.0886V142.392ZM31.7926 150.096H36.0046V154.344H31.7926V153.318H34.9426V151.104H31.7926V150.096ZM31.1806 150.096H32.1886V155.172H31.1806V150.096ZM42.3406 150.726H56.2906V151.86H42.3406V150.726ZM41.2966 142.014H49.5226V143.04H41.2966V142.014ZM49.3246 153.264H55.1206V154.326H49.3246V153.264ZM41.1346 155.802H57.4786V156.972H41.1346V155.802ZM48.5866 151.14H49.9186V156.306H48.5866V151.14ZM44.8786 140.88H46.0846V150.222H44.8786V140.88ZM44.0866 152.796H45.3826V156.396H44.0866V152.796ZM42.9346 144.876V146.208H47.8846V144.876H42.9346ZM41.8366 143.958H49.0546V147.09H41.8366V143.958ZM51.7726 140.898L52.9966 141.168C52.4206 143.22 51.3586 145.164 50.0986 146.406C49.9186 146.154 49.4506 145.704 49.1806 145.488C50.3686 144.39 51.2686 142.716 51.7726 140.898ZM51.5026 142.896H57.4066V144.03H50.9446L51.5026 142.896ZM55.1206 143.382L56.3806 143.526C55.4986 147.144 53.2846 149.196 50.0086 150.438C49.8646 150.186 49.4686 149.664 49.2166 149.43C52.3666 148.44 54.4006 146.568 55.1206 143.382ZM51.6466 143.562C52.4026 145.794 54.2746 148.35 57.6046 149.412C57.3346 149.664 56.9746 150.168 56.8306 150.474C53.4826 149.232 51.5746 146.478 50.7646 144.156L51.6466 143.562ZM44.7526 146.748L45.6346 147.126C44.7886 148.386 43.1866 149.718 41.7826 150.366C41.6026 150.096 41.2426 149.682 40.9906 149.484C42.3766 148.962 43.9426 147.828 44.7526 146.748ZM46.0126 147.864L46.6066 147.162C47.4526 147.558 48.5326 148.188 49.0546 148.692L48.4606 149.484C47.9206 148.98 46.8946 148.314 46.0126 147.864ZM65.9566 144.03H76.4326V145.272H65.9566V144.03ZM70.3846 140.898H71.6986V155.766C71.6986 156.576 71.4826 156.972 70.9786 157.188C70.4566 157.422 69.6466 157.458 68.2066 157.458C68.1526 157.116 67.9186 156.522 67.7206 156.162C68.7826 156.198 69.7006 156.18 69.9886 156.18C70.2586 156.162 70.3846 156.072 70.3846 155.766V140.898ZM65.2546 154.47C66.5506 153.426 68.6926 151.554 70.6186 149.79L71.1046 150.762C69.4126 152.49 67.5406 154.29 66.1006 155.64L65.2546 154.47ZM66.2266 146.892L67.2886 146.406C68.0806 147.432 68.9446 148.836 69.2686 149.754L68.1526 150.294C67.8466 149.376 67.0186 147.954 66.2266 146.892ZM75.0106 146.298L76.1806 146.928C75.1906 148.296 73.9306 149.934 72.9046 150.96L71.9686 150.402C72.9406 149.34 74.2726 147.576 75.0106 146.298ZM72.5626 141.798L73.3546 141.096C74.1286 141.618 75.0646 142.428 75.5146 142.986L74.7046 143.796C74.2546 143.184 73.3546 142.356 72.5626 141.798ZM71.6446 145.578C72.3286 150.384 73.6246 152.94 76.7206 155.118C76.4146 155.37 76.0546 155.784 75.8746 156.162C72.5986 153.732 71.2486 150.888 70.5106 145.776L71.6446 145.578ZM59.9986 142.104H65.5426V143.382H59.9986V142.104ZM60.1426 147.306H65.2546V148.584H60.1426V147.306ZM59.7826 154.254C61.2766 153.858 63.5086 153.156 65.6866 152.472L65.8846 153.714C63.8506 154.362 61.7266 155.046 60.0886 155.568L59.7826 154.254ZM62.1766 142.68H63.4366V153.822L62.1766 154.074V142.68ZM79.1686 143.814H95.0086V145.11H79.1686V143.814ZM93.4426 146.658L94.5766 147.468C93.2446 148.908 91.4446 150.564 90.0226 151.644L89.0506 150.834C90.4366 149.79 92.3266 148.026 93.4426 146.658ZM88.2226 144.48C89.0686 149.7 90.7066 153.048 95.4766 155.802C95.1166 156.072 94.6846 156.576 94.5226 156.99C89.5186 153.84 87.8626 150.186 86.9626 144.714L88.2226 144.48ZM86.4406 144.156L87.8086 144.678C85.9726 147.522 82.8406 150.168 79.4386 151.752C79.2946 151.428 78.9166 150.87 78.6826 150.6C81.8866 149.178 84.9826 146.658 86.4406 144.156ZM82.4986 157.404L82.3906 156.144L83.0566 155.604L89.0326 153.768C89.0866 154.164 89.2306 154.704 89.3386 155.01C83.6686 156.81 82.9666 157.062 82.4986 157.404ZM85.8286 141.222L87.1786 140.808C87.6826 141.618 88.2046 142.716 88.3846 143.418L86.9626 143.904C86.7826 143.166 86.2966 142.05 85.8286 141.222ZM82.4986 157.404C82.3726 157.098 82.0126 156.576 81.7786 156.324C82.1206 156.108 82.7506 155.604 82.7506 154.74V148.386H84.1186V155.766C84.1186 155.766 82.4986 156.864 82.4986 157.404ZM103.721 143.58L104.783 143.994C103.361 145.416 101.075 146.64 99.1126 147.414C98.9146 147.198 98.5006 146.784 98.2126 146.586C100.283 145.92 102.461 144.84 103.721 143.58ZM98.7886 144.534L99.6526 143.85C101.507 144.57 103.883 145.704 105.179 146.46L104.315 147.234C103.037 146.424 100.679 145.254 98.7886 144.534ZM97.9966 142.608H105.791V143.706H97.9966V142.608ZM98.8606 147.342H105.971V148.458H98.8606V147.342ZM103.739 148.602L104.783 149.016C103.793 149.97 102.191 150.762 100.805 151.248C100.607 151.014 100.301 150.672 100.013 150.474C101.327 150.06 102.893 149.358 103.739 148.602ZM98.4466 147.342H99.6706V151.068C99.6706 152.922 99.4726 155.55 98.4106 157.314C98.2126 157.062 97.7086 156.612 97.4386 156.468C98.3566 154.866 98.4466 152.688 98.4466 151.05V147.342ZM104.225 150.888L105.269 151.302C104.207 152.436 102.497 153.426 100.931 154.02C100.733 153.768 100.427 153.426 100.157 153.228C101.615 152.706 103.307 151.824 104.225 150.888ZM104.729 153.39L105.845 153.804C104.729 155.478 102.659 156.774 100.319 157.512C100.139 157.224 99.8326 156.846 99.5446 156.612C101.723 156 103.739 154.848 104.729 153.39ZM105.971 141.744H114.305V142.914H105.971V141.744ZM107.717 148.476V150.222H112.505V148.476H107.717ZM107.717 151.23V152.994H112.505V151.23H107.717ZM107.717 145.74V147.45H112.505V145.74H107.717ZM106.511 144.66H113.729V154.056H106.511V144.66ZM109.445 142.32L110.867 142.518C110.597 143.526 110.309 144.66 110.039 145.416L108.923 145.182C109.121 144.39 109.373 143.166 109.445 142.32ZM108.149 154.362L109.337 155.046C108.419 155.982 106.907 156.972 105.611 157.512C105.413 157.26 104.999 156.864 104.693 156.63C106.007 156.108 107.465 155.154 108.149 154.362ZM110.669 155.118L111.695 154.452C112.667 155.1 113.927 156.072 114.539 156.756L113.495 157.494C112.901 156.828 111.659 155.82 110.669 155.118ZM100.967 141.096L102.173 140.808C102.551 141.456 102.911 142.32 103.055 142.896L101.777 143.238C101.669 142.662 101.327 141.762 100.967 141.096ZM124.403 146.316H125.735V151.086H124.403V146.316ZM121.883 142.464H127.643V143.688H121.271L121.883 142.464ZM127.229 142.464H127.553L127.823 142.392L128.705 143.022C127.805 144.39 126.473 145.956 125.321 146.928C125.105 146.676 124.745 146.316 124.511 146.118C125.519 145.254 126.689 143.778 127.229 142.752V142.464ZM118.931 145.884H120.245V154.56C120.245 155.64 120.623 155.91 122.585 155.91C123.557 155.91 128.417 155.91 129.641 155.91C131.405 155.91 131.693 155.406 131.909 153.012C132.251 153.246 132.809 153.444 133.205 153.516C132.899 156.342 132.341 157.152 129.641 157.152C128.939 157.152 123.341 157.152 122.693 157.152C119.831 157.152 118.931 156.648 118.931 154.542V145.884ZM122.243 140.826L123.467 141.294C122.045 143.994 119.687 146.478 117.329 148.08C117.221 147.774 116.825 147.108 116.591 146.82C118.805 145.452 121.001 143.256 122.243 140.826ZM119.903 145.884H131.369V152.364H130.037V147.144H119.903V145.884ZM119.903 150.276H130.685V151.554H119.903V150.276Z" fill="white"/>
</svg>
