<svg width="141" height="23" viewBox="0 0 141 23" fill="none" xmlns="http://www.w3.org/2000/svg">
<path d="M25.496 19.704L22.616 23H0.28V0.599998H25.464L22.616 3.896H7.128V19.704H25.496ZM54.413 23H34.445L29.005 16.824V0.599998H54.413V23ZM47.725 3.896H35.693V15.384L39.501 19.704H47.725V3.896ZM80.6783 19.704L77.7983 23H58.8863V0.599998H65.5743V19.704H80.6783ZM108.988 23H89.02L83.58 16.824V0.599998H108.988V23ZM102.3 3.896H90.268V15.384L94.076 19.704H102.3V3.896ZM140.925 23H133.021L120.957 9.24H132.285V3.896H119.933V23H113.149V0.599998H138.877V12.536H131.773L140.925 23Z" fill="white"/>
</svg>
