<svg width="155" height="23" viewBox="0 0 155 23" fill="none" xmlns="http://www.w3.org/2000/svg">
<path d="M0.28 0.599998H18.392L25.496 11.832L18.392 23H0.28V0.599998ZM6.968 3.896V19.704H13.752L18.872 11.832L13.752 3.896H6.968ZM51.5255 19.704L54.4055 23H29.3175V0.599998H54.4695L51.6215 3.896H36.0375V10.168H52.9655V13.464H36.0375V19.704H51.5255ZM82.891 19.608L79.979 23H59.787L56.907 19.704H74.923L76.107 18.328V13.432H57.771V4.152L60.811 0.599998H83.659L80.843 3.896H65.899L64.459 5.528V10.136H82.891V19.608ZM88.0013 0.599998H94.7213V23H88.0013V0.599998ZM125.028 10.808V23H99.5238V0.599998H126.02L123.172 3.896H106.34V19.704H118.34V10.808H125.028ZM154.617 23L136.281 10.808V23H129.593V0.599998L148.025 12.696V0.599998H154.617V23Z" fill="white"/>
</svg>
