<svg width="145" height="23" viewBox="0 0 145 23" fill="none" xmlns="http://www.w3.org/2000/svg">
<path d="M26.816 19.608L23.904 23H3.712L0.832 19.704H18.848L20.032 18.328V13.432H1.696V4.152L4.736 0.599998H27.584L24.768 3.896H9.824L8.384 5.528V10.136H26.816V19.608ZM56.2783 0.599998V23H49.5263V13.432H37.9423V23H31.2863V0.599998H37.9423V10.136H49.5263V0.599998H56.2783ZM86.013 0.599998V23H79.293V13.464H67.453V23H60.605V0.599998H86.013ZM67.549 3.896V10.136H79.133V3.896H67.549ZM96.8938 15.064V23H90.1738V0.599998H114.974V15.064H96.8938ZM96.8298 3.896V11.768H108.254V3.896H96.8298ZM141.669 19.704L144.549 23H119.461V0.599998H144.613L141.765 3.896H126.181V10.168H143.109V13.464H126.181V19.704H141.669Z" fill="white"/>
</svg>
