<svg width="119" height="24" viewBox="0 0 119 24" fill="none" xmlns="http://www.w3.org/2000/svg">
<path d="M26.208 3.896H17.92V23H11.232V3.896H2.848L0 0.599998H29.056L26.208 3.896ZM54.1505 19.704L57.0305 23H31.9425V0.599998H57.0945L54.2465 3.896H38.6625V10.168H55.5905V13.464H38.6625V19.704H54.1505ZM77.629 11.96L87.517 23.032H79.741L73.757 16.28L67.773 23.032H60.061L69.853 11.96L59.901 0.631998H67.645L73.757 7.544L79.837 0.631998H87.613L77.629 11.96ZM116.008 3.896H107.72V23H101.032V3.896H92.648L89.8 0.599998H118.856L116.008 3.896Z" fill="white"/>
</svg>
