<svg width="186" height="23" viewBox="0 0 186 23" fill="none" xmlns="http://www.w3.org/2000/svg">
<path d="M7 15.064V23H0.28V0.599998H25.08V15.064H7ZM6.936 3.896V11.768H18.36V3.896H6.936ZM29.895 0.599998H36.615V23H29.895V0.599998ZM66.6335 19.704L63.7535 23H41.4175V0.599998H66.6015L63.7535 3.896H48.2655V19.704H66.6335ZM95.0705 3.896H86.7825V23H80.0945V3.896H71.7105L68.8625 0.599998H97.9185L95.0705 3.896ZM125.957 0.599998V23H100.805V0.599998H107.461V19.704H119.397V0.599998H125.957ZM157.9 23H149.996L137.932 9.24H149.26V3.896H136.908V23H130.124V0.599998H155.852V12.536H148.748L157.9 23ZM182.994 19.704L185.874 23H160.786V0.599998H185.938L183.09 3.896H167.506V10.168H184.434V13.464H167.506V19.704H182.994Z" fill="white"/>
</svg>
