<svg width="178" height="23" viewBox="0 0 178 23" fill="none" xmlns="http://www.w3.org/2000/svg">
<path d="M25.304 23L6.968 10.808V23H0.28V0.599998L18.712 12.696V0.599998H25.304V23ZM54.9383 0.599998V23H29.7863V0.599998H36.4423V19.704H48.3783V0.599998H54.9383ZM59.4175 23V0.599998L73.2095 9.56L87.0015 0.599998V23H80.3775V10.168L73.2095 14.712L66.1055 10.168V23H59.4175ZM116.03 23H91.4863V0.599998H114.078V9.144H116.03V23ZM98.1743 3.896V9.144H109.342V3.896H98.1743ZM98.1743 12.44V19.704H109.342V12.44H98.1743ZM142.701 19.704L145.581 23H120.493V0.599998H145.645L142.797 3.896H127.213V10.168H144.141V13.464H127.213V19.704H142.701ZM177.244 23H169.34L157.276 9.24H168.604V3.896H156.252V23H149.468V0.599998H175.196V12.536H168.092L177.244 23Z" fill="white"/>
</svg>
