<?xml version="1.0" encoding="utf-8"?>
<!-- Generator: Adobe Illustrator 24.0.1, SVG Export Plug-In . SVG Version: 6.00 Build 0)  -->
<svg version="1.1" id="圖層_1" xmlns="http://www.w3.org/2000/svg" xmlns:xlink="http://www.w3.org/1999/xlink" x="0px" y="0px"
	 viewBox="0 0 280 260" style="enable-background:new 0 0 280 260;" xml:space="preserve">
<style type="text/css">
	.st0{fill:none;stroke:#F5B25E;stroke-miterlimit:10;}
	.st1{fill:none;stroke:#F5B25E;stroke-miterlimit:10;stroke-dasharray:5.0943,2.5471;}
	.st2{fill:#F5B25E;}
	.st3{fill:none;stroke:#F5B25E;stroke-miterlimit:10;stroke-dasharray:4.932,2.466;}
	.st4{fill:none;stroke:#FFFFFF;stroke-miterlimit:10;}
</style>
<g>
	<g>
		<g>
			<line class="st0" x1="139.6" y1="51" x2="139.6" y2="53.5"/>
			<polyline class="st1" points="139.6,56 139.6,100 139.6,131.9 139.6,245.8 			"/>
			<line class="st0" x1="139.6" y1="247.1" x2="139.6" y2="249.6"/>
		</g>
	</g>
	<circle class="st2" cx="61.5" cy="31.7" r="4"/>
	<circle class="st2" cx="217.6" cy="31.7" r="4"/>
	<g>
		<g>
			<line class="st0" x1="65.5" y1="31.7" x2="68" y2="31.7"/>
			<line class="st3" x1="70.5" y1="31.7" x2="209.8" y2="31.7"/>
			<line class="st0" x1="211.1" y1="31.7" x2="213.6" y2="31.7"/>
		</g>
	</g>
	<g>
		<polyline class="st4" points="192.4,80.3 217.6,80.3 217.6,46.7 175.6,46.7 100.1,46.7 58.2,46.7 58.2,80.3 197.1,80.3 		"/>
		<path class="st4" d="M58.2,80.3C46.7,97.8,49,112,49,139s9.2,98.9,9.2,98.9s0,12.6,31.5,12.6h96.8c31.4,0,31.5-12.6,31.5-12.6
			s9.2-71.9,9.2-98.9s2.4-41.2-9.2-58.7"/>
	</g>
	<circle class="st2" cx="139.5" cy="47" r="4"/>
	<circle class="st2" cx="139.5" cy="250.2" r="4"/>
</g>
</svg>
