<?xml version="1.0" encoding="utf-8"?>
<!-- Generator: Adobe Illustrator 24.0.1, SVG Export Plug-In . SVG Version: 6.00 Build 0)  -->
<svg version="1.1" id="圖層_1" xmlns="http://www.w3.org/2000/svg" xmlns:xlink="http://www.w3.org/1999/xlink" x="0px" y="0px"
	 viewBox="0 0 280 260" style="enable-background:new 0 0 280 260;" xml:space="preserve">
<style type="text/css">
	.st0{fill:none;stroke:#FFFFFF;stroke-miterlimit:10;}
	.st1{fill:#F5B25E;}
	.st2{fill:none;stroke:#F5B25E;stroke-miterlimit:10;}
	.st3{fill:none;stroke:#F5B25E;stroke-miterlimit:10;stroke-dasharray:4.9036,2.4518;}
	.st4{fill:none;stroke:#F5B25E;stroke-miterlimit:10;stroke-dasharray:4.9877,2.4938;}
</style>
<g>
	<g>
		<path class="st0" d="M108.2,12c6.6,1.1,20.8,3.3,31.3,3.3c11,0,25.9-2.4,32.1-3.5"/>
		<line class="st0" x1="139.9" y1="38.9" x2="139.9" y2="49.5"/>
		<g>
			<path class="st0" d="M66.3,90.6c0,0,9.7-37,41.3-63"/>
			<path class="st0" d="M213.5,90.6c0,0-9.7-36.9-41.2-62.9"/>
		</g>
		<path class="st0" d="M160,254.7c-6.5,0.4-12.7,0.6-18,0.6h-4.3c-24.6,0-69-4.8-74.1-7.2s1.2-94.4,1.5-105.5s1.8-44.7,1.8-48.6
			s-0.6-3.3-0.6-3.3c-1.7-0.5-5.9,3.4-11.1,9.2c-2.5,2.8-16.4,16.9-18,17c-1.6,0.1-3.3,0.5-5.4-1c-2.6-1.7-5.5-4.3-8.6-7.4
			c-10-9.9-20.3-23.8-21.6-25.6c-2.3-3.2,3-8.4,8-13.9s33.3-36.6,49.2-46.8c12-7.7,28.3-12.5,36.6-14.4"/>
		<path class="st0" d="M119.5,254.7c6.5,0.4,12.7,0.6,18,0.6h4.3c24.6,0,69-4.8,74.1-7.2c5.1-2.4-1.2-94.4-1.5-105.5
			c-0.3-11.1-1.8-44.7-1.8-48.6s0.6-3.3,0.6-3.3c1.7-0.5,5.9,3.4,11.1,9.2c2.5,2.8,16.4,16.9,18,17c1.6,0.1,3.3,0.5,5.4-1
			c2.6-1.7,5.5-4.3,8.6-7.4c10-9.9,20.3-23.8,21.6-25.6c2.3-3.2-3-8.4-8-13.9c-5.1-5.5-33.3-36.6-49.2-46.8
			c-12-7.7-28.3-12.5-36.6-14.4"/>
		<path class="st0" d="M140.1,49.5c33.6-9,45.4-44.5,45.4-44.5l-10.5-3.4c-7.6,28.7-32.8,36.6-35,37.3h0c-2.2-0.7-27.4-8.6-35-37.3
			L94.3,4.9c0,0,11.8,35.6,45.4,44.5H140.1z"/>
		<path class="st0" d="M104.9,1.5c0,0,20.7,4,35,4c14.5,0,14.8-0.1,35-4"/>
	</g>
	<circle class="st1" cx="65.8" cy="90.6" r="3.6"/>
	<circle class="st1" cx="213" cy="90.6" r="3.6"/>
	<g>
		<g>
			<line class="st2" x1="69.9" y1="90.6" x2="72.4" y2="90.6"/>
			<line class="st3" x1="74.8" y1="90.6" x2="206" y2="90.6"/>
			<line class="st2" x1="207.2" y1="90.6" x2="209.7" y2="90.6"/>
		</g>
	</g>
	<circle class="st1" cx="139.9" cy="5.5" r="3.6"/>
	<circle class="st1" cx="139.9" cy="254.8" r="3.6"/>
	<g>
		<g>
			<line class="st2" x1="139.9" y1="5.5" x2="139.9" y2="8"/>
			<polyline class="st4" points="139.9,10.5 139.9,63 139.9,92 139.9,248.7 			"/>
			<line class="st2" x1="139.9" y1="249.9" x2="139.9" y2="252.4"/>
		</g>
	</g>
</g>
</svg>
